<svg xmlns="http://www.w3.org/2000/svg" width="30" height="30" viewBox="0 0 30 30">
    <g>
        <path fillRule="evenodd" clipRule="evenodd"
            d="M27.1678 14.488C27.0324 14.5109 26.9115 14.5866 26.8319 14.6985C26.7522 14.8104 26.7203 14.9493 26.7431 15.0848C26.855 15.7479 26.9119 16.4161 26.9119 17.0709C26.9119 20.7219 25.2854 24.0176 22.6621 26.2119C22.4434 24.7755 21.823 23.4301 20.8725 22.3311C19.922 21.2321 18.6801 20.4243 17.2902 20.0008C17.8591 19.6233 18.3259 19.1109 18.6489 18.5094C18.9719 17.9078 19.1412 17.2357 19.1416 16.5529C19.1416 14.2674 17.2829 12.4087 14.9974 12.4087C12.7119 12.4087 10.8533 14.2674 10.8533 16.5529C10.8533 17.9909 11.5899 19.257 12.7047 20.0008C11.3147 20.4243 10.0728 21.2321 9.12233 22.3311C8.17182 23.4301 7.55144 24.7755 7.33277 26.2119C5.99752 25.093 4.92468 23.6942 4.19025 22.1145C3.45582 20.5348 3.07778 18.813 3.08292 17.0709C3.08292 16.4161 3.1399 15.7489 3.25179 15.0848C3.26427 15.0172 3.26317 14.9479 3.24857 14.8807C3.23397 14.8136 3.20616 14.75 3.16676 14.6937C3.12735 14.6374 3.07714 14.5895 3.01905 14.5528C2.96096 14.5161 2.89614 14.4913 2.82838 14.4799C2.76062 14.4685 2.69127 14.4707 2.62436 14.4864C2.55745 14.502 2.49433 14.5308 2.43866 14.5711C2.383 14.6114 2.33591 14.6624 2.30013 14.721C2.26435 14.7797 2.24059 14.8449 2.23025 14.9128C2.10926 15.6258 2.04792 16.3477 2.04688 17.0709C2.04688 23.4322 6.59097 28.802 12.8507 29.8381C12.9839 29.8553 13.1185 29.8202 13.2262 29.7401C13.334 29.66 13.4064 29.5413 13.4283 29.4088C13.4502 29.2764 13.4198 29.1406 13.3436 29.0301C13.2674 28.9196 13.1512 28.8431 13.0196 28.8165C11.327 28.5369 9.71521 27.8936 8.29526 26.9309C8.54287 23.4156 11.4334 20.6971 14.9974 20.6971C18.5614 20.6971 21.4509 23.4156 21.7006 26.9309C20.2804 27.8938 18.6682 28.5371 16.9752 28.8165C16.9063 28.8255 16.8398 28.8482 16.7798 28.8834C16.7198 28.9185 16.6674 28.9654 16.6259 29.0213C16.5845 29.0771 16.5546 29.1407 16.5383 29.2083C16.5219 29.2759 16.5193 29.3461 16.5306 29.4148C16.542 29.4834 16.567 29.549 16.6043 29.6078C16.6416 29.6665 16.6903 29.7171 16.7475 29.7566C16.8048 29.7962 16.8694 29.8237 16.9375 29.8377C17.0057 29.8517 17.0759 29.8518 17.1441 29.8381C23.4039 28.802 27.948 23.4332 27.948 17.0709C27.948 16.3581 27.8858 15.6318 27.7646 14.9128C27.7536 14.8456 27.7293 14.7813 27.6933 14.7235C27.6573 14.6657 27.6102 14.6156 27.5547 14.5762C27.4992 14.5367 27.4365 14.5086 27.3701 14.4934C27.3037 14.4783 27.2349 14.4765 27.1678 14.488ZM11.8893 16.5529C11.8893 14.8393 13.2838 13.4447 14.9974 13.4447C16.711 13.4447 18.1056 14.8393 18.1056 16.5529C18.1056 18.2665 16.711 19.661 14.9974 19.661C13.2838 19.661 11.8893 18.2665 11.8893 16.5529ZM20.6708 4.09859C20.641 4.00647 20.586 3.92455 20.512 3.8621C20.4381 3.79966 20.3481 3.75919 20.2522 3.7453L16.9421 3.26458L15.4616 0.264191C15.2875 -0.0880638 14.7073 -0.0880638 14.5333 0.264191L13.0528 3.26458L9.74261 3.7453C9.64693 3.75919 9.55705 3.79959 9.48314 3.86191C9.40922 3.92423 9.35422 4.00599 9.32436 4.09795C9.2945 4.1899 9.29097 4.28838 9.31417 4.38224C9.33737 4.4761 9.38637 4.56159 9.45563 4.62905L11.851 6.96325L11.2853 10.2599C11.2689 10.3553 11.2795 10.4533 11.316 10.5429C11.3524 10.6325 11.4132 10.7101 11.4915 10.7669C11.5698 10.8238 11.6624 10.8575 11.7589 10.8644C11.8554 10.8713 11.9519 10.8511 12.0375 10.8059L14.9974 9.24877L17.9574 10.8059C18.0428 10.8517 18.1395 10.8724 18.2361 10.8654C18.3328 10.8584 18.4255 10.8242 18.5034 10.7666C18.5818 10.7097 18.6427 10.632 18.6791 10.5422C18.7155 10.4525 18.7261 10.3543 18.7096 10.2589L18.1439 6.96429L20.5403 4.62801C20.6095 4.56064 20.6585 4.47528 20.6817 4.38155C20.705 4.28781 20.7015 4.18945 20.6718 4.09756L20.6708 4.09859ZM17.2249 6.41001C17.1647 6.46871 17.1197 6.54115 17.0937 6.6211C17.0678 6.70104 17.0616 6.78611 17.0757 6.86897L17.5109 9.40003L15.2378 8.20444C15.1633 8.16558 15.0804 8.14529 14.9964 8.14529C14.9123 8.14529 14.8295 8.16558 14.755 8.20444L12.483 9.40003L12.9171 6.86897C12.9312 6.78611 12.925 6.70104 12.899 6.6211C12.8731 6.54115 12.828 6.46871 12.7679 6.41001L10.9299 4.61869L13.4703 4.24985C13.5532 4.23767 13.632 4.20558 13.6998 4.15633C13.7677 4.10707 13.8226 4.04211 13.8599 3.96701L14.9974 1.66492L16.134 3.96805C16.1712 4.04315 16.2261 4.10811 16.294 4.15736C16.3618 4.20662 16.4406 4.23871 16.5235 4.25089L19.0639 4.61972L17.226 6.41104L17.2249 6.41001Z"
            fill="#63AB45"></path>
        <path fillRule="evenodd" clipRule="evenodd"
            d="M2.60313 12.4325C2.5865 12.5279 2.59696 12.6261 2.63331 12.7159C2.66966 12.8056 2.73045 12.8834 2.80877 12.9404C2.8871 12.9973 2.97983 13.0312 3.07643 13.0381C3.17303 13.0451 3.26964 13.0248 3.35529 12.9795L5.675 11.7591L7.99574 12.9795C8.08101 13.0251 8.17746 13.0456 8.27391 13.0387C8.37036 13.0317 8.46286 12.9975 8.54069 12.9402C8.61908 12.8833 8.67995 12.8056 8.7164 12.7158C8.75284 12.6261 8.7634 12.5279 8.74687 12.4325L8.30344 9.84965L10.1808 8.02103C10.2503 7.95362 10.2996 7.86805 10.323 7.77404C10.3463 7.68003 10.3429 7.58135 10.313 7.4892C10.2831 7.39706 10.228 7.31514 10.1539 7.25275C10.0798 7.19036 9.98966 7.15 9.89377 7.13625L7.29951 6.76017L6.13914 4.40835C5.96509 4.05609 5.3849 4.05609 5.21085 4.40835L4.05048 6.76017L1.45622 7.13625C1.36033 7.15 1.27022 7.19036 1.19611 7.25275C1.12201 7.31514 1.06688 7.39706 1.03699 7.4892C1.0071 7.58135 1.00365 7.68003 1.02703 7.77404C1.05041 7.86805 1.09967 7.95362 1.16924 8.02103L3.04655 9.84965L2.60313 12.4325ZM2.64457 8.01171L4.468 7.74648C4.55114 7.73446 4.63011 7.70244 4.69814 7.65318C4.76617 7.60391 4.82123 7.53887 4.85859 7.46364L5.675 5.80908L6.4914 7.46364C6.52866 7.53874 6.58356 7.6037 6.6514 7.65295C6.71924 7.70221 6.798 7.7343 6.88095 7.74648L8.70543 8.01171L7.38551 9.29744C7.32533 9.35614 7.28031 9.42858 7.25432 9.50853C7.22834 9.58848 7.22216 9.67354 7.23631 9.75641L7.54816 11.5736L5.91639 10.7158C5.84186 10.6769 5.75905 10.6566 5.675 10.6566C5.59094 10.6566 5.50813 10.6769 5.4336 10.7158L3.80183 11.5736L4.11264 9.75641C4.12693 9.67363 4.12091 9.58861 4.09511 9.50867C4.0693 9.42873 4.02448 9.35624 3.96449 9.29744L2.64457 8.01171ZM28.5426 7.13625L25.9483 6.76017L24.7879 4.40835C24.6139 4.05609 24.0337 4.05609 23.8596 4.40835L22.6993 6.76017L20.105 7.13625C20.0091 7.15 19.919 7.19036 19.8449 7.25275C19.7708 7.31514 19.7157 7.39706 19.6858 7.4892C19.6559 7.58135 19.6524 7.68003 19.6758 7.77404C19.6992 7.86805 19.7485 7.95362 19.818 8.02103L21.6953 9.84965L21.2519 12.4325C21.2353 12.5279 21.2458 12.6261 21.2821 12.7159C21.3185 12.8056 21.3792 12.8834 21.4576 12.9404C21.5359 12.9973 21.6286 13.0312 21.7252 13.0381C21.8218 13.0451 21.9184 13.0248 22.0041 12.9795L24.3238 11.7591L26.6445 12.9795C26.7298 13.0251 26.8263 13.0456 26.9227 13.0387C27.0192 13.0317 27.1117 12.9975 27.1895 12.9402C27.2679 12.8833 27.3288 12.8056 27.3652 12.7158C27.4016 12.6261 27.4122 12.5279 27.3957 12.4325L26.9522 9.84965L28.8295 8.02103C28.8991 7.95362 28.9484 7.86805 28.9718 7.77404C28.9951 7.68003 28.9917 7.58135 28.9618 7.4892C28.9319 7.39706 28.8768 7.31514 28.8027 7.25275C28.7286 7.19036 28.6385 7.15 28.5426 7.13625ZM26.0343 9.29744C25.9741 9.35614 25.9291 9.42858 25.9031 9.50853C25.8771 9.58848 25.871 9.67354 25.8851 9.75641L26.197 11.5736L24.5652 10.7158C24.4907 10.6769 24.4078 10.6566 24.3238 10.6566C24.2397 10.6566 24.1569 10.6769 24.0824 10.7158L22.4506 11.5736L22.7614 9.75641C22.7757 9.67363 22.7697 9.58861 22.7439 9.50867C22.7181 9.42873 22.6733 9.35624 22.6133 9.29744L21.2934 8.01171L23.1168 7.74648C23.1999 7.73446 23.2789 7.70244 23.3469 7.65318C23.415 7.60391 23.47 7.53887 23.5074 7.46364L24.3238 5.80908L25.1402 7.46364C25.1775 7.53874 25.2324 7.6037 25.3002 7.65295C25.368 7.70221 25.4468 7.7343 25.5297 7.74648L27.3542 8.01171L26.0343 9.29744Z"
            fill="#63AB45"></path>
        <path
            d="M15.0004 30.0215C15.2865 30.0215 15.5185 29.7896 15.5185 29.5035C15.5185 29.2174 15.2865 28.9855 15.0004 28.9855C14.7143 28.9855 14.4824 29.2174 14.4824 29.5035C14.4824 29.7896 14.7143 30.0215 15.0004 30.0215Z"
            fill="#63AB45"></path>
    </g>
</svg>