<svg width="145" height="32" viewBox="0 0 145 32" fill="none" xmlns="http://www.w3.org/2000/svg">
    <path
        d="M143.23 15.2809C143.786 15.2809 144.273 15.2809 144.968 15.2809C143.786 14.7416 142.674 15.191 141.631 15.1011C141.075 14.8315 140.588 14.4719 139.754 14.6517C139.268 14.5618 138.781 14.5618 138.294 14.6517C138.155 14.4719 138.016 14.382 137.877 14.2022C137.808 14.1124 137.599 14.0225 137.53 13.9326C137.182 13.7528 136.835 13.6629 136.487 13.4831C136.696 13.3933 136.835 13.3034 137.043 13.2135C137.46 13.2135 137.877 13.1236 138.225 12.8539C138.573 12.6742 138.99 12.4944 138.92 12.2247V12.1348V12.0449C139.476 12.0449 140.102 12.0449 140.241 11.5955C140.171 11.4157 140.102 11.3258 140.032 11.1461C140.449 11.1461 140.866 11.3258 141.145 10.9663C141.423 10.6067 141.77 10.3371 142.118 10.0674C142.465 9.88764 142.813 9.79775 143.23 9.61798C143.23 9.16854 143.508 8.80899 144.064 8.53933C144.342 8.53933 144.759 8.62921 144.968 8.44944C145.107 8.08989 144.759 8.08989 144.62 8.08989C144.203 8 143.717 8 143.299 7.91011C143.299 7.73034 143.299 7.55056 143.299 7.46067C143.369 7.37079 143.508 7.2809 143.578 7.10112C143.578 7.01124 143.578 7.01124 143.578 6.92135C143.856 6.83146 144.134 7.10112 144.481 7.01124C144.342 6.83146 144.134 6.74157 143.856 6.65169C143.717 6.47191 143.438 6.29213 143.091 6.20225C143.23 5.8427 142.326 5.75281 142.535 5.39326C142.952 5.48315 143.021 5.75281 143.578 5.75281C143.438 5.48315 143.16 5.39326 142.813 5.21348C142.604 5.03371 142.535 4.85393 142.118 4.85393C142.187 4.94382 142.257 5.1236 142.257 5.21348C141.909 5.21348 141.562 5.21348 141.214 5.21348C140.936 5.1236 140.658 5.03371 140.38 4.85393C140.38 4.76405 140.31 4.76404 140.241 4.67416C140.449 4.58427 140.727 4.58427 140.936 4.49438C141.562 4.40449 140.936 4.13483 141.145 4.04494C141.631 4.04494 141.909 3.77528 142.257 3.59551C142.743 3.50562 143.369 3.68539 143.925 3.32584C143.23 3.32584 142.674 3.41573 142.187 3.41573C142.118 3.32584 142.118 3.23595 142.048 3.14607C142.326 2.96629 142.882 2.96629 142.952 2.69663C142.882 2.69663 142.813 2.69663 142.743 2.69663C142.048 2.42697 141.284 2.60674 140.519 2.60674C139.685 2.60674 138.92 2.60674 138.086 2.60674C137.53 2.51685 136.974 2.51685 136.487 2.42697C136.418 2.42697 136.348 2.42697 136.279 2.42697C136.001 2.24719 134.958 2.42697 135.444 1.79775C134.263 1.16854 132.803 1.07865 131.343 0.988764C130.996 0.988764 130.648 0.988764 130.37 0.988764C129.049 0.898876 127.867 0.449438 126.547 0.719101C125.921 0.719101 125.365 0.359551 124.67 0.539326C124.253 0.539326 123.836 0.449438 123.558 0.629213C123.488 0.629213 123.419 0.629213 123.28 0.629213C122.793 0.359551 122.237 0.449438 121.681 0.449438C121.542 0.449438 121.333 0.449438 121.194 0.449438C120.082 0.179775 118.831 0.359551 117.649 0.179775C117.093 0.0898876 116.606 0.0898876 116.05 0.179775C115.425 0.179775 114.799 0.179775 114.173 0.179775C114.104 0.179775 114.034 0.179775 113.895 0.179775C113.27 0.179775 112.714 0.269663 112.088 0.269663C110.281 0.269663 108.473 0.179775 106.666 0.179775C106.596 0.179775 106.457 0.179775 106.388 0.179775C105.832 0.179775 105.276 0.179775 104.719 0.179775C104.65 0.269663 104.719 0.269663 104.789 0.359551H104.719C104.719 0.269663 104.719 0.269663 104.719 0.179775C104.58 0.179775 104.511 0.179775 104.372 0.179775C103.955 0 103.538 0 103.121 0C100.896 0 98.6023 0 96.3779 0C96.2388 0.0898876 96.2388 0.0898876 96.3779 0.179775C98.6023 0.179775 100.896 0.179775 103.121 0.179775C99.9926 0.0898876 96.795 0.0898876 93.6668 0.179775C93.5973 0.269663 93.6668 0.269663 93.7364 0.269663H93.6668C93.6668 0.359551 93.6668 0.359551 93.6668 0.449438C93.7364 0.359551 93.7364 0.359551 93.6668 0.269663V0.179775C93.3888 0.179775 93.1107 0.179775 92.8327 0.179775C91.651 0.179775 90.3997 0.0898876 89.218 0.269663C89.1485 0.269663 89.1485 0.269663 89.1485 0.269663C89.079 0.269663 89.0094 0.269663 88.9399 0.269663C88.3838 0.179775 87.8972 0.179775 87.3411 0.269663C84.4911 0.269663 81.641 0.179775 78.791 0.449438C77.9568 0.449438 77.0531 0.449438 76.219 0.449438C76.0104 0.449438 75.8714 0.449438 75.6629 0.449438C75.9409 0.359551 76.219 0.269663 76.497 0.269663C76.0799 0.179775 75.6629 0.0898876 75.3848 0.359551C74.8287 0.359551 74.3421 0.359551 73.786 0.359551C73.4384 0.359551 73.1604 0.359551 72.9518 0.539326C71.7006 0.539326 70.4493 0.359551 69.2676 0.629213C69.1981 0.629213 69.1981 0.629213 69.1286 0.629213C66.4871 0.629213 63.7761 0.629213 61.1345 0.719101C60.926 0.719101 60.787 0.719101 60.5784 0.719101C58.1455 0.719101 55.7125 0.719101 53.2795 0.719101C51.6807 0.719101 50.1514 0.808989 48.6916 0.808989C48.4831 0.808989 48.3441 0.808989 48.1355 0.808989C47.3014 0.808989 46.5367 0.808989 45.7026 0.808989C44.7294 0.808989 43.6867 0.808989 42.7135 0.808989C42.2964 0.808989 41.8098 0.808989 41.3927 0.808989C40.8366 0.808989 40.2805 0.808989 39.7939 0.808989C39.5854 0.808989 39.4463 0.808989 39.2378 0.808989C38.4732 0.808989 37.7085 0.808989 36.8743 0.808989C35.9707 0.629214 35.067 0.629213 34.0938 0.629213C33.3987 0.629213 32.7035 0.629213 32.0084 0.539326C31.3828 0.449438 30.6877 0.449438 30.062 0.539326C29.784 0.539326 29.5754 0.539326 29.2974 0.539326C28.0461 0.269663 26.7949 0.359551 25.4741 0.269663C24.779 0 23.9448 0.179775 23.1107 0.0898876C22.6936 0 22.346 -0.0898876 22.2765 0.269663C21.7899 0.629213 21.8594 1.16854 21.3033 1.52809C20.6777 1.88764 20.6777 2.33708 21.0948 2.69663C21.0948 2.78652 21.1643 2.78652 21.2338 2.78652C21.4424 3.14607 21.7204 3.32584 21.9985 3.59551C21.0948 3.59551 20.5387 3.95506 19.9826 4.22472C19.774 4.31461 19.5655 4.40449 19.496 4.58427C19.2874 4.58427 19.0789 4.67416 19.0094 4.76404C18.5923 4.85393 17.8972 4.58427 17.6886 5.03371H17.6191C17.202 5.03371 16.785 5.03371 16.3679 5.03371C15.9508 4.85393 15.6032 4.85393 14.9776 4.85393C15.4642 5.1236 15.8813 5.21348 16.3679 5.21348C16.5069 5.30337 16.6459 5.30337 16.785 5.39326C16.7154 5.8427 16.6459 6.20225 16.5764 6.65169C16.6459 6.65169 16.7154 6.74157 16.785 6.74157H16.7154C16.5764 6.74157 16.5069 6.74157 16.3679 6.74157C16.0898 6.74157 15.8118 6.74157 15.6032 6.74157C15.2557 6.83146 14.9081 6.83146 14.491 6.92135C13.3788 7.10112 12.1276 7.19101 11.2239 7.73034C10.4592 7.82022 9.97264 8.26966 9.20799 8.44944C9.7641 8.62921 10.0422 8.35955 10.4592 8.35955C10.5287 8.44944 10.6678 8.44944 10.7373 8.53933C10.5287 8.7191 10.3202 8.80899 10.1812 8.98876C9.34702 9.07865 8.99945 9.4382 8.51285 9.79775C8.2348 9.88764 7.95675 10.0674 8.02626 10.2472C8.2348 10.8764 6.91405 11.0562 6.84453 11.6854C7.1921 11.5056 7.47015 11.4157 7.74821 11.3258C7.74821 11.4157 7.74821 11.4157 7.74821 11.5056C7.53967 11.6854 7.40064 11.8652 7.1921 11.9551C7.47015 12.2247 7.33113 12.4944 6.91405 12.764C6.63599 12.8539 6.35794 13.0337 6.1494 13.1236C5.94086 13.1236 5.73232 13.1236 5.59329 13.3034C4.41156 13.6629 4.41156 13.7528 5.73232 14.2022C5.73232 14.2921 5.80183 14.382 5.80183 14.4719C4.75913 14.4719 3.85545 14.7416 2.95178 15.0112C2.46518 15.191 2.67372 15.2809 3.0908 15.2809C2.88226 15.7303 2.18713 15.7303 1.70054 15.9101C1.42248 16.0899 1.14443 16.1798 0.79686 16.3596C1.28345 16.3596 1.70054 16.3596 2.11762 16.4494C2.32616 16.6292 2.25664 16.7191 1.83956 16.7191C1.28345 16.7191 0.79686 16.7191 0.101726 16.7191C1.28345 17.2584 2.39567 16.809 3.43837 16.8989C3.99448 17.1685 4.48107 17.5281 5.31524 17.3483C5.80183 17.4382 6.28842 17.4382 6.77502 17.3483C6.77502 17.5281 6.98356 17.7079 7.05307 17.8876C7.12259 17.9775 7.33113 18.0674 7.47015 18.1573C7.81772 18.3371 8.16529 18.427 8.51285 18.6067C8.30431 18.6966 8.16529 18.7865 7.95675 18.9663C7.53967 18.9663 7.12259 19.0562 6.77502 19.3258C6.42745 19.5056 6.01037 19.6854 6.07988 19.9551V20.0449V20.1348C5.52378 20.1348 4.89815 20.1348 4.75913 20.5843C4.82864 20.6742 4.89815 20.8539 4.96767 20.9438C4.55059 20.9438 4.13351 20.764 3.85545 21.1236C3.5774 21.4831 3.22983 21.7528 2.88226 22.0225C2.5347 22.2921 2.11762 22.382 1.77005 22.5618C1.77005 23.0112 1.49199 23.3708 0.935887 23.6404C0.657833 23.6404 0.240753 23.5506 0.0322122 23.7303C-0.106815 23.9101 0.240753 23.9101 0.37978 23.9101C0.79686 24 1.28345 24 1.70054 24.0899C1.70054 24.2697 1.70054 24.4494 1.70054 24.5393C1.70054 24.7191 1.63102 24.809 1.49199 24.8989C1.49199 24.9888 1.49199 24.9888 1.49199 25.0787C1.21394 25.1685 0.935887 24.8989 0.58832 25.0787C0.727347 25.2584 1.0054 25.3483 1.21394 25.4382C1.42248 25.618 1.70054 25.7978 2.0481 25.8876C1.90908 26.2472 2.81275 26.3371 2.60421 26.6966C2.18713 26.6067 2.11762 26.3371 1.56151 26.3371C1.70054 26.6067 1.97859 26.6966 2.32616 26.8764C2.5347 26.9663 2.60421 27.1461 3.02129 27.1461C2.95178 27.0562 2.95178 26.9663 2.88226 26.7865C3.22983 26.7865 3.5774 26.7865 3.92497 26.7865C4.20302 26.9663 4.48107 27.0562 4.75913 27.1461C4.75913 27.236 4.82864 27.236 4.89815 27.3258C4.68961 27.4157 4.41156 27.4157 4.20302 27.5056C3.5774 27.5955 4.20302 27.8652 3.99448 27.9551C3.50789 27.9551 3.22983 28.2247 2.88226 28.4045C2.32616 28.4944 1.77005 28.3146 1.14443 28.5843C1.83956 28.5843 2.39567 28.4944 2.88226 28.4944C2.95178 28.6742 2.95178 28.764 3.02129 28.8539C3.16032 28.9438 3.22983 28.9438 3.36886 29.0337C3.36886 28.8539 3.29935 28.764 3.02129 28.8539C2.81275 29.0337 2.18713 29.0337 2.11762 29.3034C2.18713 29.3034 2.25664 29.3034 2.32616 29.3034C3.02129 29.573 3.78594 29.3933 4.55059 29.3933C5.38475 29.3933 6.1494 29.3933 6.98356 29.3933C7.47015 29.573 8.02626 29.573 8.58237 29.6629C8.65188 29.6629 8.72139 29.6629 8.79091 29.6629C9.06896 29.9326 10.1117 29.7528 9.62507 30.2921C10.8068 30.9213 12.2666 31.0112 13.7264 31.1011C14.0739 31.1011 14.4215 31.1011 14.6996 31.1011C16.0203 31.191 17.202 31.6404 18.5228 31.3708C19.1484 31.3708 19.7045 31.7303 20.3997 31.5506C20.8167 31.5506 21.2338 31.6404 21.5119 31.4607C21.5814 31.4607 21.6509 31.4607 21.7899 31.4607C22.2765 31.7303 22.8326 31.7303 23.3887 31.6404C23.5278 31.6404 23.7363 31.6404 23.8753 31.6404C24.9875 31.9101 26.2388 31.7303 27.4205 31.9101C27.9766 32 28.4632 32 29.0193 31.9101C29.6449 31.9101 30.2706 31.9101 30.8962 31.9101C30.9657 31.9101 31.1047 31.9101 31.1742 31.9101C31.7999 31.9101 32.356 31.8202 32.9816 31.8202C34.7889 31.8202 36.5963 31.9101 38.4036 31.9101C38.4732 31.9101 38.6122 31.9101 38.6817 31.9101C39.2378 31.9101 39.7939 31.9101 40.35 31.9101C40.4195 31.8202 40.35 31.8202 40.2805 31.7303H40.35C40.35 31.8202 40.35 31.8202 40.35 31.9101C40.489 31.9101 40.5586 31.9101 40.6976 31.9101C41.0452 32 41.4622 32 41.9488 32C44.1733 32 46.4672 32 48.6916 32C48.8307 31.9101 48.8307 31.9101 48.6916 31.8202C46.4672 31.8202 44.1733 31.8202 41.9488 31.8202C45.0769 31.9101 48.2746 31.9101 51.4027 31.8202C51.4722 31.7303 51.4027 31.7303 51.3331 31.7303H51.4027C51.4027 31.6404 51.4027 31.6404 51.4027 31.5506C51.3331 31.6404 51.3331 31.6404 51.4027 31.7303V31.8202C51.6807 31.8202 51.9588 31.8202 52.2368 31.8202C53.4186 31.8202 54.6698 31.9101 55.8515 31.7303H55.921C55.9906 31.7303 56.0601 31.7303 56.1296 31.7303C56.6857 31.8202 57.1723 31.8202 57.7284 31.7303C60.5784 31.7303 63.4285 31.8202 66.2785 31.5506C67.1127 31.5506 68.0164 31.5506 68.8505 31.5506C69.0591 31.5506 69.1981 31.5506 69.4066 31.5506C69.1286 31.6404 68.8505 31.7303 68.5725 31.8202C68.9896 31.9101 69.4067 32 69.6847 31.7303C70.2408 31.7303 70.7274 31.7303 71.2835 31.7303C71.353 31.6404 71.353 31.6404 71.2835 31.5506C71.2835 31.6404 71.2835 31.6404 71.2835 31.7303C71.6311 31.7303 71.9091 31.7303 72.1177 31.5506C73.3689 31.4607 74.6897 31.7303 75.9409 31.4607C78.5824 31.4607 81.2934 31.4607 83.935 31.3708C84.1435 31.3708 84.2825 31.3708 84.4911 31.3708C86.924 31.3708 89.357 31.3708 91.79 31.3708C93.3193 31.2809 94.7791 31.2809 96.3084 31.191C96.5169 31.191 96.6559 31.191 96.8645 31.191C97.6986 31.191 98.4633 31.191 99.2974 31.191C100.271 31.191 101.313 31.191 102.287 31.191C102.704 31.191 103.19 31.191 103.607 31.191C104.163 31.191 104.65 31.191 105.206 31.191C105.415 31.191 105.554 31.191 105.762 31.191C106.527 31.191 107.291 31.191 108.126 31.191C108.126 31.191 108.126 31.191 108.195 31.191C109.099 31.3708 110.003 31.3708 110.906 31.2809C111.601 31.2809 112.296 31.2809 112.992 31.3708C113.617 31.5506 114.312 31.4607 114.938 31.4607C115.216 31.4607 115.425 31.4607 115.703 31.4607C116.954 31.7303 118.205 31.5506 119.456 31.6404C120.221 31.9101 121.055 31.7303 121.82 31.8202C122.237 32 122.584 32.0899 122.723 31.6404C123.21 31.2809 123.141 30.7416 123.697 30.382C124.253 30.0225 124.253 29.6629 123.905 29.2135C123.905 29.1236 123.836 29.1236 123.766 29.1236C123.488 28.8539 123.21 28.5843 123.002 28.3146C123.905 28.4045 124.392 28.0449 124.948 27.6854C125.226 27.5955 125.365 27.5056 125.435 27.3258C125.643 27.3258 125.852 27.236 125.921 27.1461C126.338 27.0562 127.033 27.3258 127.242 26.8764H127.311C127.728 26.8764 128.146 26.8764 128.563 26.8764C128.98 27.0562 129.327 27.0562 129.953 27.0562C129.466 26.7865 129.049 26.6966 128.563 26.6966C128.424 26.6067 128.215 26.6067 128.076 26.5169C128.146 26.0674 128.215 25.7079 128.285 25.2584C128.215 25.1685 128.146 25.1685 128.076 25.1685H128.146C128.285 25.1685 128.354 25.1685 128.493 25.1685C128.771 25.1685 129.049 25.1685 129.258 25.1685C129.605 25.0787 129.953 25.0787 130.37 24.9888C131.482 24.809 132.733 24.7191 133.637 24.1798C134.402 24.0899 134.888 23.6404 135.653 23.4607C135.097 23.2809 134.819 23.5506 134.402 23.5506C134.332 23.4607 134.193 23.4607 134.124 23.3708C134.332 23.191 134.541 23.1011 134.68 22.9213C135.444 22.8315 135.862 22.4719 136.348 22.1124C136.626 22.0225 136.835 21.8427 136.835 21.6629C136.696 21.0337 137.947 20.8539 138.016 20.2247C137.669 20.4045 137.391 20.4944 137.113 20.5843C137.113 20.4944 137.113 20.4944 137.113 20.4045C137.321 20.2247 137.46 20.1348 137.669 19.9551C137.391 19.6854 137.53 19.4157 137.947 19.1461C138.225 19.0562 138.503 18.8764 138.712 18.7865C138.92 18.7865 139.129 18.7865 139.268 18.6067C140.449 18.1573 140.449 18.1573 139.059 17.618C139.059 17.5281 138.99 17.4382 138.99 17.3483C140.032 17.3483 140.936 17.0787 141.84 16.809C142.326 16.6292 142.118 16.5393 141.701 16.5393C141.909 16.0899 142.604 16.0899 143.091 15.9101C143.369 15.7303 143.717 15.6404 144.064 15.4607C143.578 15.4607 143.16 15.4607 142.743 15.3708C142.743 15.3708 142.813 15.2809 143.23 15.2809ZM3.43837 29.2135C3.36886 29.2135 3.36886 29.2135 3.29935 29.2135C3.29935 29.2135 3.36886 29.2135 3.43837 29.2135ZM53.5576 1.07865H53.4881C53.5576 1.07865 53.5576 1.07865 53.5576 1.07865ZM22.6241 5.1236C22.6241 5.21348 22.6936 5.21348 22.6241 5.1236V5.1236ZM53.9747 17.7079C53.9051 17.7079 53.9051 17.7079 53.9747 17.7079V17.7079ZM114.868 27.8652C114.938 27.8652 115.007 27.8652 115.077 27.9551C115.007 27.9551 114.938 27.9551 114.868 27.8652ZM41.1147 2.8764C41.1842 2.8764 41.2537 2.8764 41.3232 2.8764H41.2537C41.1842 2.8764 41.1147 2.8764 41.1147 2.8764ZM42.5745 2.69663C42.5049 2.60674 42.7135 2.69663 42.5745 2.69663V2.69663ZM31.5218 2.78652C31.4523 2.78652 31.3828 2.78652 31.3828 2.78652C31.4523 2.78652 31.5218 2.78652 31.5218 2.78652ZM9.90312 14.8315C9.83361 14.8315 9.83361 14.8315 9.7641 14.8315C9.7641 14.8315 9.7641 14.8315 9.83361 14.8315C9.83361 14.8315 9.83361 14.8315 9.90312 14.8315ZM103.885 29.2135C103.816 29.2135 103.746 29.2135 103.677 29.2135H103.746C103.816 29.2135 103.885 29.1236 103.885 29.2135ZM102.426 29.3034C102.287 29.3034 102.495 29.4831 102.426 29.3034V29.3034ZM113.478 29.2135C113.548 29.2135 113.548 29.2135 113.617 29.2135C113.548 29.2135 113.548 29.3034 113.478 29.2135ZM135.166 17.1685C135.236 17.1685 135.236 17.1685 135.305 17.1685C135.305 17.1685 135.305 17.1685 135.236 17.1685C135.166 17.1685 135.166 17.1685 135.166 17.1685ZM136.835 7.91011C136.765 7.91011 136.765 7.91011 136.835 7.91011V7.91011ZM8.30431 14.5618C8.30431 14.4719 8.30431 14.4719 8.30431 14.5618V14.5618ZM8.16529 24.0899C8.2348 24.0899 8.2348 24.1798 8.16529 24.0899C8.2348 24.1798 8.2348 24.1798 8.16529 24.0899C8.2348 24.1798 8.16529 24.1798 8.16529 24.0899ZM133.498 19.0562C133.568 19.0562 133.568 19.0562 133.498 19.0562C133.568 19.1461 133.568 19.1461 133.498 19.0562C133.568 19.1461 133.498 19.1461 133.498 19.0562ZM35.206 2.06742C35.2755 1.97753 35.2755 1.97753 35.3451 1.97753C35.2755 2.06742 35.206 2.06742 35.206 2.06742ZM109.863 29.9326C109.794 30.0225 109.794 30.0225 109.724 30.0225C109.724 29.9326 109.794 29.9326 109.863 29.9326ZM133.637 12.4944H133.568C133.568 12.4045 133.568 12.4045 133.637 12.4944ZM120.847 1.52809C120.708 1.4382 120.569 1.52809 120.499 1.52809C120.569 1.52809 120.708 1.52809 120.847 1.52809ZM28.7413 1.97753C28.6718 2.06742 28.7413 2.06742 28.7413 1.97753C28.6718 1.97753 28.6718 2.06742 28.7413 1.97753ZM11.3629 19.5955H11.4324C11.5019 19.5955 11.4324 19.5955 11.3629 19.5955C11.4324 19.5955 11.4324 19.5955 11.3629 19.5955ZM24.1534 30.4719C24.2924 30.5618 24.4314 30.4719 24.501 30.4719C24.4314 30.4719 24.3619 30.4719 24.1534 30.4719ZM29.923 31.0112C29.8535 30.9213 29.784 30.9213 29.6449 30.9213C29.784 30.9213 29.8535 31.0112 29.923 31.0112ZM133.985 13.9326H134.054C134.054 13.9326 134.054 13.9326 133.985 13.9326ZM102.287 0.988764C102.287 0.898876 102.287 0.898876 102.287 0.988764C102.356 0.988764 102.426 0.988764 102.426 0.988764C102.356 0.988764 102.287 0.988764 102.287 0.988764ZM21.6509 6.29213C21.5814 6.29213 21.4424 6.29213 21.3728 6.29213C21.5119 6.29213 21.5814 6.29213 21.6509 6.29213ZM42.783 31.1011C42.7135 31.1011 42.7135 31.1011 42.783 31.1011V31.1011ZM80.3203 0.808989C80.3898 0.808989 80.3898 0.808989 80.3203 0.808989V0.808989ZM9.06896 13.2135C9.06896 13.3034 9.06896 13.3034 9.06896 13.2135V13.2135ZM92.7632 30.6517C92.7632 30.5618 92.7632 30.5618 92.7632 30.6517H92.8327C92.8327 30.6517 92.8327 30.5618 92.7632 30.6517ZM110.837 31.191C110.906 31.191 110.906 31.191 110.837 31.191C110.837 31.2809 110.906 31.2809 110.837 31.191ZM141.562 15.191V15.2809C141.562 15.2809 141.562 15.2809 141.562 15.191V15.2809C141.492 15.191 141.492 15.191 141.562 15.191C141.492 15.191 141.492 15.191 141.562 15.191ZM139.963 2.8764C139.893 2.78652 139.893 2.78652 139.963 2.8764V2.8764ZM69.6847 0.988764C69.6847 0.898876 69.6847 0.898876 69.6847 0.808989C69.6152 0.808989 69.6152 0.898876 69.6847 0.988764ZM65.0273 0.808989C65.0968 0.808989 65.0968 0.808989 65.0273 0.808989V0.808989ZM51.8197 0.988764H51.7502H51.6807C51.6807 0.988764 51.7502 0.988764 51.8197 0.988764ZM50.9856 0.988764C51.0551 0.898876 51.0551 0.898876 51.1246 0.898876C51.0551 0.988764 50.9856 0.988764 50.9856 0.988764ZM28.4632 0.539326C28.3937 0.539326 28.3937 0.539326 28.3937 0.539326C28.4632 0.539326 28.4632 0.539326 28.4632 0.539326ZM3.50789 16.8989V16.809C3.50789 16.809 3.50789 16.809 3.50789 16.8989V16.809C3.50789 16.809 3.5774 16.809 3.50789 16.8989ZM5.03718 29.2135C5.1067 29.2135 5.1067 29.2135 5.03718 29.2135V29.2135ZM75.3848 31.2809C75.4543 31.191 75.3848 31.191 75.3848 31.1011C75.3848 31.1011 75.3848 31.191 75.3848 31.2809ZM79.9727 31.191C79.9727 31.2809 79.9727 31.2809 79.9727 31.191V31.191ZM93.3888 31.1011C93.3193 31.1011 93.3193 31.1011 93.2498 31.1011H93.3193H93.3888C93.5973 31.1011 93.7364 31.1011 93.9449 31.1011C93.9449 31.1011 94.0144 31.1011 94.0839 31.0112C94.0839 31.0112 94.0144 31.0112 94.0144 31.1011H93.9449C93.7364 31.0112 93.5973 31.0112 93.3888 31.1011ZM116.537 31.4607C116.606 31.4607 116.606 31.4607 116.606 31.4607H116.537Z"
        fill="#FBB03B" />
</svg>