<svg width="26" height="26" viewBox="0 0 26 26" fill="none" xmlns="http://www.w3.org/2000/svg">
<g clip-path="url(#clip0_1263_5342)">
<path fill-rule="evenodd" clip-rule="evenodd" d="M8.62305 24.3704H12.7484V19.413H8.62305V24.3704ZM9.86416 20.2592H11.5143C11.6765 20.2592 11.8034 20.3932 11.8034 20.5483C11.8034 20.7105 11.6694 20.8374 11.5143 20.8374H9.86416C9.70197 20.8374 9.57504 20.7034 9.57504 20.5483C9.56799 20.3932 9.70197 20.2592 9.86416 20.2592ZM9.86416 21.599H11.5143C11.6765 21.599 11.8034 21.733 11.8034 21.8881C11.8034 22.0503 11.6694 22.1773 11.5143 22.1773H9.86416C9.70197 22.1773 9.57504 22.0433 9.57504 21.8881C9.56799 21.733 9.70197 21.599 9.86416 21.599ZM9.86416 22.9389H11.5143C11.6765 22.9389 11.8034 23.0729 11.8034 23.228C11.8034 23.3902 11.6694 23.5171 11.5143 23.5171H9.86416C9.70197 23.5171 9.57504 23.3831 9.57504 23.228C9.56799 23.0658 9.70197 22.9389 9.86416 22.9389Z" fill="#63AB45"/>
<path fill-rule="evenodd" clip-rule="evenodd" d="M20.0694 16.9307C19.8226 16.5569 19.1033 15.612 17.8199 14.9562C17.2558 14.6741 16.7128 14.4978 16.205 14.4061L13.3279 19.2014V24.6595C13.3279 24.8216 13.1939 24.9486 13.0388 24.9486H8.33523C8.17304 24.9486 8.04611 24.8146 8.04611 24.6595V19.2014L5.19718 14.4484C4.75291 14.5472 4.27339 14.7094 3.78682 14.9562C2.49634 15.612 1.78411 16.5569 1.53729 16.9307C1.24112 17.382 1.02251 17.8545 0.832113 18.468C0.112829 20.7598 0.0070518 24.3139 0 26.0063H3.70925V21.0771C3.70925 20.9149 3.84323 20.788 3.99837 20.788C4.16056 20.788 4.2875 20.922 4.2875 21.0771V26.0063H17.6648V21.0771C17.6648 20.9149 17.7988 20.788 17.9539 20.788C18.1161 20.788 18.243 20.922 18.243 21.0771V26.0063H21.5856C21.5785 24.3139 21.4798 20.7598 20.7676 18.468C20.5913 17.8545 20.3727 17.382 20.0694 16.9307Z" fill="#63AB45"/>
<path fill-rule="evenodd" clip-rule="evenodd" d="M12.8765 18.8277L15.5843 14.3146C15.3234 14.2934 15.0837 14.2864 14.8792 14.2934L10.9019 17.8405C10.7891 17.9392 10.6199 17.9392 10.507 17.8334L6.73433 14.2934C6.46636 14.2864 6.15609 14.3005 5.81055 14.3428L8.50434 18.8348H12.8765V18.8277Z" fill="#63AB45"/>
<path fill-rule="evenodd" clip-rule="evenodd" d="M12.3742 13.1228C12.1415 13.2286 11.8665 13.3343 11.5421 13.4119C11.3306 13.4613 10.9921 13.5177 10.569 13.5177C10.2728 13.5177 9.94137 13.4895 9.58173 13.4119C9.41248 13.3767 9.09515 13.292 8.7073 13.1157C8.7214 13.2074 8.72846 13.3132 8.72141 13.4401C8.7073 14.0959 8.47459 14.6812 8.31945 14.9915L10.6959 17.2269L12.9102 15.2524C12.6563 14.8011 12.3742 14.1453 12.3601 13.4049C12.3601 13.2991 12.3672 13.2074 12.3742 13.1228ZM15.068 5.59147C14.9129 5.28824 14.6308 4.7241 14.0455 3.98366C13.7987 3.67338 13.7 3.5676 13.6295 3.49708C13.566 3.43362 13.3897 3.27143 13.1429 3.09513L13.1288 3.08808C13.1217 3.08103 13.1147 3.08103 13.1076 3.07397C12.9525 3.28553 12.7691 3.45477 12.5505 3.58876C12.0358 3.91314 11.5139 3.89904 11.0979 3.88493H11.0697C11.0556 3.88493 9.70866 3.85673 8.27009 3.95545C7.22642 4.02597 6.90909 4.15995 6.67638 4.28688C6.46483 4.40677 6.06287 4.62537 5.87248 5.04848C5.78785 5.23183 5.7667 5.40812 5.74554 5.54211C5.73849 5.60557 5.73144 5.66199 5.71734 5.71135C5.68208 5.83123 5.62566 5.8947 5.5622 5.92996C4.92048 6.5082 4.94869 7.16402 5.02626 7.50251C5.16024 8.10896 5.62566 8.6308 6.1757 8.79299C6.28853 8.82825 6.3661 8.91992 6.38021 9.03275C6.41547 9.29366 6.50009 9.71677 6.61997 10.0553C6.99371 11.106 7.68479 11.7477 7.96686 11.9804C8.6932 12.5728 9.41953 12.7773 9.69455 12.8407C10.4914 13.017 11.1472 12.8971 11.394 12.8407C12.064 12.6856 12.5153 12.3753 12.7057 12.2413C12.8467 12.1426 13.2064 11.8746 13.573 11.4445C14.109 10.8098 14.4898 9.98474 14.7013 8.98339C14.7295 8.86351 14.8212 8.77888 14.9411 8.75773C15.4629 8.67311 15.9707 7.91151 16.0271 7.13581C16.0482 6.79733 15.9989 6.19792 15.3924 5.98637C15.3289 5.97227 15.2725 5.94406 15.2302 5.8947C15.1879 5.83123 15.1456 5.74661 15.068 5.59147Z" fill="#63AB45"/>
<path fill-rule="evenodd" clip-rule="evenodd" d="M5.402 4.71712C5.68407 4.18118 6.1636 3.91322 6.40336 3.78628C6.763 3.58883 7.18611 3.45485 8.23683 3.38433C9.7036 3.28561 11.0787 3.31381 11.0928 3.31381H11.121C11.4948 3.32086 11.8826 3.33497 12.2493 3.10226C12.4397 2.98238 12.6019 2.81313 12.7359 2.60158C12.7852 2.51696 12.8628 2.46054 12.9615 2.43939C12.9897 2.43234 13.0179 2.43234 13.0391 2.43234C13.1872 2.43234 13.3282 2.51696 13.4693 2.61568L13.4834 2.62274C13.7584 2.81313 13.9558 2.99648 14.0475 3.0811C14.1462 3.17983 14.2661 3.30676 14.5129 3.62409C14.9925 4.23055 15.2816 4.73123 15.4649 5.06971C15.5778 4.78059 15.6906 4.43505 15.7117 4.29401C15.7611 3.93437 15.7823 3.77218 15.7399 3.58883C15.6694 3.27855 15.5002 3.067 15.3803 2.92596C15.2322 2.74967 15.0982 2.64389 14.8303 2.44644C14.6328 2.29835 14.52 2.22784 14.4283 2.17847C14.3155 2.11501 14.2168 2.05154 14.0828 1.9105C13.8571 1.67779 13.7372 1.45214 13.568 1.12775C13.4975 0.99377 13.4552 0.895044 13.4199 0.817474C13.3705 0.697594 13.3494 0.655283 13.2859 0.584765C13.2154 0.507195 13.1026 0.401418 12.8346 0.295641C12.348 0.0981906 11.8615 0.0770352 11.4031 0.0911388C10.7614 0.105242 10.296 0.126398 9.60488 0.267434C8.73751 0.443729 7.55985 0.690542 6.5726 1.64254C6.00141 2.19963 5.73344 2.76377 5.66292 2.92596C5.52893 3.24329 5.31738 3.89911 5.40905 4.68891C5.402 4.70302 5.402 4.71007 5.402 4.71712ZM20.0768 2.12206V0.40847C20.0768 0.246278 19.9428 0.119346 19.7877 0.119346C19.6255 0.119346 19.4986 0.25333 19.4986 0.40847V13.2357C19.4986 13.3979 19.6325 13.5248 19.7877 13.5248C19.9499 13.5248 20.0768 13.3908 20.0768 13.2357V6.68457H26.0003L20.0768 2.12206Z" fill="#63AB45"/>
</g>
<defs>
<clipPath id="clip0_1263_5342">
<rect width="26" height="26" fill="white"/>
</clipPath>
</defs>
</svg>
