<svg width="26" height="26" viewBox="0 0 26 26" fill="none" xmlns="http://www.w3.org/2000/svg">
<g clip-path="url(#clip0_1260_5298)">
<path d="M24.2273 4.13636H17.7273V0.590909C17.7273 0.43419 17.665 0.28389 17.5542 0.173073C17.4434 0.0622563 17.2931 0 17.1364 0H8.86364C8.70692 0 8.55662 0.0622563 8.4458 0.173073C8.33498 0.28389 8.27273 0.43419 8.27273 0.590909V4.13636H1.77273C1.30257 4.13636 0.851671 4.32313 0.51922 4.65558C0.186769 4.98803 0 5.43893 0 5.90909V10.0455H2.95455V8.86364C2.95455 8.70692 3.0168 8.55662 3.12762 8.4458C3.23844 8.33498 3.38874 8.27273 3.54545 8.27273H5.90909C6.06581 8.27273 6.21611 8.33498 6.32693 8.4458C6.43774 8.55662 6.5 8.70692 6.5 8.86364V10.0455H19.5V8.86364C19.5 8.70692 19.5623 8.55662 19.6731 8.4458C19.7839 8.33498 19.9342 8.27273 20.0909 8.27273H22.4545C22.6113 8.27273 22.7616 8.33498 22.8724 8.4458C22.9832 8.55662 23.0455 8.70692 23.0455 8.86364V10.0455H26V5.90909C26 5.43893 25.8132 4.98803 25.4808 4.65558C25.1483 4.32313 24.6974 4.13636 24.2273 4.13636ZM9.45455 1.18182H16.5455V4.13636H9.45455V1.18182ZM23.0455 12.4091C23.0455 12.5658 22.9832 12.7161 22.8724 12.8269C22.7616 12.9377 22.6113 13 22.4545 13H20.0909C19.9342 13 19.7839 12.9377 19.6731 12.8269C19.5623 12.7161 19.5 12.5658 19.5 12.4091V11.2273H6.5V12.4091C6.5 12.5658 6.43774 12.7161 6.32693 12.8269C6.21611 12.9377 6.06581 13 5.90909 13H3.54545C3.38874 13 3.23844 12.9377 3.12762 12.8269C3.0168 12.7161 2.95455 12.5658 2.95455 12.4091V11.2273H0V24.2273C0 24.6974 0.186769 25.1483 0.51922 25.4808C0.851671 25.8132 1.30257 26 1.77273 26H24.2273C24.6974 26 25.1483 25.8132 25.4808 25.4808C25.8132 25.1483 26 24.6974 26 24.2273V11.2273H23.0455V12.4091ZM18.3182 19.5C18.3182 19.6567 18.2559 19.807 18.1451 19.9178C18.0343 20.0287 17.884 20.0909 17.7273 20.0909H14.7727V23.0455C14.7727 23.2022 14.7105 23.3525 14.5997 23.4633C14.4888 23.5741 14.3385 23.6364 14.1818 23.6364H11.2273C11.0706 23.6364 10.9203 23.5741 10.8094 23.4633C10.6986 23.3525 10.6364 23.2022 10.6364 23.0455V20.0909H7.68182C7.5251 20.0909 7.3748 20.0287 7.26398 19.9178C7.15317 19.807 7.09091 19.6567 7.09091 19.5V16.5455C7.09091 16.3887 7.15317 16.2384 7.26398 16.1276C7.3748 16.0168 7.5251 15.9545 7.68182 15.9545H10.6364V13C10.6364 12.8433 10.6986 12.693 10.8094 12.5822C10.9203 12.4713 11.0706 12.4091 11.2273 12.4091H14.1818C14.3385 12.4091 14.4888 12.4713 14.5997 12.5822C14.7105 12.693 14.7727 12.8433 14.7727 13V15.9545H17.7273C17.884 15.9545 18.0343 16.0168 18.1451 16.1276C18.2559 16.2384 18.3182 16.3887 18.3182 16.5455V19.5Z" fill="#63AB45"/>
</g>
<defs>
<clipPath id="clip0_1260_5298">
<rect width="26" height="26" fill="white"/>
</clipPath>
</defs>
</svg>
