<svg width="26" height="26" viewBox="0 0 26 26" fill="none" xmlns="http://www.w3.org/2000/svg">
<path fill-rule="evenodd" clip-rule="evenodd" d="M13.0377 1.54035L13.6944 3.26983C13.7035 3.2949 13.7199 3.31667 13.7415 3.33235C13.7631 3.34804 13.7889 3.35694 13.8156 3.35791L15.6633 3.44799C15.789 3.45411 15.8404 3.61244 15.7423 3.69125L14.3004 4.8502C14.2794 4.86667 14.2638 4.88902 14.2556 4.9144C14.2473 4.93978 14.2468 4.96705 14.2541 4.99272L14.7394 6.77783C14.7724 6.89922 14.6378 6.9971 14.5325 6.92815L12.9847 5.91496C12.9626 5.90008 12.9365 5.89213 12.9098 5.89213C12.8831 5.89213 12.857 5.90008 12.8349 5.91496L11.2871 6.9282C11.1818 6.9971 11.0472 6.89927 11.0802 6.77789L11.5655 4.99272C11.5728 4.96705 11.5723 4.93978 11.5641 4.91439C11.5558 4.88901 11.5402 4.86666 11.5192 4.8502L10.0773 3.69125C9.97917 3.61244 10.0306 3.45411 10.1563 3.44799L12.004 3.35791C12.0307 3.35695 12.0565 3.34805 12.0781 3.33236C12.0997 3.31667 12.1161 3.2949 12.1253 3.26983L12.7819 1.54035C12.8263 1.4234 12.9933 1.4234 13.0377 1.54035ZM21.612 15.7713C24.0354 15.7713 26 17.7359 26 20.1593C26 22.5828 24.0354 24.5473 21.612 24.5473C19.1886 24.5473 17.2241 22.5828 17.2241 20.1593C17.2241 17.7359 19.1886 15.7713 21.612 15.7713ZM21.0357 20.5464L20.0552 19.5659C19.8011 19.3118 19.3889 19.3118 19.1347 19.5659C18.8807 19.82 18.8807 20.2322 19.1347 20.4863L20.5768 21.9284C20.8309 22.1825 21.2431 22.1825 21.4972 21.9284C22.3664 21.0592 23.2258 20.1801 24.091 19.3069C24.3433 19.0523 24.3425 18.6414 24.0882 18.3885C23.8338 18.1356 23.4218 18.1363 23.1692 18.3914L21.0357 20.5464ZM12.9099 8.50732C14.7096 8.50732 16.1686 9.9663 16.1686 11.766C16.1686 13.5658 14.7096 15.0248 12.9099 15.0248C11.1101 15.0248 9.65113 13.5658 9.65113 11.766C9.65113 9.9663 11.1101 8.50732 12.9099 8.50732ZM7.13596 21.3182L16.4859 21.3181C16.4004 20.9378 16.3573 20.5491 16.3574 20.1593C16.3574 19.0792 16.6835 18.0753 17.2423 17.2404C16.0978 16.2005 14.578 15.5664 12.9099 15.5664C9.8126 15.5664 7.22582 17.7512 6.6061 20.6637C6.58894 20.7427 6.58973 20.8245 6.60841 20.9032C6.6271 20.9818 6.6632 21.0552 6.71406 21.118C6.76492 21.1809 6.82923 21.2315 6.90225 21.2661C6.97527 21.3007 7.05514 21.3185 7.13596 21.3182ZM25.7887 9.04985L24.6192 10.4833C24.6021 10.5037 24.5915 10.5288 24.5887 10.5554C24.5859 10.5819 24.5911 10.6087 24.6036 10.6323L25.4494 12.2775C25.507 12.3894 25.3956 12.5131 25.2783 12.4676L23.5537 11.7983C23.5289 11.7884 23.5017 11.786 23.4756 11.7916C23.4495 11.7971 23.4257 11.8103 23.4071 11.8295L22.1038 13.1424C22.0152 13.2316 21.8631 13.164 21.8702 13.0383L21.9737 11.1913C21.9756 11.1647 21.9694 11.1381 21.9561 11.115C21.9427 11.0919 21.9228 11.0732 21.8988 11.0615L20.2474 10.2277C20.1352 10.171 20.1525 10.0055 20.2741 9.97334L22.0628 9.50106C22.0887 9.49456 22.112 9.48049 22.1299 9.46066C22.1477 9.44082 22.1593 9.41612 22.163 9.3897L22.4457 7.56152C22.465 7.43715 22.6278 7.40254 22.6959 7.50832L23.6978 9.0635C23.712 9.08612 23.7326 9.10399 23.757 9.11485C23.7813 9.1257 23.8084 9.12904 23.8347 9.12444L25.6608 8.82837C25.7843 8.80832 25.8678 8.95295 25.7887 9.04985ZM20.4193 3.58676C20.4394 3.46332 20.2947 3.37979 20.1978 3.45888L18.7644 4.62834C18.7439 4.64546 18.7188 4.6561 18.6922 4.65889C18.6657 4.66168 18.6389 4.65649 18.6153 4.64399L16.9701 3.79812C16.8582 3.7406 16.7345 3.85196 16.78 3.96929L17.4493 5.6939C17.4592 5.71867 17.4616 5.74583 17.4561 5.77193C17.4505 5.79804 17.4373 5.8219 17.4182 5.84048L16.1053 7.14384C16.0159 7.23245 16.0836 7.3845 16.2093 7.37746L18.0563 7.27389C18.0829 7.27207 18.1095 7.27823 18.1326 7.29157C18.1557 7.30491 18.1743 7.32484 18.1861 7.3488L19.0199 9.00018C19.0766 9.11253 19.2422 9.09508 19.2743 8.97348L19.7466 7.18484C19.7531 7.15896 19.7671 7.1356 19.787 7.11774C19.8068 7.09988 19.8315 7.08834 19.8579 7.08458L21.6861 6.80188C21.8105 6.78265 21.8451 6.61983 21.7393 6.55169L20.1842 5.54982C20.1616 5.53564 20.1437 5.51504 20.1329 5.49066C20.122 5.46629 20.1187 5.43923 20.1232 5.41294L20.4193 3.58676ZM0.158798 8.82831L1.98492 9.12439C2.01121 9.12897 2.03827 9.12563 2.06264 9.11478C2.08702 9.10392 2.10762 9.08605 2.1218 9.06345L3.12367 7.50832C3.19181 7.40254 3.35463 7.43715 3.37386 7.56152L3.65656 9.38975C3.66032 9.41617 3.67186 9.44088 3.68972 9.46071C3.70758 9.48055 3.73094 9.49461 3.75682 9.50112L5.54546 9.9734C5.66712 10.0055 5.68451 10.1711 5.57222 10.2278L3.92084 11.0616C3.89688 11.0734 3.87695 11.092 3.86361 11.1151C3.85027 11.1382 3.84411 11.1648 3.84593 11.1914L3.94949 13.0384C3.95653 13.164 3.80449 13.2317 3.71587 13.1425L2.41246 11.8294C2.39388 11.8103 2.37002 11.7971 2.34391 11.7915C2.31781 11.786 2.29065 11.7883 2.26588 11.7983L0.541269 12.4676C0.423998 12.5131 0.312577 12.3894 0.370156 12.2775L1.21602 10.6322C1.24148 10.5828 1.23552 10.5263 1.20037 10.4832L0.0309102 9.0498C-0.0481732 8.9529 0.0353519 8.80827 0.158798 8.82831ZM5.62184 3.45888C5.52493 3.37979 5.38031 3.46332 5.40035 3.58676L5.69642 5.41283C5.70101 5.43912 5.69766 5.46618 5.68681 5.49056C5.67596 5.51494 5.65809 5.53553 5.63549 5.54971L4.0803 6.55158C3.97452 6.61972 4.00913 6.78255 4.1335 6.80177L5.96173 7.08447C5.98815 7.08823 6.01286 7.09977 6.03269 7.11763C6.05253 7.13549 6.06659 7.15885 6.0731 7.18473L6.54538 8.97337C6.5775 9.09503 6.74303 9.11242 6.79974 9.00008L7.63353 7.3487C7.64528 7.32473 7.6639 7.30481 7.68701 7.29147C7.71013 7.27813 7.73669 7.27197 7.76332 7.27378L9.61035 7.37735C9.73596 7.38439 9.80367 7.23235 9.71435 7.14367L8.40145 5.84037C8.38229 5.8218 8.36909 5.79793 8.36354 5.77183C8.358 5.74572 8.36035 5.71856 8.37031 5.69379L9.03959 3.96913C9.08509 3.85186 8.96143 3.74043 8.84952 3.79801L7.20432 4.64388C7.18073 4.65637 7.15396 4.66155 7.12742 4.65876C7.10088 4.65597 7.07578 4.64534 7.0553 4.62823L5.62184 3.45888Z" fill="#63AB45"/>
</svg>
