<svg xmlns="http://www.w3.org/2000/svg" width="50" height="50" viewBox="0 0 50 50">
<g>
<path fill="#63AB45" d="M20.832 15.0002C21.053 15.0002 21.265 15.088 21.4213 15.2442C21.5776 15.4005 21.6654 15.6125 21.6654 15.8335H23.332C23.332 15.1705 23.0686 14.5346 22.5998 14.0657C22.131 13.5969 21.4951 13.3335 20.832 13.3335C20.169 13.3335 19.5331 13.5969 19.0643 14.0657C18.5954 14.5346 18.332 15.1705 18.332 15.8335H19.9987C19.9987 15.6125 20.0865 15.4005 20.2428 15.2442C20.3991 15.088 20.611 15.0002 20.832 15.0002ZM29.1654 15.0002C29.3864 15.0002 29.5983 15.088 29.7546 15.2442C29.9109 15.4005 29.9987 15.6125 29.9987 15.8335H31.6654C31.6654 15.1705 31.402 14.5346 30.9331 14.0657C30.4643 13.5969 29.8284 13.3335 29.1654 13.3335C28.5023 13.3335 27.8664 13.5969 27.3976 14.0657C26.9288 14.5346 26.6654 15.1705 26.6654 15.8335H28.332C28.332 15.6125 28.4198 15.4005 28.5761 15.2442C28.7324 15.088 28.9444 15.0002 29.1654 15.0002ZM22.4987 18.3335H20.832C20.832 19.4386 21.271 20.4984 22.0524 21.2798C22.8338 22.0612 23.8936 22.5002 24.9987 22.5002C26.1038 22.5002 27.1636 22.0612 27.945 21.2798C28.7264 20.4984 29.1654 19.4386 29.1654 18.3335H27.4987C27.4987 18.9965 27.2353 19.6324 26.7665 20.1013C26.2976 20.5701 25.6617 20.8335 24.9987 20.8335C24.3357 20.8335 23.6998 20.5701 23.2309 20.1013C22.7621 19.6324 22.4987 18.9965 22.4987 18.3335Z"></path>
<path fill="#63AB45" d="M38.332 15H36.6245C36.6513 14.883 36.665 14.7634 36.6654 14.6433V13.0958C36.6645 12.8046 36.587 12.5187 36.4408 12.2668C36.2945 12.0149 36.0846 11.806 35.832 11.6608V10.8333C35.832 7.96015 34.6907 5.20465 32.659 3.17301C30.6274 1.14137 27.8719 0 24.9987 0C22.1255 0 19.37 1.14137 17.3384 3.17301C15.3067 5.20465 14.1654 7.96015 14.1654 10.8333V11.6608C13.9128 11.806 13.7029 12.0149 13.5566 12.2668C13.4104 12.5187 13.3329 12.8046 13.332 13.0958V14.6433C13.3324 14.7634 13.3461 14.883 13.3729 15H11.6654C10.1188 15.0018 8.6361 15.6169 7.54252 16.7105C6.44894 17.8041 5.8338 19.2868 5.83203 20.8333V40.8333C5.83203 41.0543 5.91983 41.2663 6.07611 41.4226C6.23239 41.5789 6.44435 41.6667 6.66536 41.6667H9.16536V49.1667C9.16536 49.3877 9.25316 49.5996 9.40944 49.7559C9.56572 49.9122 9.77768 50 9.9987 50H39.9987C40.2197 50 40.4317 49.9122 40.588 49.7559C40.7442 49.5996 40.832 49.3877 40.832 49.1667V41.6667H43.332C43.553 41.6667 43.765 41.5789 43.9213 41.4226C44.0776 41.2663 44.1654 41.0543 44.1654 40.8333V20.8333C44.1636 19.2868 43.5485 17.8041 42.4549 16.7105C41.3613 15.6169 39.8786 15.0018 38.332 15ZM37.4987 16.6667V23.3825C37.2221 23.3505 36.9438 23.3341 36.6654 23.3333H32.947C33.5843 22.8141 34.0988 22.1602 34.4535 21.4187C34.8082 20.6771 34.9944 19.8662 34.9987 19.0442V16.6667H37.4987ZM34.1654 30V28.3333H35.832V30H34.1654ZM35.832 31.6667V35H34.1654V31.6667H35.832ZM34.1654 26.6667V25H35.832V26.6667H34.1654ZM24.9987 1.66667C26.203 1.66491 27.3958 1.90082 28.5087 2.36086C29.6217 2.82091 30.6329 3.49605 31.4844 4.34761C32.336 5.19916 33.0111 6.21038 33.4712 7.32333C33.9312 8.43627 34.1671 9.62906 34.1654 10.8333V11.1042L28.077 5.23333C27.9843 5.14242 27.8712 5.07491 27.7471 5.03636C27.6231 4.99782 27.4917 4.98935 27.3637 5.01167C27.2357 5.03261 27.1144 5.08314 27.0093 5.15924C26.9043 5.23533 26.8185 5.3349 26.7587 5.45L25.8545 7.19417C25.6991 7.49089 25.4854 7.75321 25.2262 7.96541C24.9671 8.17762 24.6678 8.33535 24.3462 8.42917C24.0088 8.53288 23.6541 8.5676 23.303 8.53123C22.9519 8.49486 22.6118 8.38817 22.3029 8.2175C21.379 7.71117 20.3014 7.56156 19.2746 7.79704C18.2477 8.03252 17.343 8.63671 16.732 9.495L15.832 10.7942C15.845 8.37062 16.8162 6.05062 18.5336 4.34057C20.251 2.63051 22.5751 1.66927 24.9987 1.66667ZM14.9987 13.0958H15.832C15.967 13.0958 16.0999 13.0631 16.2193 13.0004C16.3388 12.9377 16.4412 12.8469 16.5179 12.7358L18.1012 10.4417C18.4755 9.92083 19.0278 9.55536 19.6535 9.41452C20.2792 9.27368 20.9349 9.36725 21.4962 9.6775C22.001 9.95369 22.5557 10.1266 23.128 10.1861C23.7003 10.2456 24.2787 10.1906 24.8295 10.0242C25.3635 9.86588 25.8601 9.60158 26.2896 9.24707C26.7192 8.89256 27.0729 8.4551 27.3295 7.96083L27.7195 7.21083L33.582 12.865C33.7373 13.0147 33.9447 13.0983 34.1604 13.0983H34.9937V14.6458H34.1654C33.9444 14.6458 33.7324 14.7336 33.5761 14.8899C33.4198 15.0462 33.332 15.2582 33.332 15.4792V19.0467C33.3257 19.771 33.121 20.4797 32.7402 21.0958C32.3594 21.712 31.817 22.212 31.172 22.5417L27.8037 24.3133C26.9386 24.7678 25.9759 25.0052 24.9987 25.0052C24.0215 25.0052 23.0588 24.7678 22.1937 24.3133L18.8254 22.5417C18.18 22.2118 17.6374 21.7114 17.2566 21.0948C16.8758 20.4781 16.6713 19.7689 16.6654 19.0442V15.4767C16.6654 15.2557 16.5776 15.0437 16.4213 14.8874C16.265 14.7311 16.053 14.6433 15.832 14.6433H14.9987V13.0958ZM31.2954 40H18.702C18.9261 39.6245 19.0729 39.2079 19.1336 38.7749C19.1944 38.3418 19.1679 37.9009 19.0558 37.4782C18.9437 37.0555 18.7482 36.6595 18.4808 36.3135C18.2134 35.9675 17.8795 35.6784 17.4987 35.4633V25H18.5504C18.9184 26.4305 19.7517 27.698 20.9191 28.6031C22.0864 29.5081 23.5216 29.9993 24.9987 29.9993C26.4758 29.9993 27.911 29.5081 29.0783 28.6031C30.2457 27.698 31.079 26.4305 31.447 25H32.4987V35.4633C32.1179 35.6784 31.784 35.9675 31.5166 36.3135C31.2492 36.6595 31.0537 37.0555 30.9416 37.4782C30.8295 37.9009 30.803 38.3418 30.8638 38.7749C30.9245 39.2079 31.0713 39.6245 31.2954 40ZM20.4154 25.255L21.4229 25.785C22.5267 26.3663 23.7554 26.67 25.0029 26.67C26.2504 26.67 27.4791 26.3663 28.5829 25.785L29.5904 25.255C29.2174 26.1654 28.5821 26.9442 27.7651 27.4924C26.9482 28.0405 25.9867 28.3332 25.0029 28.3332C24.0191 28.3332 23.0575 28.0405 22.2406 27.4924C21.4237 26.9442 20.7883 26.1654 20.4154 25.255ZM12.4987 16.6667H14.9987V19.0442C15.003 19.8662 15.1892 20.6771 15.5439 21.4187C15.8986 22.1602 16.4131 22.8141 17.0504 23.3333H13.332C13.0536 23.3341 12.7753 23.3505 12.4987 23.3825V16.6667ZM14.1654 30V28.3333H15.832V30H14.1654ZM15.832 31.6667V35H14.1654V31.6667H15.832ZM14.1654 26.6667V25H15.832V26.6667H14.1654ZM7.4987 20.8333C7.49991 19.8732 7.83211 18.9428 8.4393 18.199C9.04649 17.4551 9.89154 16.9434 10.832 16.75V23.77C9.52448 24.2337 8.37078 25.0502 7.4987 26.1292V20.8333ZM7.4987 32.5V30.8333C7.50034 29.4318 8.00654 28.0777 8.92468 27.0188C9.84283 25.9598 11.1115 25.2669 12.4987 25.0667V35H7.4987V32.5ZM7.4987 40V36.6667H15.832C16.2741 36.6667 16.698 36.8423 17.0105 37.1548C17.3231 37.4674 17.4987 37.8913 17.4987 38.3333C17.4987 38.7754 17.3231 39.1993 17.0105 39.5118C16.698 39.8244 16.2741 40 15.832 40H7.4987ZM39.1654 48.3333H10.832V41.6667H39.1654V48.3333ZM42.4987 40H34.1654C33.7233 40 33.2994 39.8244 32.9869 39.5118C32.6743 39.1993 32.4987 38.7754 32.4987 38.3333C32.4987 37.8913 32.6743 37.4674 32.9869 37.1548C33.2994 36.8423 33.7233 36.6667 34.1654 36.6667H42.4987V40ZM42.4987 32.5V35H37.4987V25.0667C38.8859 25.2669 40.1546 25.9598 41.0727 27.0188C41.9909 28.0777 42.4971 29.4318 42.4987 30.8333V32.5ZM42.4987 26.13C41.6266 25.051 40.4729 24.2345 39.1654 23.7708V16.75C40.1059 16.9434 40.9509 17.4551 41.5581 18.199C42.1653 18.9428 42.4975 19.8732 42.4987 20.8333V26.13Z"></path>
</g>
</svg>