<svg xmlns="http://www.w3.org/2000/svg" width="70" height="70" viewBox="0 0 70 70">
<g clip-path="url(#clip0_1335_373)">
<path d="M54.4993 61.413C54.3979 61.3243 54.2801 61.2565 54.1525 61.2134C54.0249 61.1703 53.8901 61.1528 53.7557 61.1618C53.6214 61.1708 53.4901 61.2061 53.3694 61.2659C53.2488 61.3256 53.141 61.4085 53.0524 61.5099L48.8249 66.3448C48.3771 66.8574 47.7556 67.1523 47.075 67.1753C46.3925 67.1996 45.7543 66.9461 45.2729 66.4653L42.0148 63.2085V61.0548C42.0148 60.4885 41.5558 60.0294 40.9894 60.0294C40.423 60.0294 39.964 60.4885 39.964 61.0548V68.9746C39.964 69.5409 40.423 70 40.9894 70C41.5558 70 42.0148 69.5409 42.0148 68.9746V66.1082L43.8233 67.9159C44.6625 68.7542 45.8108 69.2274 46.9942 69.2274C48.2802 69.2274 49.5231 68.6632 50.369 67.6945L54.5963 62.8599C54.685 62.7585 54.7528 62.6406 54.7959 62.5131C54.839 62.3855 54.8565 62.2507 54.8475 62.1163C54.8385 61.982 54.8031 61.8507 54.7433 61.73C54.6836 61.6093 54.6007 61.5016 54.4993 61.413ZM11.9144 60.0294C11.6424 60.0294 11.3816 60.1374 11.1893 60.3297C10.997 60.522 10.889 60.7828 10.889 61.0548V68.9746C10.889 69.5409 11.348 70 11.9144 70C12.4808 70 12.9398 69.5409 12.9398 68.9746V61.0548C12.9398 60.7828 12.8317 60.522 12.6394 60.3297C12.4471 60.1374 12.1863 60.0294 11.9144 60.0294ZM68.7023 16.2561L61.8293 10.6717C61.3539 10.2856 60.7153 10.2091 60.1622 10.4724C59.6091 10.7356 59.2656 11.2796 59.2656 11.8921V25.0719C59.2656 25.0738 59.266 25.0756 59.266 25.0775V41.7088L48.9415 53.4838L45.6708 47.3773C44.1097 44.4607 41.2284 42.3994 37.9627 41.8631C36.616 41.6421 33.4727 41.1281 32.34 40.9418C31.9316 40.876 31.5601 40.6666 31.2922 40.3513C31.0243 40.0361 30.8777 39.6356 30.8788 39.2219V38.0101C31.6873 37.5012 32.4364 36.9034 33.1121 36.228C35.516 33.8226 36.8399 30.6257 36.8399 27.2262V26.7805H37.235C39.2637 26.7898 40.9893 25.0645 40.9893 23.0262C40.9893 21.9447 40.5143 20.9396 39.744 20.2412C40.3401 19.391 40.5091 18.2737 40.1699 17.2927C40.024 16.8727 39.7935 16.487 39.4926 16.1595C39.1918 15.8319 38.8271 15.5696 38.4209 15.3885C38.3133 15.3407 38.2046 15.2947 38.0963 15.248V7.8668C38.0963 3.52912 34.5672 0 30.2295 0H17.9945C13.6569 0 10.1277 3.52912 10.1277 7.8668V15.248C10.0197 15.2947 9.91146 15.3407 9.80386 15.3884C9.39763 15.5695 9.03284 15.8319 8.73199 16.1594C8.43114 16.487 8.20062 16.8727 8.05468 17.2929C7.7111 18.2865 7.87982 19.3866 8.47864 20.2424C7.70905 20.9403 7.23478 21.9447 7.23478 23.0262C7.23478 25.059 8.94048 26.7921 10.9904 26.7805H11.3856V27.2262C11.3856 31.7607 13.7683 35.7484 17.3466 38.0043V39.4311C17.347 39.8132 17.2192 40.1845 16.9835 40.4853C16.7479 40.7862 16.4181 40.9993 16.047 41.0905L7.53214 43.1905C5.52758 43.6816 3.74605 44.8317 2.47334 46.4564C1.20063 48.0811 0.51051 50.0862 0.513683 52.15V68.9746C0.513683 69.5409 0.972648 70 1.53907 70C2.1055 70 2.56446 69.5409 2.56446 68.9746V52.15C2.56199 50.5448 3.09874 48.9854 4.08859 47.7218C5.07845 46.4582 6.46404 45.5636 8.0231 45.1817L14.6187 43.5552C16.6578 46.8254 20.2252 48.8255 24.1123 48.8255C28.1455 48.8255 31.7863 46.7106 33.7884 43.2573L37.6308 43.8869C40.2709 44.3204 42.6006 45.987 43.8628 48.3453L47.1724 54.5241C47.3243 54.8082 47.5428 55.0512 47.8092 55.2323C48.0756 55.4133 48.382 55.5271 48.702 55.5639C49.0224 55.6007 49.3469 55.5592 49.6478 55.4431C49.9487 55.327 50.2169 55.1397 50.4296 54.8972L57.4521 46.888L61.9127 51.3502C61.9169 51.3543 61.9215 51.3578 61.9257 51.362L56.2076 57.9016C56.0324 58.1069 55.9452 58.3729 55.9648 58.6421C55.9845 58.9112 56.1095 59.1618 56.3126 59.3394C56.5158 59.517 56.7807 59.6074 57.0501 59.591C57.3195 59.5745 57.5715 59.4526 57.7515 59.2516L67.176 48.4732C69.1049 46.2852 68.7667 42.786 66.5081 40.9805C64.9908 39.7675 63.0039 39.5363 61.3166 40.2164V25.5596L68.7023 19.5587C68.9483 19.3596 69.1466 19.1079 69.2826 18.8221C69.4186 18.5364 69.4889 18.2238 69.4883 17.9073C69.4883 17.2638 69.2017 16.6619 68.7023 16.2561ZM38.9385 23.0262C38.9385 23.9504 38.1599 24.7343 37.235 24.7297H36.8399V21.618C37.2258 21.6455 37.6136 21.6042 37.9851 21.496C38.558 21.7786 38.9385 22.3722 38.9385 23.0262ZM11.3856 24.7297H10.9904C10.0602 24.7345 9.28556 23.9516 9.28556 23.0262C9.28556 22.3728 9.66509 21.7803 10.2364 21.4981C10.6092 21.6065 10.9982 21.6479 11.3854 21.6204L11.3856 24.7297ZM11.6394 19.4756C11.052 19.736 10.3715 19.4812 10.0658 18.9115C9.7437 18.3113 10.0139 17.5391 10.6359 17.2629C16.2692 14.7617 22.4875 13.878 28.5945 14.7108C29.1546 14.7864 29.6724 14.3942 29.7487 13.8331C29.7668 13.6996 29.7585 13.5639 29.7242 13.4337C29.6899 13.3035 29.6303 13.1813 29.5488 13.0741C29.4673 12.9669 29.3655 12.8768 29.2491 12.809C29.1328 12.7411 29.0042 12.6969 28.8708 12.6788C23.2463 11.9122 17.5198 12.5152 12.1784 14.4367V7.8668C12.1784 4.65979 14.7874 2.05078 17.9944 2.05078H30.2295C33.4365 2.05078 36.0455 4.65979 36.0455 7.8668V14.4363C35.262 14.1544 34.4687 13.9003 33.6672 13.6746C33.4059 13.6027 33.1269 13.6371 32.8909 13.7703C32.655 13.9035 32.4814 14.1247 32.408 14.3855C32.3346 14.6463 32.3674 14.9255 32.4993 15.1622C32.6311 15.3989 32.8513 15.5738 33.1117 15.6487C34.6406 16.0794 36.1367 16.6188 37.5887 17.2628C38.2055 17.5366 38.4773 18.3095 38.161 18.9072C37.8607 19.4744 37.1868 19.7421 36.585 19.4755C28.9331 16.087 19.3932 16.0379 11.6394 19.4756ZM13.4363 27.2262V20.946C20.278 18.2097 27.9479 18.2098 34.7892 20.9464V27.2262C34.7892 30.0781 33.6785 32.7603 31.6618 34.7782C29.6614 36.7799 26.9666 37.9065 24.1128 37.9065C18.2257 37.9066 13.4363 33.1153 13.4363 27.2262ZM24.1123 46.7748C21.1644 46.7748 18.4417 45.3651 16.7339 43.0244C18.4057 42.5052 19.565 40.833 19.3973 39.0511C20.8968 39.6514 22.4975 39.959 24.1127 39.9574C25.7546 39.9574 27.3476 39.6458 28.828 39.0555C28.723 40.822 29.9402 42.4175 31.6016 42.8751C29.9062 45.3094 27.1453 46.7748 24.1123 46.7748ZM65.2272 42.5817C66.6013 43.6801 66.8041 45.7964 65.632 47.1233L63.2783 49.8151L58.8073 45.3426L60.8902 42.9671C61.4239 42.356 62.173 41.9747 62.9812 41.9029C63.7894 41.831 64.5941 42.0743 65.2272 42.5817ZM67.4091 17.967L61.3166 22.9172L61.3162 12.8974L67.4089 17.8478C67.44 17.8671 67.4408 17.9471 67.4091 17.967ZM29.7581 26.4495C30.03 26.4495 30.2909 26.3414 30.4832 26.1491C30.6755 25.9568 30.7835 25.696 30.7835 25.4241V23.1649C30.7835 22.5987 30.3245 22.1396 29.7581 22.1396C29.1917 22.1396 28.7327 22.5987 28.7327 23.1649V25.4241C28.7327 25.696 28.8407 25.9568 29.033 26.1491C29.2253 26.3414 29.4861 26.4495 29.7581 26.4495ZM18.4665 22.1397C18.1945 22.1397 17.9337 22.2477 17.7414 22.44C17.5491 22.6323 17.4411 22.8931 17.4411 23.1651V25.4242C17.4411 25.9905 17.9001 26.4496 18.4665 26.4496C19.0329 26.4496 19.4919 25.9905 19.4919 25.4242V23.1651C19.4919 22.8931 19.3839 22.6323 19.1916 22.44C18.9993 22.2477 18.7384 22.1397 18.4665 22.1397ZM27.2695 31.5488C27.1387 31.3104 26.9185 31.1337 26.6575 31.0576C26.3964 30.9815 26.1158 31.0123 25.8773 31.143C25.3245 31.4449 24.7038 31.6008 24.0739 31.596C23.4699 31.5889 22.8769 31.4333 22.3473 31.143C22.1091 31.0157 21.8303 30.9874 21.5714 31.0643C21.3126 31.1412 21.0945 31.3172 20.9645 31.554C20.8346 31.7907 20.8033 32.0692 20.8775 32.3289C20.9516 32.5886 21.1252 32.8085 21.3606 32.941C21.9348 33.2562 22.8679 33.6343 24.0524 33.6468C25.2491 33.6592 26.2722 33.2656 26.8638 32.9412C27.1022 32.8103 27.2789 32.5901 27.355 32.329C27.4311 32.0679 27.4004 31.7873 27.2695 31.5488Z"></path>
</g>
</svg>