<svg xmlns="http://www.w3.org/2000/svg" width="70" height="70" viewBox="0 0 70 70">
<path d="M12.2181 42.5833C12.0897 42.5833 11.9648 42.541 11.863 42.4628C11.7611 42.3846 11.6879 42.275 11.6546 42.151C11.6214 42.027 11.63 41.8954 11.6792 41.7768C11.7283 41.6582 11.8152 41.5591 11.9264 41.4949L32.1156 29.8375C32.2464 29.763 32.4009 29.7419 32.5469 29.7787C32.6929 29.8155 32.819 29.9073 32.8989 30.0349C32.9788 30.1625 33.0062 30.3161 32.9754 30.4635C32.9447 30.6109 32.8581 30.7406 32.7339 30.8257L28.4172 33.7423C28.5124 33.7368 28.6073 33.7566 28.6923 33.7996C28.7774 33.8427 28.8495 33.9074 28.9014 33.9873C28.9856 34.1056 29.0227 34.2509 29.0054 34.3951C28.9882 34.5392 28.9178 34.6717 28.8081 34.7667L22.8242 39.9408C22.8567 39.9763 22.8849 40.0155 22.9082 40.0575C22.9856 40.1915 23.0066 40.3507 22.9665 40.5001C22.9265 40.6496 22.8287 40.777 22.6947 40.8543L19.8761 42.4667C19.7506 42.5376 19.6033 42.5594 19.4626 42.5281C19.3219 42.4968 19.1978 42.4146 19.1141 42.2972C19.0305 42.1798 18.9933 42.0356 19.0097 41.8924C19.0261 41.7492 19.0949 41.6171 19.2029 41.5217L23.4029 37.8933L15.4462 42.4865C15.3155 42.5589 15.162 42.5784 15.0174 42.5409C14.8727 42.5035 14.748 42.412 14.6688 42.2852C14.5897 42.1585 14.5622 42.0062 14.592 41.8598C14.6218 41.7134 14.7067 41.584 14.8291 41.4983L18.2707 39.1755L12.5144 42.4993C12.4251 42.5537 12.3226 42.5828 12.2181 42.5833ZM43.0332 30.8128C42.9147 30.8127 42.7989 30.7764 42.7015 30.7089C42.6041 30.6413 42.5295 30.5456 42.4878 30.4346C42.4461 30.3236 42.4393 30.2025 42.4681 30.0875C42.497 29.9725 42.5602 29.869 42.6494 29.7908L42.7929 29.6648L42.4289 29.8737C42.303 29.9453 42.1549 29.9674 42.0136 29.9359C41.8722 29.9043 41.7477 29.8213 41.6641 29.703C41.5806 29.5847 41.5441 29.4395 41.5616 29.2957C41.5792 29.152 41.6496 29.0199 41.7592 28.9252L42.2469 28.5098C42.1265 28.5684 41.9897 28.5837 41.8594 28.5533C41.729 28.5229 41.6131 28.4486 41.5311 28.3429C41.449 28.2372 41.4058 28.1064 41.4087 27.9726C41.4116 27.8388 41.4604 27.7101 41.5469 27.608L43.3984 25.4042L38.0784 28.476C37.9503 28.5496 37.799 28.5718 37.6551 28.5381C37.5112 28.5044 37.3855 28.4174 37.3033 28.2946C37.2211 28.1718 37.1885 28.0224 37.2122 27.8766C37.2359 27.7307 37.3141 27.5993 37.4309 27.5088L37.7086 27.2953L35.6517 28.4795C35.5853 28.5217 35.5111 28.5501 35.4335 28.5628C35.3558 28.5756 35.2764 28.5725 35.2 28.5538C35.1236 28.5351 35.0518 28.5011 34.9888 28.4539C34.9259 28.4067 34.8731 28.3473 34.8338 28.2792C34.7944 28.211 34.7692 28.1357 34.7597 28.0576C34.7502 27.9795 34.7566 27.9003 34.7786 27.8247C34.8005 27.7491 34.8375 27.6788 34.8873 27.6179C34.9371 27.557 34.9987 27.5068 35.0684 27.4703L44.7879 21.8575C44.916 21.7854 45.0666 21.7643 45.2096 21.7985C45.3525 21.8327 45.4773 21.9195 45.559 22.0418C45.6407 22.164 45.6732 22.3125 45.6501 22.4577C45.6269 22.6028 45.5499 22.7339 45.4342 22.8247L45.1577 23.0382L45.6594 22.7488C45.778 22.6812 45.9166 22.6573 46.051 22.6813C46.1854 22.7053 46.3071 22.7757 46.3949 22.8802C46.4828 22.9847 46.5312 23.1167 46.5317 23.2532C46.5323 23.3898 46.4849 23.5221 46.3979 23.6273L44.5546 25.8335L47.1737 24.3168C47.2997 24.2453 47.4477 24.2231 47.5891 24.2547C47.7304 24.2862 47.855 24.3692 47.9385 24.4875C48.0221 24.6059 48.0586 24.751 48.041 24.8948C48.0234 25.0386 47.953 25.1706 47.8434 25.2653L47.3674 25.6713C47.4936 25.605 47.6398 25.5872 47.7782 25.6213C47.9167 25.6554 48.0378 25.739 48.1188 25.8563C48.1998 25.9737 48.235 26.1166 48.2178 26.2581C48.2006 26.3997 48.1322 26.53 48.0254 26.6245L45.4366 28.8937C45.4984 29.0254 45.5088 29.1756 45.4656 29.3146C45.4225 29.4536 45.3289 29.5715 45.2032 29.645L43.3284 30.7288C43.2395 30.7833 43.1375 30.8123 43.0332 30.8128ZM42.1746 22.4105C42.0462 22.4105 41.9213 22.3681 41.8195 22.29C41.7176 22.2118 41.6444 22.1022 41.6111 21.9782C41.5779 21.8541 41.5865 21.7226 41.6357 21.604C41.6848 21.4853 41.7717 21.3862 41.8829 21.322L43.2082 20.5578C43.2746 20.5156 43.3489 20.4873 43.4265 20.4745C43.5041 20.4618 43.5836 20.4648 43.66 20.4835C43.7364 20.5023 43.8082 20.5362 43.8712 20.5834C43.9341 20.6306 43.9868 20.6901 44.0262 20.7582C44.0656 20.8263 44.0908 20.9017 44.1003 20.9798C44.1097 21.0579 44.1033 21.1371 44.0814 21.2127C44.0595 21.2882 44.0225 21.3586 43.9727 21.4195C43.9229 21.4804 43.8613 21.5305 43.7916 21.567L42.4662 22.3323C42.3777 22.3839 42.277 22.4108 42.1746 22.4105Z"></path>
<path d="M21.1012 35.7305C20.9775 35.7306 20.857 35.6914 20.757 35.6186C20.6571 35.5458 20.5829 35.4431 20.5451 35.3253C20.5073 35.2076 20.5079 35.0809 20.5469 34.9635C20.5858 34.8461 20.661 34.7441 20.7617 34.6723L27.4455 29.9006L26.7455 30.3055C26.62 30.3774 26.4722 30.4002 26.3308 30.3693C26.1894 30.3384 26.0646 30.256 25.9806 30.1382C25.8965 30.0204 25.8592 29.8756 25.876 29.7319C25.8927 29.5881 25.9623 29.4558 26.0712 29.3605L31.1019 24.9773L31.089 24.9563C31.0117 24.8223 30.9907 24.6631 31.0307 24.5137C31.0708 24.3642 31.1685 24.2368 31.3025 24.1595L33.546 22.8645C33.6714 22.7938 33.8185 22.772 33.9589 22.8032C34.0994 22.8344 34.2234 22.9164 34.3071 23.0335C34.3907 23.1506 34.4282 23.2945 34.4121 23.4375C34.3961 23.5805 34.3278 23.7126 34.2204 23.8083L31.3819 26.2816L37.3319 22.8481C37.4617 22.7719 37.6159 22.7489 37.7623 22.7838C37.9088 22.8187 38.036 22.9088 38.1175 23.0354C38.199 23.1619 38.2285 23.3151 38.1997 23.4628C38.1709 23.6106 38.0861 23.7414 37.963 23.8281L31.2815 28.5986L41.2705 22.8306C41.4044 22.7545 41.563 22.7344 41.7117 22.7748C41.8603 22.8151 41.987 22.9127 42.064 23.0461C42.141 23.1795 42.1622 23.3379 42.1228 23.4868C42.0834 23.6358 41.9867 23.7631 41.8539 23.841L21.3929 35.6523C21.3042 35.7035 21.2036 35.7305 21.1012 35.7305ZM10.1637 44.8538C10.0843 44.8542 10.0056 44.8382 9.93272 44.8066C9.85983 44.7751 9.79427 44.7288 9.74019 44.6706C9.65015 44.5753 9.59485 44.4524 9.58321 44.3218C9.57157 44.1912 9.60426 44.0605 9.67602 43.9508L9.79269 43.777L9.39719 44.0103C9.26877 44.0834 9.1174 44.105 8.97365 44.0708C8.8299 44.0366 8.70448 43.9492 8.62272 43.8261C8.54097 43.703 8.50896 43.5535 8.53318 43.4077C8.5574 43.262 8.63603 43.1308 8.75319 43.0408L9.37269 42.5741L8.48836 43.084C8.36406 43.1583 8.21655 43.1838 8.07451 43.1554C7.93247 43.127 7.80607 43.0468 7.71991 42.9304C7.63374 42.814 7.59398 42.6696 7.60836 42.5255C7.62274 42.3814 7.69023 42.2477 7.79769 42.1506L9.68186 40.3668L7.23186 41.7831C7.11023 41.8526 6.9677 41.8759 6.83028 41.8489C6.69286 41.8219 6.56973 41.7464 6.48339 41.6362C6.39705 41.5259 6.35326 41.3883 6.36002 41.2484C6.36677 41.1085 6.42363 40.9757 6.52019 40.8743L8.34836 38.9761L6.19702 40.2198C6.07404 40.2907 5.92941 40.3144 5.79024 40.2863C5.65108 40.2582 5.52693 40.1803 5.44106 40.0673C5.35519 39.9542 5.3135 39.8137 5.3238 39.6721C5.33411 39.5305 5.39569 39.3976 5.49702 39.2981L8.30752 36.5553C8.28662 36.5312 8.26825 36.505 8.25269 36.4771C8.17534 36.3432 8.15438 36.1839 8.19442 36.0345C8.23445 35.8851 8.33221 35.7577 8.46619 35.6803L10.3387 34.5988C10.4617 34.5279 10.6063 34.5042 10.7455 34.5323C10.8846 34.5604 11.0088 34.6382 11.0947 34.7513C11.1805 34.8644 11.2222 35.0049 11.2119 35.1464C11.2016 35.288 11.14 35.421 11.0387 35.5205L9.63869 36.882L11.3362 35.902C11.458 35.8317 11.601 35.8077 11.739 35.8345C11.877 35.8613 12.0007 35.937 12.0874 36.0478C12.174 36.1585 12.2177 36.2968 12.2104 36.4373C12.2032 36.5777 12.1454 36.7107 12.0479 36.812L10.2232 38.7113L13.4292 36.8668C13.5535 36.7924 13.701 36.7669 13.843 36.7953C13.9851 36.8237 14.1115 36.9039 14.1976 37.0204C14.2838 37.1368 14.3236 37.2811 14.3092 37.4252C14.2948 37.5694 14.2273 37.703 14.1199 37.8001L12.2357 39.5746L16.9304 36.8656C17.0587 36.794 17.2094 36.7735 17.3522 36.8081C17.4951 36.8428 17.6196 36.9301 17.7008 37.0527C17.782 37.1752 17.814 37.3238 17.7904 37.4689C17.7667 37.614 17.6891 37.7448 17.5732 37.8351L12.1937 41.9033C12.2143 41.9821 12.2182 42.0643 12.2052 42.1447C12.1921 42.225 12.1624 42.3018 12.1179 42.37L11.7177 42.9766C11.8342 43.0253 11.9312 43.1115 11.993 43.2216C12.0705 43.3555 12.0916 43.5146 12.0518 43.664C12.012 43.8134 11.9145 43.9409 11.7807 44.0185L10.4554 44.7826C10.3662 44.832 10.2655 44.8565 10.1637 44.8538Z"></path>
<path d="M42.1771 36.4094C42.0487 36.4094 41.9238 36.367 41.822 36.2888C41.7201 36.2107 41.6469 36.1011 41.6136 35.977C41.5804 35.853 41.589 35.7215 41.6381 35.6028C41.6873 35.4842 41.7742 35.3851 41.8854 35.3209L43.2061 34.5591C43.2725 34.5169 43.3467 34.4885 43.4243 34.4758C43.502 34.463 43.5814 34.4661 43.6578 34.4848C43.7342 34.5035 43.806 34.5375 43.869 34.5847C43.9319 34.6319 43.9847 34.6913 44.024 34.7594C44.0634 34.8275 44.0886 34.9029 44.0981 34.981C44.1076 35.0591 44.1012 35.1383 44.0792 35.2139C44.0573 35.2894 44.0203 35.3598 43.9705 35.4207C43.9207 35.4816 43.8591 35.5318 43.7894 35.5682L42.4687 36.3312C42.3802 36.3827 42.2795 36.4097 42.1771 36.4094Z"></path>
<path d="M42.6185 44.6833C42.5041 44.6833 42.3921 44.6496 42.2967 44.5864C42.2012 44.5233 42.1264 44.4334 42.0816 44.3281C42.0369 44.2228 42.0241 44.1066 42.0449 43.994C42.0656 43.8815 42.1191 43.7775 42.1985 43.6951L44.267 41.5473L42.2988 42.6836C42.177 42.7539 42.0338 42.7778 41.8956 42.7509C41.7575 42.724 41.6338 42.648 41.5473 42.5371C41.4607 42.4261 41.4172 42.2876 41.4248 42.1471C41.4323 42.0065 41.4904 41.8735 41.5883 41.7724L43.014 40.3106L39.2655 42.4666C39.1399 42.5377 38.9923 42.5597 38.8514 42.5283C38.7105 42.4969 38.5863 42.4144 38.5027 42.2967C38.4191 42.179 38.3821 42.0345 38.3989 41.8911C38.4157 41.7477 38.485 41.6156 38.5935 41.5204L40.1802 40.1531L36.1668 42.4666C36.0479 42.5355 35.9084 42.5602 35.773 42.5363C35.6377 42.5124 35.5151 42.4414 35.4269 42.336C35.3387 42.2305 35.2906 42.0973 35.2911 41.9598C35.2916 41.8223 35.3406 41.6894 35.4295 41.5846L37.1795 39.5243L32.85 42.0233C32.7295 42.0918 32.5885 42.1151 32.4522 42.0891C32.316 42.0631 32.1936 41.9894 32.1068 41.8813C32.02 41.7731 31.9745 41.6376 31.9786 41.499C31.9827 41.3604 32.036 41.2278 32.129 41.1249L33.3773 39.7658L31.541 40.8333C31.4242 40.9001 31.2879 40.9245 31.1551 40.9022C31.0224 40.88 30.9014 40.8126 30.8127 40.7114C30.724 40.6102 30.673 40.4814 30.6684 40.3469C30.6638 40.2124 30.7058 40.0805 30.7873 39.9734L31.8257 38.6189L30.2402 39.5348C30.1214 39.603 29.9823 39.6272 29.8474 39.6032C29.7125 39.5792 29.5904 39.5084 29.5024 39.4033C29.4144 39.2983 29.3663 39.1656 29.3664 39.0285C29.3664 38.8915 29.4148 38.7589 29.5028 38.6539L30.3288 37.6739L29.0922 38.3879C28.9725 38.4558 28.8326 38.4792 28.6973 38.454C28.562 38.4287 28.4399 38.3564 28.3528 38.2498C28.2657 38.1433 28.219 38.0094 28.2211 37.8717C28.2232 37.7341 28.2739 37.6016 28.3642 37.4978L29.042 36.7301L28.0212 37.3134C27.8988 37.3807 27.7563 37.4018 27.6197 37.3729C27.4831 37.3441 27.3613 37.2671 27.2766 37.1561C27.1919 37.0451 27.1498 36.9074 27.1579 36.768C27.1661 36.6286 27.224 36.4968 27.3212 36.3964L27.4448 36.2739L27.152 36.4419C27.0337 36.5104 26.8952 36.5352 26.7605 36.512C26.6258 36.4888 26.5035 36.419 26.415 36.3148C26.3265 36.2106 26.2774 36.0787 26.2763 35.942C26.2752 35.8053 26.3221 35.6726 26.4088 35.5669L27.3118 34.4656L25.955 35.2484C25.8364 35.3168 25.6975 35.3412 25.5627 35.3175C25.4279 35.2938 25.3057 35.2234 25.2176 35.1187C25.1294 35.014 25.0809 34.8816 25.0805 34.7447C25.0801 34.6078 25.1278 34.4752 25.2153 34.3699L26.0728 33.3444L24.7895 34.0841C24.6767 34.1505 24.5446 34.1765 24.4151 34.1578C24.2855 34.1391 24.1662 34.0769 24.0767 33.9814C23.9863 33.887 23.9303 33.7649 23.9176 33.6348C23.9049 33.5047 23.9363 33.3741 24.0067 33.2639L25.2538 31.3238L23.2075 32.5044C23.0874 32.573 22.9469 32.5967 22.811 32.5713C22.675 32.5459 22.5525 32.473 22.4654 32.3656C22.3782 32.2582 22.332 32.1234 22.335 31.9852C22.338 31.8469 22.3901 31.7142 22.4818 31.6108L23.12 30.8968L22.154 31.4544C22.0406 31.5196 21.9085 31.5448 21.7791 31.5259C21.6496 31.507 21.5303 31.4451 21.4402 31.3502C21.3502 31.2553 21.2946 31.1329 21.2825 31.0026C21.2704 30.8723 21.3025 30.7418 21.3735 30.6319L22.6113 28.7303L20.5918 29.8969C20.476 29.964 20.3406 29.9892 20.2083 29.9682C20.0761 29.9473 19.9551 29.8815 19.8657 29.7819C19.7762 29.6823 19.7237 29.555 19.717 29.4213C19.7103 29.2876 19.7498 29.1556 19.8288 29.0476L20.95 27.5111L19.2093 28.5156C19.0952 28.5815 18.962 28.6069 18.8316 28.5875C18.7012 28.568 18.5812 28.505 18.4912 28.4087C18.4012 28.3123 18.3465 28.1883 18.3361 28.0569C18.3256 27.9254 18.3599 27.7943 18.4335 27.6849L19.6445 25.8848L15.1318 28.4888C15.006 28.5612 14.8577 28.5842 14.7159 28.5531C14.5741 28.5221 14.4489 28.4392 14.3649 28.3208C14.2809 28.2024 14.2441 28.0569 14.2616 27.9127C14.2792 27.7686 14.3499 27.6362 14.4598 27.5414L15.0432 27.0433L12.5162 28.5016C12.3823 28.5777 12.2237 28.5978 12.075 28.5574C11.9264 28.5171 11.7997 28.4196 11.7227 28.2862C11.6457 28.1528 11.6245 27.9943 11.6639 27.8454C11.7033 27.6965 11.8 27.5692 11.9328 27.4913L19.8463 22.9226C19.9722 22.8501 20.1205 22.8272 20.2623 22.8582C20.4041 22.8893 20.5293 22.9721 20.6133 23.0906C20.6973 23.209 20.7341 23.3545 20.7166 23.4986C20.699 23.6427 20.6283 23.7751 20.5183 23.8699L19.935 24.3693L21.2382 23.6168C21.3523 23.5508 21.4855 23.5255 21.6159 23.5449C21.7463 23.5643 21.8663 23.6273 21.9563 23.7237C22.0463 23.82 22.101 23.9441 22.1115 24.0755C22.122 24.2069 22.0876 24.338 22.014 24.4474L20.803 26.2499L22.7478 25.1276C22.8637 25.0605 22.9991 25.0353 23.1313 25.0563C23.2636 25.0772 23.3846 25.143 23.474 25.2426C23.5635 25.3422 23.616 25.4695 23.6227 25.6032C23.6294 25.7369 23.5899 25.8689 23.5108 25.9769L22.3897 27.5146L24.1327 26.5089C24.2455 26.4458 24.3762 26.4219 24.5041 26.4411C24.632 26.4603 24.7499 26.5214 24.8393 26.6149C24.9286 26.7084 24.9844 26.829 24.9978 26.9576C25.0111 27.0863 24.9814 27.2157 24.9132 27.3256L23.6753 29.2273L25.6937 28.0606C25.8138 27.9912 25.9547 27.9669 26.0911 27.9921C26.2274 28.0172 26.3504 28.0901 26.4379 28.1977C26.5254 28.3053 26.5717 28.4405 26.5686 28.5792C26.5654 28.7178 26.5129 28.8508 26.4205 28.9543L25.7823 29.6671L26.746 29.1106C26.8588 29.0442 26.9909 29.0182 27.1204 29.0369C27.25 29.0555 27.3693 29.1177 27.4588 29.2133C27.5492 29.3077 27.6053 29.4298 27.618 29.5599C27.6306 29.69 27.5993 29.8206 27.5288 29.9308L26.2817 31.8721L28.328 30.6914C28.4466 30.6231 28.5855 30.5986 28.7203 30.6224C28.8551 30.6461 28.9773 30.7164 29.0655 30.8212C29.1536 30.9259 29.2022 31.0582 29.2026 31.1951C29.203 31.332 29.1552 31.4647 29.0677 31.5699L28.2125 32.5943L29.4958 31.8546C29.6141 31.7861 29.7527 31.7613 29.8874 31.7845C30.0221 31.8078 30.1444 31.8776 30.2328 31.9817C30.3213 32.0859 30.3704 32.2179 30.3715 32.3545C30.3727 32.4912 30.3258 32.624 30.239 32.7296L29.3348 33.8333L30.6917 33.0504C30.8141 32.9832 30.9565 32.9621 31.0932 32.9909C31.2298 33.0198 31.3515 33.0967 31.4363 33.2077C31.521 33.3187 31.5631 33.4564 31.5549 33.5958C31.5467 33.7353 31.4888 33.8671 31.3917 33.9674L31.2692 34.0911L31.562 33.9219C31.6819 33.8533 31.8222 33.8294 31.958 33.8545C32.0938 33.8797 32.2163 33.9522 32.3037 34.0591C32.391 34.1661 32.4376 34.3006 32.4351 34.4387C32.4326 34.5768 32.3812 34.7095 32.29 34.8133L31.6168 35.5833L32.6365 34.9999C32.7553 34.9324 32.8941 34.9087 33.0286 34.933C33.163 34.9574 33.2847 35.0281 33.3724 35.133C33.46 35.2378 33.508 35.3701 33.5081 35.5068C33.5082 35.6435 33.4602 35.7758 33.3727 35.8808L32.5467 36.8608L33.7845 36.1468C33.901 36.0788 34.0374 36.0533 34.1705 36.0746C34.3037 36.0958 34.4254 36.1626 34.5148 36.2634C34.6042 36.3649 34.6554 36.4943 34.6599 36.6295C34.6644 36.7646 34.6217 36.8971 34.5393 37.0043L33.4987 38.3599L36.0945 36.8619C36.2151 36.7934 36.3561 36.77 36.4923 36.7961C36.6285 36.8221 36.751 36.8958 36.8378 37.0039C36.9246 37.112 36.97 37.2476 36.9659 37.3862C36.9618 37.5248 36.9085 37.6574 36.8155 37.7603L35.5672 39.1194L39.507 36.8444C39.626 36.7755 39.7654 36.7508 39.9008 36.7747C40.0362 36.7986 40.1588 36.8696 40.247 36.975C40.3351 37.0805 40.3832 37.2137 40.3827 37.3512C40.3823 37.4887 40.3333 37.6216 40.2443 37.7264L38.5002 39.7833L44.9752 36.0499C45.1008 35.9788 45.2484 35.9569 45.3893 35.9882C45.5302 36.0196 45.6544 36.1022 45.738 36.2198C45.8216 36.3375 45.8586 36.4821 45.8418 36.6254C45.825 36.7688 45.7557 36.9009 45.6472 36.9961L44.0617 38.3623L46.0928 37.1956C46.2147 37.1261 46.3575 37.1029 46.4951 37.1301C46.6328 37.1574 46.7559 37.2333 46.8421 37.344C46.9283 37.4547 46.9717 37.5927 46.9643 37.7328C46.957 37.8729 46.8994 38.0057 46.8022 38.1068L45.3718 39.5604L47.2607 38.4708C47.3823 38.4013 47.5248 38.378 47.6623 38.405C47.7997 38.4319 47.9228 38.5075 48.0091 38.6177C48.0955 38.728 48.1393 38.8656 48.1325 39.0055C48.1258 39.1454 48.0689 39.2782 47.9723 39.3796L45.7172 41.7211C45.8219 41.712 45.9269 41.735 46.0182 41.7871C46.1095 41.8392 46.1828 41.9179 46.2282 42.0128C46.3052 42.1466 46.3259 42.3056 46.2859 42.4547C46.2459 42.6039 46.1483 42.7311 46.0147 42.8084L42.9102 44.6004C42.8222 44.6538 42.7214 44.6824 42.6185 44.6833Z"></path>
<path d="M9.61761 30.5597C9.49517 30.5597 9.37585 30.5212 9.27653 30.4496C9.1772 30.378 9.10292 30.277 9.06421 30.1608C9.02549 30.0447 9.0243 29.9193 9.06081 29.8025C9.09731 29.6856 9.16966 29.5832 9.26761 29.5097L10.3351 28.7071L8.92461 29.5237C8.79904 29.5969 8.6507 29.6205 8.50862 29.59C8.36654 29.5595 8.24096 29.4771 8.15646 29.3589C8.07195 29.2407 8.03462 29.0952 8.05175 28.9509C8.06889 28.8066 8.13927 28.6739 8.24911 28.5787L10.2091 26.8684L7.72761 28.2999C7.60751 28.3692 7.46662 28.3935 7.33023 28.3684C7.19384 28.3433 7.07086 28.2704 6.98336 28.1628C6.89585 28.0552 6.84954 27.9199 6.85273 27.7813C6.85592 27.6426 6.90841 27.5097 7.00077 27.4062L8.79511 25.3995L6.37194 26.7995C6.25218 26.869 6.11164 26.8935 5.97544 26.8688C5.83924 26.8442 5.71625 26.7719 5.62845 26.6649C5.54066 26.5578 5.49377 26.4231 5.49618 26.2847C5.49859 26.1463 5.55014 26.0133 5.64161 25.9094L8.46727 22.6894C8.37945 22.6389 8.30659 22.566 8.25611 22.4782C8.17876 22.3442 8.15779 22.185 8.19783 22.0356C8.23787 21.8861 8.33563 21.7587 8.46961 21.6814L10.3421 20.5999C10.4619 20.5305 10.6024 20.5059 10.7386 20.5306C10.8748 20.5553 10.9978 20.6276 11.0856 20.7346C11.1734 20.8416 11.2203 20.9763 11.2179 21.1147C11.2155 21.2531 11.1639 21.3862 11.0724 21.49L8.85577 24.0217L11.3699 22.5704C11.4899 22.5018 11.6303 22.478 11.7662 22.5033C11.9021 22.5285 12.0246 22.6012 12.1118 22.7084C12.1991 22.8156 12.2455 22.9502 12.2427 23.0884C12.24 23.2266 12.1883 23.3593 12.0968 23.4629L10.2978 25.4695L14.8174 22.8667C14.9428 22.795 15.0904 22.7723 15.2315 22.8031C15.3727 22.834 15.4974 22.9161 15.5815 23.0336C15.6655 23.151 15.703 23.2955 15.6867 23.4391C15.6703 23.5826 15.6013 23.715 15.4929 23.8105L13.5341 25.5162L18.1308 22.8632C18.2593 22.7911 18.4103 22.7703 18.5536 22.805C18.6968 22.8397 18.8216 22.9273 18.9029 23.0502C18.9842 23.1732 19.0159 23.3223 18.9917 23.4677C18.9675 23.6131 18.8892 23.7439 18.7724 23.8339L12.2181 28.7561C12.2288 28.8675 12.2072 28.9797 12.1559 29.0792C12.1046 29.1787 12.0258 29.2613 11.9288 29.3172L9.91277 30.4839C9.82304 30.5353 9.72104 30.5616 9.61761 30.5597Z"></path>
<path d="M42.3316 54.9162C42.327 54.9499 42.327 54.984 42.3316 55.0177C42.3301 55.5886 42.3785 56.1586 42.4763 56.721C42.942 59.0174 44.1902 61.0809 46.0079 62.5594C47.8256 64.038 50.1001 64.8398 52.4431 64.8282C54.5085 64.8089 56.5218 64.1779 58.2289 63.0151C59.9359 61.8523 61.2601 60.2098 62.0343 58.2949C62.4554 57.1764 62.667 55.99 62.6584 54.7949C62.6852 54.7189 62.6827 54.6358 62.6514 54.5615C62.6255 53.1243 62.2878 51.7098 61.6618 50.4159C61.0357 49.1219 60.1362 47.9792 59.0254 47.0669C57.3842 45.7749 55.3917 45.0076 53.3078 44.8651C51.224 44.7225 49.1455 45.2113 47.3436 46.2677C45.8353 47.1569 44.5816 48.4199 43.7037 49.9348C42.8257 51.4497 42.3532 53.1654 42.3316 54.9162ZM58.1178 48.4645L56.8799 49.7L56.6746 49.9065C56.6543 49.9238 56.6376 49.945 56.6258 49.969C56.6139 49.9929 56.6071 50.019 56.6056 50.0456C56.6042 50.0723 56.6083 50.0989 56.6175 50.124C56.6268 50.149 56.641 50.1719 56.6594 50.1912C56.7917 50.2735 56.948 50.3084 57.1028 50.2904C57.5171 50.2868 57.9162 50.1335 58.2263 49.8587L58.8598 49.2252C60.0592 50.6586 60.7793 52.4318 60.9189 54.2955H59.8141C59.5859 54.2887 59.359 54.3317 59.1491 54.4215C58.9679 54.4934 58.8129 54.6188 58.7046 54.7809C58.6647 54.8405 58.6446 54.9112 58.6473 54.9828C58.6501 55.0545 58.6754 55.1235 58.7198 55.1799C58.8443 55.302 59.012 55.37 59.1864 55.3689H60.9364C60.9262 55.7205 60.8947 56.0711 60.8419 56.4189C60.6054 57.8483 60.0024 59.192 59.0919 60.319L58.4503 59.675L58.2438 59.4697C58.1121 59.3834 57.9548 59.3447 57.7981 59.36C57.5714 59.3658 57.3476 59.4129 57.1378 59.4989C56.9601 59.5558 56.801 59.6593 56.6769 59.7987C56.6104 59.8944 56.5684 59.9994 56.6653 60.0962L58.0139 61.4449C56.6985 62.5736 55.071 63.2754 53.3473 63.4574V61.607C53.3473 61.4799 53.1046 61.4099 53.0253 61.3947C52.815 61.3627 52.6002 61.3778 52.3964 61.439C52.1895 61.487 51.996 61.5811 51.8306 61.7144L51.7198 61.831C51.6919 61.8624 51.6717 61.8998 51.661 61.9403C51.6503 61.9809 51.6492 62.0234 51.6579 62.0644V63.4235C49.8681 63.1949 48.194 62.414 46.8688 61.1894L48.1159 59.9422L48.3213 59.7369C48.3924 59.6657 48.4379 59.5689 48.3469 59.493C48.2126 59.4266 48.061 59.4034 47.9129 59.4265C47.6873 59.4428 47.4652 59.492 47.2538 59.5724C47.0817 59.6287 46.9229 59.7196 46.7871 59.8395L46.1711 60.4555C45.4658 59.653 44.9163 58.726 44.5506 57.722C44.2902 56.969 44.1332 56.184 44.0839 55.3887H45.1958C45.4234 55.3963 45.65 55.3541 45.8596 55.265C46.0418 55.192 46.1971 55.0645 46.3041 54.8999C46.3433 54.8381 46.3626 54.7658 46.3593 54.6928C46.3559 54.6197 46.3301 54.5494 46.2854 54.4915C46.2243 54.43 46.1516 54.3811 46.0715 54.3477C45.9914 54.3142 45.9055 54.2969 45.8188 54.2967H44.0758C44.1649 52.5098 44.7997 50.7931 45.8946 49.378L46.5701 50.0535L46.7754 50.26C46.9008 50.3933 47.0705 50.4763 47.2526 50.4934C47.4812 50.516 47.7115 50.4757 47.9188 50.3767C48.1045 50.2988 48.2586 50.1608 48.3563 49.9847C48.3955 49.9144 48.4135 49.8342 48.4082 49.7539C48.4028 49.6735 48.3742 49.5965 48.3259 49.532L46.9983 48.2044C47.0356 48.1729 47.0648 48.1344 47.1021 48.1029C48.3945 47.0349 49.9817 46.3862 51.6521 46.2432V48.0749C51.6521 48.1717 51.9134 48.181 51.9461 48.1822C52.1547 48.1832 52.3623 48.1533 52.5621 48.0935C52.7675 48.0466 52.9643 47.9678 53.1454 47.8602C53.2329 47.803 53.3461 47.7435 53.3461 47.621V46.2455C54.5897 46.3776 55.7868 46.7918 56.8461 47.4565C57.3003 47.7524 57.726 48.0899 58.1178 48.4645Z"></path>
<path d="M0.321585 38.4814V48.0282C0.150514 49.5744 0.210674 51.1373 0.500085 52.6657C1.39025 55.3409 4.05608 55.1892 6.31242 55.1892H37.6829C37.7094 57.7194 38.4037 60.1978 39.6954 62.3736C41.3992 65.1124 43.9427 67.2271 46.9465 68.4024C49.9504 69.5776 53.2536 69.7503 56.3637 68.8947C59.4737 68.0392 62.2238 66.2012 64.2039 63.655C66.1841 61.1088 67.288 57.9907 67.3513 54.7657C67.3489 51.0039 65.8881 47.3894 63.2759 44.6824C60.6637 41.9753 57.1036 40.3866 53.3443 40.2501V24.2667C53.3443 18.4777 53.5858 12.6327 53.3443 6.8484C53.2276 4.12773 51.0483 3.13723 48.6776 3.13723H45.1928V1.11423C45.1856 1.01981 45.1585 0.927969 45.1134 0.844734C45.0682 0.761499 45.006 0.688746 44.9307 0.631245C44.8555 0.573743 44.769 0.532792 44.6768 0.511075C44.5846 0.489358 44.4889 0.487366 44.3959 0.505229C44.0459 0.537896 43.4731 0.781729 43.4731 1.21923V3.15006H38.1788V1.06523C38.1788 0.693062 37.7436 0.640562 37.4438 0.682562C37.217 0.707312 36.9986 0.782236 36.8044 0.901896C36.6878 0.977729 36.4871 1.1154 36.4871 1.26823V3.15006H31.1776V0.940396C31.1776 0.843562 30.9163 0.833062 30.8836 0.831896C30.6746 0.830989 30.4667 0.860865 30.2664 0.920562C30.0693 0.975396 29.4883 1.1119 29.4883 1.38723V3.15006H24.1776V0.940396C24.1776 0.808562 23.9361 0.729229 23.8509 0.707062C23.6409 0.67034 23.4252 0.683123 23.2209 0.744396C22.9071 0.836562 22.4883 1.01156 22.4883 1.3884V3.15006H17.1858V1.08973C17.1858 0.690729 16.7681 0.551896 16.4204 0.592729C16.1194 0.627729 15.4801 0.837729 15.4801 1.24373V3.15006H10.1904V1.10606C10.1821 1.0144 10.1542 0.925586 10.1088 0.845556C10.0633 0.765526 10.0013 0.696128 9.92682 0.642005C9.85238 0.587883 9.76723 0.550285 9.67708 0.531727C9.58693 0.513169 9.49385 0.514079 9.40409 0.534396C9.07042 0.568229 8.47075 0.800396 8.47075 1.2274V3.13956C7.19519 3.08236 5.91751 3.0917 4.64292 3.16756C3.61241 3.19244 2.62198 3.57175 1.83846 4.24157C1.05495 4.91139 0.526244 5.8308 0.341418 6.8449C0.311484 7.29264 0.304864 7.74163 0.321585 8.19006V38.4814ZM5.59959 54.4834C3.08192 54.4332 2.01092 52.5969 2.01092 50.3277V21.4889C2.01092 18.3727 1.94092 15.2402 1.93509 12.1136H51.6549V40.2827C50.3676 40.373 49.0965 40.6238 47.8714 41.0294C48.1376 40.753 48.3609 40.4385 48.5341 40.0961C49.1653 38.7439 47.2193 37.3976 46.4143 36.5762C45.5101 35.6522 44.7623 34.4902 43.3214 34.6979C43.0286 34.703 42.7397 34.7669 42.472 34.8858C42.2043 35.0047 41.9632 35.1761 41.763 35.3899C41.5628 35.6037 41.4075 35.8555 41.3065 36.1305C41.2054 36.4054 41.1606 36.6978 41.1748 36.9904H36.4766C36.1619 37.0175 35.8455 37.0194 35.5304 36.9962C35.511 36.9585 35.484 36.9251 35.4511 36.8982C35.0031 36.4677 34.5714 36.0197 34.1328 35.5811L31.0236 32.4742L35.1583 28.3396H41.1526C41.1421 29.0302 41.0616 29.8014 41.6391 30.2972C42.0361 30.5412 42.492 30.6725 42.9579 30.677C43.4239 30.6815 43.8823 30.5591 44.2839 30.3229C44.8033 30.0172 45.2646 29.6223 45.6466 29.1562L47.5133 27.2476C48.0039 26.8689 48.3881 26.3697 48.6286 25.7986C48.8106 25.0379 48.3486 24.5537 47.8679 24.0626L45.9919 22.1446C45.6297 21.7067 45.2265 21.3043 44.7879 20.9429C44.3268 20.7202 43.8135 20.6283 43.3038 20.677C42.794 20.7258 42.3075 20.9134 41.8969 21.2194C41.6268 21.4222 41.4155 21.6932 41.2847 22.0047C41.1539 22.3161 41.1083 22.6567 41.1526 22.9916H34.9868C33.6867 22.8825 32.3958 23.2876 31.3911 24.1197C30.5079 24.9481 29.6738 25.8371 28.8174 26.6934L27.0278 28.4842L23.7401 25.2001C22.7064 24.1664 21.8804 23.0604 20.2961 22.9927C18.0794 22.8982 15.8278 22.9927 13.6029 22.9927C13.229 23.0231 12.8533 23.0231 12.4794 22.9927H12.4713C12.525 22.7805 12.5385 22.5601 12.5109 22.3429C12.4654 21.0409 11.5613 20.5171 10.3316 20.7201C8.44742 21.0316 6.87242 23.2587 5.66492 24.5817C5.48091 24.7283 5.33094 24.913 5.22538 25.1233C5.11981 25.3335 5.06117 25.5641 5.05352 25.7992C5.04586 26.0343 5.08937 26.2683 5.18104 26.4849C5.2727 26.7016 5.41034 26.8957 5.58442 27.0539C6.44075 28.0106 7.38809 28.8984 8.28525 29.8154C8.61425 30.2102 9.06367 30.4862 9.56459 30.601C10.0655 30.7159 10.5903 30.6633 11.0584 30.4512C11.5074 30.3234 11.8973 30.0419 12.1599 29.656C12.4226 29.2701 12.5415 28.8042 12.4958 28.3396H17.0796C17.3771 28.3396 17.6746 28.3466 17.9721 28.3396C18.0302 28.3376 18.0884 28.3407 18.1459 28.3489C18.646 28.7758 19.1093 29.2442 19.5308 29.7489L22.6154 32.8312L18.5169 36.9297H12.5144C12.5812 36.5936 12.5716 36.2467 12.4864 35.9147C12.4012 35.5828 12.2425 35.2742 12.0221 35.0117C11.631 34.7496 11.1736 34.6037 10.703 34.5911C10.2323 34.5785 9.76778 34.6997 9.36325 34.9406C8.85121 35.2648 8.394 35.6685 8.00875 36.1364L6.14209 38.0451C5.64762 38.4262 5.26447 38.9331 5.03259 39.5127C4.85058 40.2874 5.31258 40.7879 5.80375 41.2907L7.67975 43.2087C8.04475 43.6441 8.44766 44.0462 8.88375 44.4104C9.34327 44.6581 9.86544 44.7654 10.3854 44.719C10.9054 44.6725 11.4003 44.4743 11.8086 44.1491C12.0629 43.9394 12.2607 43.6695 12.384 43.3638C12.5073 43.0581 12.5521 42.7265 12.5144 42.3991H15.8079C17.3814 42.5467 18.9671 42.4969 20.5283 42.2509C22.1033 41.8274 23.2524 40.2816 24.3608 39.1732L26.6638 36.8702L29.9304 40.1299C30.4111 40.6106 30.8719 41.1484 31.3911 41.5906C32.4318 42.4737 33.6369 42.3372 34.9074 42.3372H40.4829C40.7159 42.3195 40.9497 42.3176 41.1829 42.3314C41.1626 42.4654 41.1513 42.6007 41.1491 42.7362C41.0586 43.0954 41.1037 43.4753 41.276 43.8031C41.4482 44.131 41.7354 44.3838 42.0824 44.5131C41.7593 44.8257 41.4466 45.1489 41.1491 45.4931C39.0121 48.0095 37.7921 51.1766 37.6888 54.4764C26.9998 54.4986 16.2886 54.6899 5.59959 54.4834ZM43.1476 43.5867C42.8587 43.0292 42.7526 42.3949 42.8443 41.7737C42.8443 41.6757 42.5841 41.6571 42.5491 41.6571C40.0093 41.6571 37.4473 41.7667 34.9109 41.6571C32.9906 41.5742 31.8216 39.8604 30.5441 38.5852L27.6554 35.7001C27.6481 35.6904 27.6394 35.6817 27.6298 35.6744L23.6129 31.6611L20.8129 28.8611C20.5049 28.5542 20.0709 27.9056 19.6673 27.7177C19.3176 27.63 18.9542 27.6114 18.5974 27.6629H12.2158C11.9171 27.6629 10.8158 27.7924 10.8158 28.2299C10.8158 28.5134 10.8391 28.8062 10.8158 29.0886C10.7714 29.6182 10.7924 29.9192 10.2861 29.6719C9.96759 29.5132 9.65025 29.0221 9.40175 28.7689C8.62825 27.9779 6.54925 26.5254 6.74058 25.2946C6.92142 24.1361 8.67142 22.9426 9.45775 22.1376C9.71442 21.8751 10.0878 21.3722 10.2919 21.4317C10.9721 21.6277 10.8158 23.0651 10.8158 23.5679C10.8158 23.6659 11.0759 23.6846 11.1109 23.6846C13.6508 23.6846 16.2128 23.5749 18.7491 23.6846C20.6694 23.7674 21.8384 25.4812 23.1159 26.7564L30.0471 33.6817L32.8471 36.4817C33.1551 36.7886 33.5891 37.4372 33.9928 37.6251C34.3424 37.7128 34.7058 37.7314 35.0626 37.6799H41.4384C41.7371 37.6799 42.8326 37.5504 42.8326 37.1129C42.8326 36.8516 42.7159 35.6907 42.9691 35.5402C43.2024 35.4014 43.4206 35.7491 43.5863 35.9077C44.4029 36.6777 45.1566 37.5107 45.9394 38.3099C46.7223 39.1091 47.4024 39.8266 46.4388 40.9116C46.0351 41.3654 45.6023 41.7959 45.1683 42.2252C44.4589 42.6235 43.7831 43.0788 43.1476 43.5867ZM12.0163 41.5976C11.6849 41.5976 10.8228 41.7772 10.8228 42.2264C10.8228 42.5332 10.8484 42.8494 10.8228 43.1539C10.8076 43.3231 10.8321 43.6346 10.6758 43.7536C10.4623 43.9181 10.5591 43.8271 10.2826 43.6369C9.91158 43.3211 9.57027 42.9719 9.26292 42.5939L7.64825 40.9501C7.20492 40.4962 6.62392 40.0611 6.71492 39.3529C6.78959 38.7614 7.35775 38.3402 7.75325 37.9354L9.37492 36.2717C9.58725 36.0547 9.79609 35.8319 10.0131 35.6196C10.0528 35.5799 10.1414 35.4446 10.2009 35.4271C10.3946 35.3687 10.1298 35.4504 10.2009 35.4656C11.0071 35.6499 10.8263 36.9752 10.8263 37.5656C10.8263 37.7464 11.2276 37.7417 11.3221 37.7417H15.0228C16.2229 37.8059 17.4257 37.8024 18.6254 37.7312C19.8178 37.5936 20.7558 36.2006 21.5421 35.4142L23.3703 33.5861C24.2211 34.4338 25.0709 35.2828 25.9194 36.1329L23.2361 38.8162L21.3344 40.7179C20.9984 41.0539 20.6554 41.5194 20.1678 41.6092C19.6969 41.6495 19.2234 41.6495 18.7526 41.6092H12.0163V41.5976ZM41.4513 23.6752C41.7511 23.6752 42.8454 23.5469 42.8454 23.1071C42.8454 22.7816 42.8198 22.4444 42.8454 22.1212C42.8774 21.908 42.9306 21.6986 43.0041 21.4959L43.0333 21.4679C43.0788 21.4831 43.1266 21.4982 43.1954 21.5157C43.5349 21.8832 43.9188 22.2262 44.2699 22.5856L46.0129 24.3671C46.4796 24.8396 47.0349 25.2572 46.9568 25.9946C46.8914 26.6152 46.3408 27.0166 45.9266 27.4401L44.1766 29.2274C43.9604 29.4057 43.7647 29.6077 43.5933 29.8294C43.5636 29.8732 43.5279 29.9125 43.4871 29.9461C43.4561 29.9169 43.428 29.8849 43.4031 29.8504C43.1149 29.4526 42.8886 29.2869 42.8489 28.7596C42.8256 28.4352 42.8489 28.0992 42.8489 27.7737C42.8489 27.6757 42.5899 27.6571 42.5538 27.6571H38.8496C37.6409 27.6571 36.3763 27.5474 35.1711 27.6571C33.8749 27.7819 32.9941 29.1049 32.1378 29.9577L30.3236 31.7707C29.4571 30.9066 28.5911 30.0413 27.7254 29.1749L30.4169 26.4834L32.3186 24.5806C32.5589 24.3472 32.9778 23.7826 33.3091 23.6682C33.7754 23.6022 34.2486 23.6022 34.7149 23.6682H41.4489L41.4513 23.6752ZM43.4941 29.9589C43.6889 30.1421 43.7029 29.8597 43.4941 29.9589V29.9589ZM65.6444 54.9011C65.649 57.6111 64.8336 60.2592 63.3055 62.4973C61.7774 64.7355 59.6079 66.459 57.0823 67.4416C54.4754 68.3587 51.6468 68.437 48.9932 67.6653C46.3396 66.8937 43.994 65.3109 42.2854 63.1389C40.6284 61.0213 39.6319 58.4625 39.4203 55.782C39.2087 53.1016 39.7913 50.4181 41.0954 48.0667C42.4362 45.693 44.4889 43.8004 46.9635 42.6563C49.4382 41.5123 52.2096 41.1746 54.8866 41.6909C57.912 42.3467 60.6246 44.0113 62.5794 46.4117C64.5341 48.812 65.6149 51.8056 65.6444 54.9011ZM2.01092 6.89623C1.95654 6.20313 2.15447 5.51372 2.56824 4.95502C2.98201 4.39633 3.58375 4.00598 4.26259 3.8559C4.82864 3.82031 5.39637 3.82031 5.96242 3.8559H8.47542V5.89406C8.48378 5.98572 8.51162 6.07454 8.55708 6.15457C8.60254 6.2346 8.66457 6.304 8.73902 6.35812C8.81346 6.41224 8.89861 6.44984 8.98876 6.4684C9.07891 6.48696 9.17198 6.48605 9.26175 6.46573C9.59542 6.4319 10.1951 6.19973 10.1951 5.77273V3.8559H15.4848V5.9104C15.4848 6.3094 15.9024 6.44823 16.2501 6.4074C16.5511 6.3724 17.1904 6.1624 17.1904 5.7564V3.8559H22.4929V6.05973C22.4929 6.19156 22.7344 6.2709 22.8196 6.29306C23.0296 6.32979 23.2453 6.317 23.4496 6.25573C23.7634 6.16356 24.1823 5.98856 24.1823 5.61173V3.86173H29.4929V6.05973C29.4929 6.15656 29.7543 6.16706 29.7869 6.16823C29.9959 6.16914 30.2038 6.13926 30.4041 6.07956C30.6013 6.02473 31.1823 5.88823 31.1823 5.60706V3.85706H36.4918V5.9349C36.4918 6.30706 36.9269 6.35956 37.2268 6.31756C37.4535 6.29281 37.6719 6.21789 37.8661 6.09823C37.9828 6.0224 38.1834 5.88473 38.1834 5.7319V3.8559H43.4778V5.8859C43.4849 5.98032 43.512 6.07216 43.5571 6.15539C43.6023 6.23863 43.6645 6.31138 43.7398 6.36888C43.815 6.42638 43.9015 6.46733 43.9937 6.48905C44.0859 6.51077 44.1816 6.51276 44.2746 6.4949C44.6246 6.46223 45.1974 6.2184 45.1974 5.7809V3.8559H45.2558C46.6558 3.8559 48.7114 3.5374 49.9749 4.27006C52.0924 5.49506 51.6596 8.17373 51.6596 10.2387V11.2199H1.93392C1.93742 9.77673 1.95609 8.33473 2.01092 6.89623Z"></path>
<path d="M53.3249 52.1209C53.1421 52.1874 52.9849 52.3099 52.8758 52.4709L51.7091 54.8043C51.6696 54.8589 51.649 54.9249 51.6505 54.9923C51.6519 55.0597 51.6754 55.1248 51.7173 55.1776L52.8839 56.3443C53.0497 56.4535 53.2423 56.5149 53.4407 56.5219C53.6391 56.5289 53.8356 56.4812 54.0086 56.3839C54.2139 56.2871 54.7331 55.9488 54.4496 55.6653L53.4124 54.6293C53.7617 53.9293 54.1117 53.2324 54.4624 52.5386C54.5016 52.4839 54.522 52.4179 54.5205 52.3506C54.519 52.2833 54.4958 52.2183 54.4543 52.1653C54.3256 52.0522 54.1588 51.9922 53.9876 51.9973C53.7602 51.9883 53.5338 52.0305 53.3249 52.1209Z"></path>
</svg>