<svg xmlns="http://www.w3.org/2000/svg" width="70" height="70" viewBox="0 0 70 70">
<path d="M36.6322 3.49316L36.7071 3.42037C20.062 3.2598 3.21674 16.7033 3.50361 36.4612C3.78192 55.5747 19.1789 69.0525 37.1471 68.2261C39.5098 68.1213 41.8522 67.7401 44.1263 67.0904C46.9554 69.3115 51.6471 70.7908 54.7171 69.5459C55.9695 69.0268 57.087 68.1929 58.0215 67.1268C61.4811 63.9669 62.0067 58.5719 61.1899 53.8749C66.343 46.5607 67.7998 38.1471 66.4746 30.3159C64.0383 15.9133 52.1941 3.48459 36.6322 3.49316ZM52.7667 10.5901C52.7056 10.715 52.679 10.8539 52.6897 10.9926C52.9551 13.6076 50.1314 15.4423 47.8492 14.1578C46.1633 13.2073 45.2374 10.7464 42.9788 9.92213C38.8416 8.40748 35.7812 13.2276 32.4297 12.8797C31.1516 12.7438 29.8928 11.744 29.2217 10.3321C28.7186 9.27453 28.4948 7.96861 28.4981 6.30303C37.1364 3.73721 45.6291 5.30539 52.7667 10.5901ZM7.88701 27.1613C13.5142 25.469 21.1025 29.0132 15.6037 31.8701C14.3245 32.5145 13.0101 33.1086 12.28 34.3257C11.3541 35.8735 11.8347 38.0476 13.3312 39.0741C13.9049 39.4648 14.6553 39.7442 14.7377 40.061C14.9304 40.7975 11.216 43.2552 7.12165 42.0435C6.6924 40.0691 6.45296 38.0583 6.40661 36.0384C6.32712 33.0449 6.70137 30.0567 7.51664 27.1753C7.63942 27.2004 7.76645 27.1956 7.88701 27.1613ZM23.1866 55.3692C25.0877 51.8689 29.0932 50.8863 29.6134 51.5071C29.9431 51.9021 29.4133 52.995 29.2548 53.9113C28.816 56.3957 31.2341 58.8438 33.7292 58.4392C36.5873 57.9725 37.9306 54.6295 40.1197 54.3491C41.1558 54.2206 42.3611 54.849 43.3524 56.0446C44.7953 57.7798 45.7169 61.3839 45.4857 64.045C42.6071 65.0931 39.5761 65.6619 36.5134 65.7288C31.7532 65.8361 27.0411 64.7579 22.8012 62.5914C22.1954 60.458 22.1911 57.2028 23.1866 55.3692ZM43.6328 41.1304C43.5825 39.8373 43.4262 38.5785 43.2325 36.8969C43.2181 36.7796 43.1778 36.6669 43.1144 36.5671C43.0511 36.4673 42.9664 36.3829 42.8664 36.3199C41.8142 35.3244 39.9784 33.3473 36.8881 31.0994C36.7942 31.031 36.6867 30.9837 36.5728 30.9609C36.4589 30.9381 36.3415 30.9402 36.2285 30.9672C36.1156 30.9941 36.0098 31.0453 35.9185 31.1171C35.8273 31.1889 35.7527 31.2797 35.6999 31.3831C33.5869 35.5267 32.2585 39.4605 31.4225 44.0238C30.7213 43.6705 30.6785 43.6491 30.5436 43.5742C31.3807 37.7821 31.5306 32.3005 31.6098 27.1731C31.6117 27.0484 31.5846 26.9249 31.5305 26.8125C31.4765 26.7001 31.397 26.6018 31.2983 26.5255C28.6351 24.4639 26.2031 22.7362 23.8706 21.2483C23.4339 19.8996 23.1288 19.6876 23.3161 19.4008C23.4617 19.176 23.5484 19.313 24.9721 19.1599C27.981 21.1648 30.8187 22.9171 33.407 24.3707C33.6254 24.4928 33.8887 24.5078 34.1199 24.4071C38.6906 22.4322 43.9068 20.7795 49.2343 19.6148C49.2996 19.7165 49.4077 19.8932 49.4698 20.0002C45.6998 21.8413 41.8505 24.5677 38.286 27.946C38.2087 28.0191 38.1467 28.1069 38.1036 28.2042C38.0605 28.3015 38.0373 28.4064 38.0352 28.5129C38.0331 28.6193 38.0522 28.725 38.0914 28.824C38.1306 28.9229 38.1891 29.0131 38.2635 29.0892C40.3883 31.2728 42.3098 33.0733 43.9689 34.437C44.6882 35.0236 45.4204 34.0089 49.4217 33.2125C49.5897 33.4105 49.7663 33.6438 49.9408 33.8922C46.3763 36.1615 45.1539 37.1142 43.9571 41.2674C43.8492 41.2214 43.7411 41.1757 43.6328 41.1304ZM48.1821 37.0596C55.2448 44.6896 63.745 59.1135 56.4383 66.4567C61.4768 58.6736 54.3446 46.8251 46.4191 39.2711C46.8357 38.4124 47.4379 37.657 48.1821 37.0596ZM56.3591 59.3276C56.5539 61.4492 56.2735 63.0099 55.7757 64.2623C53.6616 67.3387 49.777 67.6406 47.2016 66.0231C50.2759 64.7322 53.1211 62.844 55.2116 60.3328C55.6044 60.0116 55.9802 59.6702 56.3591 59.3276ZM50.5617 35.4026C50.8678 35.2024 51.1579 35.0204 51.4052 34.878C51.4351 34.8663 51.4673 34.8705 51.4951 34.8545C51.6773 34.7443 51.8084 34.5664 51.8596 34.3597C51.9108 34.153 51.8778 33.9344 51.768 33.752C51.5443 33.3816 50.9513 32.446 50.2801 31.7749C50.1893 31.6832 50.0775 31.6151 49.9544 31.5763C49.8313 31.5375 49.7007 31.5292 49.5737 31.5522C47.7732 31.868 46.1783 32.3872 44.6454 32.9117C43.2635 31.7503 41.7007 30.2881 39.9869 28.554C43.5054 25.3213 47.2755 22.7437 50.9299 21.077C51.107 20.9944 51.2475 20.8493 51.3245 20.6697C51.4015 20.49 51.4096 20.2882 51.3474 20.103C51.3323 19.967 51.2818 19.8374 51.2007 19.7272C50.6794 19.0529 50.2662 17.7587 49.3703 17.9439C43.9207 19.1032 38.5633 20.7709 33.8491 22.7758C26.3197 18.5069 25.8466 17.4387 25.0706 17.5307C23.5987 17.718 22.6717 17.4569 21.9738 18.5187C21.8041 18.7778 21.6982 19.0735 21.6649 19.3815C21.6316 19.6894 21.6718 20.0009 21.7822 20.2903C23.269 23.8837 20.8541 20.5151 29.9977 27.5499C29.9121 32.8539 29.7483 38.1075 28.8791 43.8514C28.7271 44.8608 30.4366 45.1338 31.3914 45.8563C31.4936 45.9345 31.6133 45.9867 31.7402 46.0083C31.867 46.03 31.9972 46.0205 32.1196 45.9807C32.242 45.9409 32.3529 45.872 32.4427 45.7798C32.5325 45.6877 32.5986 45.5751 32.6353 45.4517C33.331 44.7688 32.9457 40.6883 36.705 32.9663C38.3385 34.2144 39.9056 35.6145 41.675 37.4C41.7339 38.0444 41.8216 38.3034 42.0036 41.1679C42.0818 42.386 42.1503 42.2404 43.2539 42.7136C44.0749 43.07 44.1273 43.1064 44.4067 43.0668C44.611 43.1005 44.8203 43.0534 44.9905 42.9356C45.1607 42.8177 45.2784 42.6383 45.3187 42.4352C45.4193 41.9343 45.5842 41.4044 45.7662 40.8853C50.5927 45.5737 54.7042 50.6647 56.0776 57.4148C53.4756 59.9274 50.4401 61.9481 47.1181 63.3792C47.1502 60.4323 46.1387 56.8839 44.5887 55.0181C43.2239 53.3739 41.5166 52.554 39.9141 52.7552C37.0144 53.1288 35.672 56.4964 33.4702 56.8549C32.0733 57.0862 30.5897 55.5897 30.8348 54.1896C31.0189 53.162 31.8453 51.6698 30.8434 50.4763C30.2375 49.7484 29.1928 49.5279 27.9008 49.8512C25.3307 50.4977 23.041 52.2725 21.7747 54.6017C20.7835 56.4289 20.6047 59.242 20.9419 61.5488C14.5622 57.6674 9.69174 51.3904 7.56802 43.8161C10.2227 44.331 12.888 43.7165 14.9229 42.3207C16.034 41.5564 16.5328 40.5866 16.2898 39.6543C15.9955 38.5303 14.8683 38.1771 14.2368 37.7489C13.4447 37.2062 13.1674 35.9667 13.6577 35.151C14.1383 34.346 15.1777 33.8815 16.3444 33.2938C20.4088 31.1829 19.7516 27.688 16.0351 26.1038C13.5571 25.044 10.6905 24.83 8.06256 25.4626C11.1347 16.79 18.2455 9.92642 26.8817 6.8286C27.0102 11.7804 29.6605 14.1996 32.2563 14.4768C36.0531 14.8729 39.3982 10.3235 42.4264 11.4293C44.153 12.0608 45.0511 14.4243 47.0603 15.5558C49.9569 17.1893 53.8789 15.4702 54.2718 11.7815C59.7973 16.4549 63.517 23.0402 64.8197 30.1253C66.1385 37.2993 64.9803 44.985 60.7093 51.7158C59.0202 45.5373 54.6593 40.2013 50.5617 35.4026Z"></path>
<path d="M59.2244 26.0313C58.6495 25.632 58.6281 25.6138 58.6838 24.841C58.7095 24.4781 58.7395 24.066 58.6281 23.6346C58.0544 21.3974 54.8121 21.2657 53.9001 23.6196C53.2578 25.2798 50.3709 26.0805 51.7175 29.5498C52.8789 32.5427 57.2794 33.7202 59.6279 31.4947C60.3515 30.8097 60.7711 29.7778 60.7508 28.7363C60.723 27.441 60.1353 26.6618 59.2244 26.0313ZM53.215 28.9685C52.2677 26.529 54.5048 26.5012 55.3976 24.1998C55.5581 23.7855 55.9681 23.5051 56.3256 23.5051C56.6543 23.5051 56.9989 23.7459 57.0728 24.0328C57.2034 24.5434 56.8405 25.4565 57.3008 26.3385C57.9099 27.5053 59.1162 27.3019 59.1451 28.7684C59.2029 31.7538 54.2876 31.7399 53.215 28.9685ZM52.7954 5.07556L53.382 0.879487C53.4014 0.673445 53.3407 0.467836 53.2124 0.30546C53.084 0.143084 52.898 0.036453 52.6931 0.007764C52.4881 -0.020925 52.28 0.0305387 52.112 0.151442C51.944 0.272345 51.8292 0.453372 51.7913 0.656838L51.2047 4.85398C51.0592 5.90621 52.6477 6.12778 52.7954 5.07556ZM57.7654 2.49048L55.1471 6.2466C54.5338 7.12542 55.8707 8.01816 56.4637 7.16396L59.082 3.4089C59.1449 3.32257 59.1899 3.22456 59.2144 3.1206C59.2389 3.01665 59.2425 2.90885 59.2248 2.80351C59.2072 2.69818 59.1687 2.59743 59.1116 2.50716C59.0545 2.41689 58.98 2.33892 58.8924 2.27781C58.8048 2.21671 58.7058 2.17369 58.6014 2.15129C58.497 2.1289 58.3891 2.12756 58.2842 2.14736C58.1792 2.16717 58.0793 2.20772 57.9902 2.26663C57.9011 2.32555 57.8247 2.40165 57.7654 2.49048ZM59.4995 11.1438L64.1323 7.6692C64.3026 7.54145 64.4152 7.35126 64.4453 7.14048C64.4754 6.9297 64.4206 6.71559 64.2928 6.54525C64.1651 6.37491 63.9749 6.2623 63.7641 6.23219C63.5533 6.20208 63.3392 6.25694 63.1689 6.38469L58.535 9.86036C57.6797 10.5015 58.6613 11.7754 59.4984 11.1449L59.4995 11.1438Z"></path>
</svg>