<svg xmlns="http://www.w3.org/2000/svg" width="70" height="70" viewBox="0 0 70 70">
<path d="M7.93843 51.3252C12.6831 53.68 5.85265 67.3267 12.9084 67.6647C75.927 66.7022 62.2114 79.3328 63.2231 16.2584C63.2406 13.9156 60.9842 12.6644 58.8459 12.9772C59.5798 8.84501 55.3722 8.22704 52.2834 8.6022C54.0936 -0.339209 39.5347 -0.33374 41.3459 8.6022H38.0647C39.8748 -0.339209 25.3159 -0.33374 27.1272 8.6022H23.8459C25.6561 -0.339209 11.0972 -0.33374 12.9084 8.6022C10.3972 8.47532 6.29125 8.33095 6.34593 11.8834C6.93656 13.7144 4.78296 51.5155 7.93843 51.3252ZM61.0662 16.7309C61.1406 17.6692 61.1358 18.6121 61.052 19.5495C60.1803 19.3308 59.4989 20.115 58.8459 20.5733V19.4292C61.3933 19.3702 61.8428 16.3995 58.8459 17.9308V17.5786C59.6577 17.5412 60.4361 17.2441 61.0662 16.7309ZM58.8459 21.5752C59.6078 21.5006 60.3403 21.2428 60.9809 20.8238C60.954 21.1259 60.972 21.4304 61.0345 21.7272H58.847L58.8459 21.5752ZM59.9397 15.1658C60.1215 15.15 60.3036 15.1937 60.4585 15.2904C60.6133 15.3871 60.7326 15.5314 60.7983 15.7017C60.0917 15.5158 59.4092 16.137 58.847 16.5002V15.1658H59.9397ZM58.8459 23.9158H61.0334C60.433 82.3045 70.2953 62.3064 12.9073 65.4794C10.6837 65.8064 12.2686 56.1431 11.8158 55.2113C14.0656 56.8202 18.527 63.5183 21.6595 63.2908C69.3623 63.2263 57.7478 69.9517 58.847 23.9158H58.8459ZM15.0959 50.1658H21.6584V56.7283H19.4709C19.8898 53.7194 18.6572 50.1199 15.0959 50.1658ZM17.2834 57.5869L12.0498 52.3522C16.7716 51.9158 17.6586 52.9319 17.2845 57.5869H17.2834ZM43.5334 6.4147C43.5334 3.7536 47.203 3.96907 48.9584 4.45142C44.0803 6.66626 45.7231 8.9172 49.9811 6.01329C50.0705 6.42552 50.1217 6.8451 50.1342 7.26673C47.5573 7.91204 46.5467 10.5064 50.1211 8.7411C50.1025 9.18517 50.0806 9.61282 50.073 9.99017C48.8447 10.3325 48.3087 11.8638 50.0456 11.3169C49.6847 13.1314 47.2566 13.0669 45.7209 12.9772C42.5797 13.0559 43.7358 8.25985 43.5334 6.4147ZM29.3147 6.4147C29.2862 3.72517 33.4578 3.77657 35.07 4.67782C30.882 5.99579 31.8719 8.96532 35.7481 5.95751C35.8546 6.42791 35.9122 6.90807 35.9198 7.39032C35.4014 7.63751 34.6216 7.73923 34.4564 8.39439C32.4297 9.36892 33.3309 10.9789 35.1094 9.48814C35.3709 9.53698 35.6414 9.4941 35.875 9.36673C35.8608 9.72767 35.8487 10.0645 35.8542 10.3588C34.172 10.7459 32.8836 13.3491 35.5458 11.9972C34.7758 13.1106 32.8136 13.0538 31.5022 12.9772C28.3609 13.0559 29.517 8.25985 29.3147 6.4147ZM15.0959 6.4147C15.0281 3.69673 19.7553 3.58298 21.1127 4.96439C16.462 6.24954 17.3939 9.83923 21.6081 6.3272C21.6742 6.77182 21.7064 7.22082 21.7044 7.67032C18.9197 8.59126 18.1136 11.6428 21.677 8.90079C21.6573 9.34157 21.6387 9.75501 21.6355 10.1225C20.673 10.4025 19.8909 12.3013 21.4616 11.7642C20.8152 13.1183 18.6802 13.0581 17.2834 12.9783C14.1422 13.0559 15.2983 8.25985 15.0959 6.41579V6.4147ZM8.53343 11.8834C8.46015 10.0897 11.9481 10.9986 12.9084 10.7897C12.8264 16.8097 23.9291 16.8097 23.8459 10.7897H27.1272C27.0452 16.8097 38.1478 16.8097 38.0647 10.7897H41.3459C41.2639 16.8097 52.3666 16.8097 52.2834 10.7897C58.4544 9.91798 56.315 13.1763 56.6584 17.3522C40.9609 17.1127 24.1434 18.4853 8.53343 17.3522V11.8834ZM56.6584 19.5397C54.04 69.1303 70.4309 60.5663 21.6595 61.1022C21.0795 61.1019 20.5232 60.8713 20.1131 60.4612C19.7029 60.051 19.4723 59.4948 19.472 58.9147C25.4439 60.2808 23.5955 53.6024 23.847 50.1647C23.9947 46.5739 17.0177 48.3961 15.097 47.9772C14.517 47.9778 13.961 48.2084 13.5509 48.6185C13.1408 49.0286 12.9101 49.5847 12.9095 50.1647C11.235 50.2555 8.49734 50.3419 8.53453 47.9772V19.5397H56.6584Z"></path>
<path d="M12.9069 23.8962C13.3236 26.2576 11.7562 30.7529 14.1789 31.9309C17.1211 31.4945 23.1848 33.3987 23.9986 29.5181C23.759 26.8274 24.0751 21.0076 20.1551 21.4768C18.4872 21.8924 10.1594 20.6565 12.9069 23.8962ZM16.0634 23.5867C22.4509 22.4295 22.8622 23.159 22.0178 29.6023C19.7881 29.9834 17.5192 30.0812 15.265 29.8932C15.0615 27.8293 14.8964 25.8026 14.5781 23.7496C15.0747 23.672 15.5887 23.6402 16.0634 23.5867ZM27.9175 23.3449C28.0389 25.4449 26.2167 31.3293 29.0878 31.5699C32.03 30.5374 35.8384 32.2087 38.3573 30.6588C38.4361 27.5928 37.8716 24.5443 36.7003 21.7098C34.1562 20.6215 31.1003 21.9012 28.39 21.3838C28.1594 21.3882 27.9367 21.4688 27.7569 21.6132C27.577 21.7576 27.4501 21.9576 27.3961 22.1819C27.3421 22.4061 27.364 22.6419 27.4583 22.8524C27.5527 23.0628 27.7141 23.2361 27.9175 23.3449ZM30.5239 23.089C32.2941 22.8799 34.0745 22.7685 35.857 22.7554C36.1447 24.8434 36.218 26.9871 36.4323 29.0926C34.249 28.8701 32.047 28.9061 29.872 29.1998C29.8522 27.2215 29.6663 25.2484 29.3164 23.3012C29.7136 23.203 30.117 23.1321 30.5239 23.089ZM42.2248 29.716C41.5095 33.9488 49.4873 31.8576 51.9876 31.652C53.6469 29.8517 52.8933 22.5345 50.9125 21.176C42.344 19.7421 40.8215 21.2318 42.2248 29.716ZM44.6037 30.6151L44.6694 30.7288C44.6256 30.8459 44.6037 30.8021 44.6037 30.6151ZM43.989 23.1087C46.103 22.755 48.2493 22.6332 50.3897 22.7456C50.755 25.0922 50.861 27.472 50.7058 29.8418C48.6495 29.9435 46.6009 29.9862 44.5425 30.0529C44.2253 27.7254 43.6598 25.4482 43.498 23.101C43.6606 23.1298 43.8256 23.1324 43.989 23.1087ZM23.1815 34.5931C21.1745 34.1599 14.0105 33.3615 13.8595 36.0554C13.7906 38.1871 12.4355 44.9432 15.1753 45.3676C17.5052 44.9456 19.8633 44.6981 22.23 44.6271C25.6315 43.3343 25.4784 36.7992 23.1815 34.5931ZM22.4455 40.2259C22.3518 40.871 22.1931 41.5049 21.9719 42.1181C21.9762 42.1104 21.8537 42.3149 21.9172 42.2198C20.0687 42.8192 17.7762 42.3357 15.8239 42.9931C15.7034 40.9104 15.4785 38.8352 15.1501 36.7751C19.0308 36.3726 23.7251 34.2092 22.4455 40.2259ZM51.8389 33.4687C50.1086 33.3079 43.1326 32.5346 44.199 35.4834C42.7181 37.2246 43.4859 40.4326 43.2628 42.6606C43.6117 45.7493 47.5437 43.9917 49.5759 44.0999C51.2253 44.1185 53.2247 43.704 53.3155 41.7079C53.5069 39.1671 54.4617 34.9376 51.8389 33.4687ZM51.303 35.3718H51.3139C51.5326 35.351 51.327 35.4517 51.303 35.3718ZM45.505 42.4265C45.5148 42.4637 45.5422 42.421 45.505 42.4265V42.4265ZM51.397 38.9079C51.3481 39.8327 51.21 40.7506 50.9847 41.6488C49.1641 41.8531 47.3384 42.0074 45.5094 42.1115C45.307 40.0345 45.7117 37.7223 44.875 35.7896C46.9608 35.8334 49.1712 35.1892 51.2865 35.3729C51.4508 36.5438 51.4885 37.7291 51.397 38.9079ZM38.9589 48.0779C29.9748 45.8937 27.8289 47.9302 28.8275 56.9526C29.0025 61.0607 34.3575 59.081 36.9748 59.0985C39.3494 59.3501 40.0373 57.1801 39.7792 55.2059C39.3723 52.9451 41.0512 49.6277 38.9589 48.0779ZM30.9034 57.1342C30.9303 57.1308 30.9575 57.136 30.9812 57.1489C31.005 57.1619 31.0241 57.182 31.0358 57.2063C30.9947 57.1771 30.9502 57.1529 30.9034 57.1342ZM37.7033 56.9777C37.6289 57.027 37.6726 57.0784 37.7033 56.9777V56.9777ZM38.365 50.5695C38.2221 52.7076 38.0032 54.8399 37.7087 56.9624C35.5497 57.0346 33.2758 57.6843 31.1473 57.2763C31.1692 54.6312 30.9395 51.9899 30.4615 49.3882C32.2586 49.6912 38.6515 47.9401 38.365 50.5695ZM49.3867 47.4534C48.0983 47.7804 42.9489 46.8431 44.4331 49.2176C43.6325 51.8579 43.2814 56.3707 45.4503 58.3012C48.5521 58.7564 51.7135 58.5879 54.7494 57.8057C56.1056 52.991 56.5781 45.5688 49.3867 47.4534ZM53.6764 48.6598C54.523 50.9184 53.8536 54.0749 53.5889 56.5599C51.2308 56.1585 48.8344 56.887 46.4697 56.5052C45.8524 54.1521 45.553 51.7268 45.5794 49.2942C48.2656 49.1137 50.9934 48.2343 53.6764 48.6598ZM30.2067 34.6806C30.1995 34.7111 30.1955 34.7422 30.1947 34.7735L30.2067 34.6806ZM30.1936 34.7954C30.1888 34.8196 30.1852 34.8441 30.1826 34.8687L30.1936 34.7954Z"></path>
<path d="M27.5413 36.9599C28.4054 37.2453 31.2404 34.64 29.7474 34.0067C28.5552 33.8547 26.6412 35.9153 27.5413 36.9599ZM27.4166 41.0396C29.3996 42.7611 28.0729 39.3049 28.0882 38.2833C27.0207 36.8002 26.7505 40.4183 27.4166 41.0396ZM30.6804 42.6802C28.7488 40.8427 28.9194 43.7193 30.3982 44.4072C32.0727 45.7963 34.398 43.8024 31.5455 43.1089L31.7501 43.1964C31.3756 43.0635 31.0176 42.8904 30.6804 42.6802Z"></path>
<path d="M33.795 44.7878C35.3361 45.6256 39.406 43.0564 36.4682 42.3969C35.6347 42.8037 32.1489 43.6284 33.795 44.7878ZM40.3269 39.7303C39.1478 39.5564 38.5441 41.2911 38.0596 42.1158C38.6021 44.113 41.8866 40.613 40.3269 39.7303ZM33.9066 34.1533C37.551 35.2656 37.6264 32.2775 34.0674 32.3989C31.1175 32.225 30.703 34.0461 33.9066 34.1533Z"></path>
<path d="M37.7899 34.3283C37.8528 34.9919 38.0872 35.6278 38.4702 36.1734L38.3357 35.9984C38.5369 36.2916 38.7437 36.6645 39.1538 36.6317C37.756 37.755 36.6644 39.8364 35.3662 37.4083C33.0988 34.5722 33.7146 38.758 34.8685 39.8856C38.736 45.0044 49.7151 26.8427 39.9041 35.9427C40.2399 34.8981 38.5151 32.7675 37.7899 34.3283Z"></path>
</svg>