<svg xmlns="http://www.w3.org/2000/svg" width="70" height="70" viewBox="0 0 70 70">
<g clip-path="url(#clip0_1335_400)">
<path d="M67.276 47.5101C64.9528 45.2928 62.1063 49.3728 55.5442 51.8647C50.2253 53.8906 49.1313 53.9912 46.3561 54.4485C44.2405 54.7944 38.581 55.7242 35.9324 55.2744C38.5248 53.7263 40.8589 51.508 42.9053 49.2485C46.2761 45.5934 47.554 44.8193 47.7377 42.895C47.9248 41.0961 46.8307 39.4194 44.7961 38.9696C40.1832 37.8972 36.7983 42.7026 34.1432 44.6204C32.3508 45.9199 29.807 45.615 28.074 45.7696V45.7674C24.047 46.0096 21.5368 48.068 17.7444 48.8669C17.5984 48.2193 17.4546 47.5718 17.2795 46.9285C16.8298 45.2528 15.1833 44.0723 13.4287 44.1728C9.29249 44.3566 9.93249 44.7101 6.58332 44.8464C4.63197 44.9274 2.94549 44.9977 2.22333 45.8636C2.09343 46.0182 1.99823 46.1989 1.94414 46.3934C1.89005 46.5879 1.87835 46.7918 1.90982 46.9912C2.76928 53.1133 2.30441 57.4885 3.04387 61.949C3.07986 62.1602 3.198 62.3486 3.37249 62.473C3.54698 62.5974 3.76362 62.6477 3.97506 62.6128C4.18649 62.578 4.37553 62.4608 4.50085 62.287C4.62618 62.1132 4.67759 61.8968 4.64386 61.6852C3.99846 57.789 4.33035 52.629 3.52711 46.8593C4.2417 46.4118 7.66223 46.5426 9.11195 46.2626C10.3401 46.0247 11.8168 45.8669 13.5011 45.7923C14.4979 45.7674 15.4644 46.4193 15.7163 47.3512C17.4633 53.8106 17.6946 60.5079 16.3952 66.7706C13.5454 66.6138 10.7455 66.336 7.88169 66.2019C7.48277 66.1738 7.05466 66.5263 7.03304 66.9738C7.02306 67.1886 7.09877 67.3985 7.24351 67.5574C7.38826 67.7164 7.5902 67.8113 7.80493 67.8214L7.84818 67.8236L9.14979 69.056C10.2719 70.1198 11.2687 70.0008 17.766 69.9922C18.5281 69.9922 19.1357 69.469 19.1757 68.7511C19.2665 67.0917 19.3379 65.389 19.4362 63.7457C27.5378 67.8571 36.2567 69.4592 44.3096 68.3003C52.4772 67.1252 59.9312 63.1187 65.5452 56.8885C66.4274 55.9101 67.2793 54.8517 67.7431 53.5069C68.0371 52.655 68.2663 51.3404 67.9614 50.2863C68.2847 49.1209 67.9993 48.202 67.276 47.5101ZM26.0578 47.6982C29.2394 46.8982 31.7065 47.9707 34.8286 46.1026C37.2654 44.6647 38.9216 41.6777 42.1561 40.6431C42.2642 40.6431 44.7691 39.9231 45.7475 41.3404C45.7723 41.3761 45.8405 41.4572 45.8707 41.4896C46.6253 43.6366 45.8513 43.6626 41.7443 48.1166C41.6902 48.1653 41.6621 48.2031 41.6707 48.2031H41.6729C41.0491 48.6809 38.3075 52.2615 34.3346 54.349C34.2621 54.3879 34.2059 54.4442 34.1508 54.5004C33.4146 54.4409 32.9983 55.3036 33.4805 55.8441C35.1735 57.7458 41.1507 56.9469 46.6199 56.0474C47.9204 55.7296 48.9356 56.1144 56.1215 53.3815C61.1582 51.468 66.449 46.7501 66.4782 49.3988C66.4944 50.988 63.7398 53.3912 62.5961 54.5101C59.7442 57.2236 56.7204 59.2906 53.288 60.9976C41.9767 66.5349 31.0989 63.9836 18.8016 60.3349C18.928 57.0245 18.6814 53.7103 18.0665 50.455C20.8254 49.8755 23.7238 48.3469 26.0578 47.6982Z"></path>
<path d="M12.4165 51.1956C14.4803 51.7026 15.4965 49.2173 14.0209 47.9935C13.9348 47.9206 13.8341 47.8668 13.7256 47.8359C13.6171 47.8049 13.5033 47.7975 13.3917 47.814C12.9679 47.6043 12.4857 47.5524 12.0652 47.6854C10.3993 48.2 10.4403 50.7124 12.4165 51.1956ZM29.7149 24.7179C30.0662 24.7179 30.4132 24.6336 30.7332 24.4887L33.9689 27.7341L33.9256 27.7384C33.7115 27.7559 33.513 27.8578 33.3739 28.0216C33.2348 28.1854 33.1665 28.3978 33.184 28.6119C33.2015 28.8261 33.3034 29.0246 33.4672 29.1637C33.631 29.3027 33.8434 29.371 34.0575 29.3535L36.091 29.186C36.3019 29.1688 36.4978 29.0699 36.6368 28.9103C36.7757 28.7508 36.8468 28.5432 36.8348 28.3319L36.7202 26.3471C36.7066 26.1328 36.6091 25.9326 36.4488 25.7897C36.2885 25.6468 36.0784 25.5729 35.864 25.5838C35.6493 25.5964 35.4484 25.6936 35.3053 25.8541C35.1622 26.0146 35.0887 26.2254 35.1008 26.44L35.1094 26.5806L31.8878 23.3514C32.0567 23.0059 32.143 22.6259 32.14 22.2413C32.137 21.8567 32.0447 21.4781 31.8705 21.1352L35.8208 17.052L35.8229 17.1395C35.828 17.3512 35.9157 17.5525 36.0672 17.7003C36.2187 17.8482 36.422 17.931 36.6337 17.9309H36.6543C36.7608 17.9282 36.8657 17.9046 36.963 17.8614C37.0604 17.8182 37.1483 17.7562 37.2217 17.679C37.2951 17.6018 37.3525 17.5109 37.3908 17.4114C37.429 17.312 37.4473 17.206 37.4445 17.0995L37.3927 15.0596C37.3873 14.8481 37.2995 14.6471 37.148 14.4995C36.9966 14.3518 36.7934 14.2692 36.5819 14.2693H34.5938C34.3787 14.2693 34.1725 14.3547 34.0204 14.5068C33.8684 14.6588 33.7829 14.8651 33.7829 15.0801C33.7829 15.2951 33.8684 15.5014 34.0204 15.6534C34.1725 15.8055 34.3787 15.8909 34.5938 15.8909H34.6878L30.7008 20.013C30.2017 19.8034 29.6454 19.7736 29.1267 19.9287C28.6121 20.0739 28.158 20.3812 27.832 20.805C27.5059 21.2288 27.3253 21.7465 27.317 22.2811C27.2976 23.5222 28.3257 24.7179 29.7149 24.7179Z"></path>
<path d="M33.7466 5.703C32.2005 5.44255 30.6267 5.38947 29.0666 5.54516C24.8309 5.70516 21.0558 7.4511 17.8461 10.7408C16.411 12.2099 15.2614 13.9328 14.4558 15.8219C13.75 17.4938 13.3252 19.2709 13.1985 21.0813C12.9012 25.1862 14.1066 29.0726 16.6861 32.318C17.2143 32.9734 17.7922 33.5871 18.4147 34.1537C19.5974 35.9256 21.3899 37.3656 23.3412 38.292C33.0839 42.9169 45.0233 36.9158 47.086 25.7516C48.02 20.6975 46.6189 15.2867 43.4352 11.2327C40.9746 8.0965 37.6979 6.35921 33.7466 5.703ZM14.8115 23.0835H17.1099C17.3249 23.0835 17.5311 22.998 17.6832 22.846C17.8353 22.6939 17.9207 22.4877 17.9207 22.2727C17.9207 22.0576 17.8353 21.8514 17.6832 21.6993C17.5311 21.5473 17.3249 21.4618 17.1099 21.4618H14.8083C14.8137 21.3732 14.8083 21.2856 14.8158 21.1959C14.9315 19.5581 15.3131 17.9624 15.9477 16.4554C16.6092 14.9177 17.5247 13.5023 18.6558 12.2684L19.7001 13.3116C19.7744 13.3913 19.8639 13.4552 19.9633 13.4995C20.0628 13.5438 20.1702 13.5676 20.279 13.5695C20.3879 13.5715 20.496 13.5514 20.597 13.5107C20.6979 13.4699 20.7897 13.4092 20.8667 13.3322C20.9436 13.2552 21.0043 13.1635 21.0451 13.0625C21.0859 12.9616 21.1059 12.8534 21.104 12.7446C21.1021 12.6357 21.0783 12.5283 21.0339 12.4289C20.9896 12.3294 20.9257 12.2399 20.8461 12.1657L19.8028 11.1214C22.4807 8.68136 25.5444 7.35488 28.9325 7.18191V9.11703C28.9325 9.33207 29.018 9.53831 29.17 9.69036C29.3221 9.84242 29.5283 9.92784 29.7433 9.92784C29.9584 9.92784 30.1646 9.84242 30.3167 9.69036C30.4687 9.53831 30.5541 9.33207 30.5541 9.11703V7.22083C31.0482 7.26948 31.5174 7.33002 31.9563 7.42083C34.8374 7.97434 37.5433 9.38082 39.6795 11.3495L39.1465 11.8813C39.0691 11.9562 39.0074 12.0457 38.965 12.1446C38.9225 12.2436 38.9002 12.35 38.8993 12.4576C38.8984 12.5653 38.919 12.672 38.9598 12.7717C39.0006 12.8713 39.0609 12.9618 39.137 13.0379C39.2132 13.114 39.3038 13.1741 39.4034 13.2149C39.5031 13.2556 39.6099 13.276 39.7175 13.2751C39.8252 13.2741 39.9316 13.2517 40.0305 13.2091C40.1294 13.1666 40.2188 13.1048 40.2936 13.0273L40.8092 12.5127C41.5958 13.3997 42.2704 14.38 42.8179 15.4316C43.7811 17.2802 44.313 19.3559 44.4341 21.4618H42.9044C42.6893 21.4618 42.4831 21.5473 42.331 21.6993C42.179 21.8514 42.0936 22.0576 42.0936 22.2727C42.0936 22.4877 42.179 22.6939 42.331 22.846C42.4831 22.998 42.6893 23.0835 42.9044 23.0835H44.4525C44.3368 25.7397 43.5638 28.3634 42.1498 30.5645C41.6806 31.2867 41.1249 31.9645 40.5206 32.6045L39.7292 31.8132C39.655 31.7335 39.5655 31.6696 39.466 31.6253C39.3666 31.581 39.2592 31.5571 39.1503 31.5552C39.0415 31.5533 38.9333 31.5733 38.8324 31.6141C38.7314 31.6549 38.6397 31.7156 38.5627 31.7926C38.4857 31.8696 38.425 31.9613 38.3842 32.0622C38.3435 32.1632 38.3234 32.2713 38.3254 32.3802C38.3273 32.4891 38.3511 32.5964 38.3954 32.6959C38.4397 32.7954 38.5036 32.8849 38.5833 32.9591L39.3465 33.7234C36.6828 36.0023 33.6763 37.1007 30.5541 37.2088V35.9072C30.5541 34.8337 28.9325 34.8337 28.9325 35.9072V37.1796C25.4342 36.9072 22.1974 35.3634 19.7434 33.1818L22.165 31.4251C22.3392 31.2988 22.456 31.1084 22.4899 30.896C22.5238 30.6835 22.4718 30.4663 22.3455 30.2921C22.2192 30.1179 22.0289 30.001 21.8164 29.9672C21.604 29.9333 21.3867 29.9852 21.2126 30.1115L18.6526 31.9678C18.6277 31.9861 18.6136 32.0142 18.5909 32.0348C18.3747 31.7969 18.1553 31.5602 17.9564 31.3105C16.0342 28.891 14.9737 26.0759 14.8115 23.0835Z"></path>
<path d="M10.0051 16.051C10.2091 16.1187 10.4317 16.1027 10.6239 16.0064C10.816 15.9101 10.9621 15.7414 11.03 15.5375C13.5867 7.85317 21.3143 2.00887 29.405 1.64238C37.2688 1.29644 45.2936 6.14831 48.6969 13.2683L48.0547 13.6704C47.2266 14.1894 47.3304 15.4142 48.2223 15.7958C49.1444 16.1893 50.4677 17.0164 51.0785 17.3439C51.1792 17.3976 51.2902 17.4294 51.4041 17.4372C51.518 17.4451 51.6323 17.4287 51.7394 17.3893C51.8466 17.3499 51.9442 17.2884 52.0259 17.2086C52.1076 17.1289 52.1716 17.0328 52.2136 16.9266C52.6579 15.8023 52.5055 14.3504 52.6352 13.0942C52.739 12.0942 51.6536 11.4175 50.805 11.9483L50.0796 12.4023C46.325 4.6921 37.9574 -0.394368 29.3305 0.0240085C20.4548 0.425088 12.2959 6.59371 9.49054 15.0261C9.42279 15.2301 9.43883 15.4527 9.53512 15.6448C9.63142 15.837 9.80008 15.9831 10.004 16.051H10.0051ZM49.2374 20.3472C49.0071 20.8542 48.9996 21.4131 49.2158 21.8823C49.6633 22.8542 51.1401 22.1796 50.6882 21.2034C50.6741 21.1709 50.6752 21.0996 50.7141 21.0153C50.9498 20.4899 51.952 20.8185 52.0363 22.5363C52.1304 24.4639 51.1347 26.4034 49.5606 27.3666C49.3876 27.4713 49.26 27.637 49.2028 27.831C49.1456 28.025 49.163 28.2334 49.2515 28.4152C49.3401 28.5971 49.4934 28.7393 49.6814 28.8139C49.8694 28.8885 50.0785 28.8901 50.2677 28.8185C51.6542 28.3013 53.1446 28.1245 54.6136 28.3028C54.8262 28.3262 55.0396 28.2658 55.2083 28.1344C55.3771 28.003 55.488 27.8109 55.5174 27.599C55.544 27.3857 55.4848 27.1706 55.3528 27.0009C55.2208 26.8312 55.0269 26.7209 54.8136 26.6942C54.0495 26.5994 53.2775 26.5874 52.5109 26.6585C53.3001 25.4271 53.7282 23.9374 53.6568 22.4574C53.4774 18.8142 50.1498 18.3212 49.2374 20.3472ZM56.8957 25.0985C57.6438 24.7807 58.5909 24.4315 59.5768 24.2834C59.5076 25.1947 59.4038 26.1039 59.2471 27.0034C59.0601 28.0606 60.659 28.3396 60.8438 27.2844C61.2438 24.9947 61.3768 22.6553 61.2363 20.331C61.2151 20.1223 61.114 19.9298 60.9542 19.794C60.7943 19.6582 60.5881 19.5895 60.3787 19.6024C60.1694 19.6153 59.9731 19.7087 59.8311 19.863C59.689 20.0174 59.6122 20.2207 59.6168 20.4304C59.6611 21.1645 59.6665 21.8996 59.6536 22.6336C58.8566 22.7283 58.0734 22.9151 57.3195 23.1904L57.0903 19.4737C57.0211 18.3818 55.406 18.5158 55.4709 19.5731L55.7682 24.4023C55.7766 24.5317 55.8158 24.6573 55.8827 24.7684C55.9495 24.8796 56.042 24.9732 56.1523 25.0413C56.2627 25.1095 56.3878 25.1502 56.5171 25.1602C56.6464 25.1701 56.7762 25.149 56.8957 25.0985Z"></path>
</g>
</svg>