<svg xmlns="http://www.w3.org/2000/svg" width="70" height="70" viewBox="0 0 70 70">
<path d="M63.3244 22.918C62.2732 22.7909 58.8339 22.9134 57.757 22.876C56.4317 22.8749 53.0974 22.8597 51.8059 22.8597L50.8142 22.8574C50.1877 22.9134 49.8389 22.3744 50.071 21.84C50.1854 21.5157 50.806 19.8847 50.9344 19.5149C52.4779 15.3639 54.9104 8.78736 56.4679 4.64103C56.6837 4.05303 56.9905 3.31453 57.1819 2.7102C57.4339 1.7407 56.679 0.652196 55.6442 0.590363L39.7274 0.416529C37.7744 0.376863 30.8957 0.259029 29.0652 0.220529C28.7036 0.197772 28.3422 0.267313 28.0148 0.422618C27.6875 0.577923 27.405 0.813894 27.1939 1.10836C26.8987 1.47353 26.838 1.98103 26.7249 2.3917C26.6234 2.7837 26.4099 3.72753 26.236 4.46953C25.9333 4.45046 25.6438 4.33887 25.4065 4.14986C23.7569 2.80936 22.176 1.69986 20.1857 3.2632C19.3877 3.79403 18.9794 4.4917 18.0892 4.6177C17.0812 4.66903 16.0685 4.25253 14.8855 4.5022C14.1739 4.62353 13.475 5.23953 13.1659 5.85086C12.6525 6.71886 12.5207 7.8062 11.9654 8.46653C11.3505 9.0557 10.2387 9.2412 9.41037 9.77086C8.12004 10.402 7.95554 12.0237 8.24137 13.195C8.38837 14.168 8.62871 14.8575 8.01037 15.6894C5.90921 18.2957 5.92671 19.0645 8.07687 21.6044C8.73254 22.4175 8.53187 23.191 8.39887 24.1687C7.73154 27.6512 10.2772 27.3152 12.1882 28.6499C12.761 29.2239 12.9407 30.3065 13.4925 31.297C14.0245 32.4905 15.5587 32.6562 16.6659 32.4124C17.6447 32.2759 18.438 32.0764 19.2547 32.7355L19.9185 33.2535L19.1707 36.456L19.0739 36.8749C18.7087 38.2445 19.9524 39.697 21.3185 39.6329C21.3349 39.6235 28.5484 39.6795 28.8879 39.6515C29.834 39.655 36.1364 39.6597 36.9274 39.6667C36.9285 39.6025 35.9859 42.7759 35.9812 42.7712L28.3045 68.5709C28.2413 68.7725 28.2508 68.9898 28.3313 69.1852C28.4118 69.3805 28.5582 69.5414 28.7451 69.6399C28.932 69.7384 29.1475 69.7683 29.3542 69.7243C29.5608 69.6803 29.7455 69.5653 29.876 69.3992C36.2904 61.1614 52.9294 39.8184 59.1909 31.885L64.1025 25.6539C64.9519 24.8209 64.5202 23.1782 63.3255 22.9215L63.3244 22.918ZM16.5235 31.4569C15.6089 31.5899 14.7805 31.7334 14.2882 30.8245C13.797 30.0499 13.6897 28.9579 12.8427 27.9907C11.886 27.125 10.7882 27.0107 10.0205 26.5242C9.11871 26.0307 9.27387 25.2245 9.40338 24.3145C9.62271 23.2692 9.72071 21.8902 8.94254 20.9849C8.31604 20.1122 7.53671 19.3434 7.55887 18.6667C7.63121 17.521 9.76854 16.1677 9.68921 14.6522C9.74871 13.629 9.37771 12.5919 9.53404 11.704C9.60871 11.396 9.76854 11.2257 10.1395 11.0122C11.0717 10.507 12.1415 10.4032 13.0655 9.5667C13.923 8.67886 14.0817 7.59853 14.6149 6.70136C14.8424 6.35136 14.9824 6.2557 15.239 6.20903C16.1117 6.11336 17.1115 6.5112 18.1627 6.48436C19.3644 6.52753 20.4937 5.49503 21.3372 4.87553C22.4992 3.92703 23.1549 5.2232 24.1804 5.87186C25.137 6.73753 26.8007 6.7212 27.8997 6.4902C28.5052 6.43653 28.9054 6.32336 29.2367 6.55086C29.9869 7.5227 29.9507 8.77453 30.989 9.84436C32.0507 10.8804 33.292 10.8734 34.2557 11.62C34.5929 12.4682 34.062 13.5695 34.1647 14.6732C34.0877 16.2704 35.9054 17.4195 36.288 18.669C36.3009 18.8137 36.1935 19.124 35.9392 19.4845C35.5239 20.034 34.818 20.9382 34.5415 21.588C33.9815 22.8819 34.7072 24.4102 34.5987 25.5897C34.4412 26.2722 33.5242 26.4635 32.8394 26.789C32.3494 27.006 31.787 27.2347 31.255 27.7574C30.415 28.6884 30.3182 29.7512 29.82 30.695C29.379 31.549 28.7117 31.3729 27.8332 31.2912C27.0562 31.1909 26.0447 31.017 25.2245 31.381C24.1384 31.8384 23.0639 33.2885 22.1655 33.3014C21.4679 33.3282 20.6932 32.5465 19.8275 31.92C18.9269 31.1477 17.5654 31.241 16.5224 31.4592L16.5235 31.4569ZM57.253 32.662C56.6171 32.2274 55.9652 31.8165 55.2989 31.43C53.9304 30.6357 52.544 29.8725 51.1409 29.141C50.0395 28.5682 48.9289 28.014 47.8124 27.4704C46.718 26.9313 45.6072 26.4263 44.4815 25.956C44.4211 25.9315 44.3596 25.9097 44.2972 25.8907C44.2379 25.8736 44.1746 25.8759 44.1167 25.8973C44.0587 25.9187 44.0092 25.9581 43.9752 26.0097C43.938 26.066 43.9224 26.1338 43.9311 26.2006C43.9399 26.2675 43.9726 26.329 44.023 26.3737C44.0919 26.432 44.1677 26.4892 44.2505 26.5417C46.3063 27.8269 48.411 29.0322 50.5599 30.1549L50.687 30.2214C51.7814 30.793 52.8862 31.3449 54.0015 31.8769C54.9407 32.3237 55.8927 32.7484 56.847 33.166L55.4377 34.9184C53.0577 33.502 50.5984 32.2467 48.1425 30.982C45.5164 29.7045 42.8984 28.4084 40.1824 27.3105C40.1123 27.2834 40.0346 27.2834 39.9645 27.3105C39.8944 27.3376 39.8369 27.3898 39.8032 27.457C39.7696 27.5242 39.7622 27.6015 39.7824 27.6739C39.8027 27.7462 39.8492 27.8084 39.9129 27.8484C42.4352 29.3255 45.0051 30.7197 47.6187 32.0285C50.0485 33.2423 52.5144 34.3822 55.013 35.4469L52.5934 38.4499C52.004 38.0298 51.3984 37.6328 50.778 37.2599C49.434 36.4651 48.0689 35.7065 46.6842 34.9849C44.7965 34.0119 42.9077 33.0424 40.9302 32.2292C40.8229 32.1849 40.698 32.2094 40.6304 32.2887C40.5499 32.3832 40.5639 32.5104 40.6444 32.571C41.8274 33.4647 43.6392 34.5987 45.577 35.6732C45.8839 35.8435 46.1942 36.008 46.5057 36.1737C47.7158 36.8147 48.9387 37.4312 50.1737 38.0229C50.8889 38.367 51.5585 38.6727 52.1909 38.9469L49.7992 41.909C49.4907 41.6414 49.1674 41.3914 48.8309 41.16C47.9699 40.5639 46.9922 39.9899 46.2455 39.543C46.0962 39.4532 45.9679 39.3739 45.8629 39.3144C44.4862 38.5257 43.0979 37.7592 41.6197 37.1339C41.5404 37.1 41.4494 37.0965 41.391 37.1292C41.3175 37.1712 41.3012 37.2435 41.3175 37.2797C41.552 37.7954 42.9835 38.8734 44.6472 39.8965C45.7635 40.564 46.8991 41.1986 48.0527 41.7994C48.5369 42.0537 48.9779 42.2742 49.3617 42.4527L47.1357 45.206C47.0914 45.1664 47.0494 45.1267 47.0027 45.087C46.291 44.4734 45.3367 43.8235 45.1617 43.6695C44.233 43.0629 43.3149 42.4399 42.2707 41.9977C41.2405 42.0385 42.3722 43.092 43.8352 44.1467C44.5667 44.674 45.381 45.2014 46.0484 45.6015C46.2374 45.7147 46.41 45.815 46.571 45.9049C41.279 52.4499 35.5787 59.486 31.4732 64.5505L38.1757 43.449C38.4989 42.413 38.9107 41.1869 39.1989 40.1252C39.5384 38.7182 38.2889 37.2599 36.8737 37.3392C36.596 37.3322 35.903 37.3509 35.6125 37.3415L28.8844 37.352C28.4399 37.3275 21.3664 37.4069 21.2229 37.352C21.2229 37.352 21.217 37.345 21.2182 37.3275L21.2999 36.925L21.8295 34.3222C23.0137 34.4984 24.0415 33.6502 25.1324 32.8067C25.9665 32.186 26.6677 32.4264 27.6419 32.5757C29.988 33.117 31.0275 32.018 31.7625 29.9285C32.3319 27.9639 34.6104 28.476 35.8307 27.0247C36.5435 26.2547 36.477 24.92 36.3464 24.1034C36.2414 23.1864 36.0465 22.5505 36.6252 21.8622C37.3182 20.9125 38.3005 20.16 38.374 18.6667C38.3635 17.7684 37.9575 17.1174 37.632 16.639L36.7127 15.4082C36.1935 14.7152 36.4362 14.1634 36.5599 13.2604C36.7372 12.425 36.8037 10.9527 36.0489 10.1255C35.2089 9.03353 33.5324 8.86203 32.6445 8.18653C32.1475 7.60903 31.9539 6.51703 31.4265 5.6957C31.08 5.0412 30.2692 4.36803 29.498 4.2572C29.1273 4.1916 28.7494 4.17591 28.3745 4.21053L28.4597 3.7847C28.5449 3.43936 28.6814 2.5282 28.7817 2.21903C28.7945 2.19458 28.8126 2.17324 28.8346 2.15651C28.8565 2.13978 28.8819 2.12807 28.9089 2.1222L29.8037 2.10236C36.0302 1.9542 49.1774 1.81303 55.5427 1.75703C55.8729 1.76053 56.1482 2.12336 56.0712 2.4652C54.9139 5.80653 52.577 12.0715 51.366 15.449L50.0057 19.1765C49.8704 19.5359 49.2824 21.175 49.1552 21.5064C48.6407 22.603 49.6359 23.9575 50.8084 23.8129L52.6365 23.807C53.8839 24.759 55.1803 25.6449 56.5204 26.4612C57.2423 26.8991 57.9764 27.3165 58.7219 27.713C59.3075 28.0245 59.906 28.3127 60.5069 28.5985L59.0835 30.3754C58.6121 30.0059 58.1206 29.6627 57.6112 29.3475C56.468 28.6375 55.3076 27.9555 54.131 27.3024C53.2191 26.7979 52.2981 26.3102 51.3684 25.8394C50.4507 25.3642 49.5156 24.9237 48.5649 24.5187C48.5145 24.4973 48.4615 24.4824 48.4074 24.4744C48.3558 24.4666 48.3031 24.4733 48.2552 24.4937C48.2072 24.5141 48.1658 24.5474 48.1355 24.5899C48.1025 24.635 48.0842 24.6893 48.0832 24.7453C48.0821 24.8012 48.0984 24.8562 48.1297 24.9025C48.1745 24.9676 48.2306 25.0241 48.2954 25.0694C49.9767 26.2245 51.7128 27.298 53.4975 28.2859L53.6025 28.3442C54.5108 28.8495 55.4304 29.3342 56.3605 29.7979C57.1224 30.1782 57.8982 30.534 58.6752 30.8864L58.3847 31.248L57.2484 32.6655L57.253 32.662ZM63.3512 25.053L60.9572 28.0397C60.6311 27.76 60.2891 27.4994 59.9329 27.2592C58.7744 26.4612 57.3277 25.627 57.1317 25.4579C56.4014 25.0344 55.6745 24.6074 54.9337 24.2025C54.6805 24.0637 54.4239 23.933 54.1684 23.8C56.728 23.793 59.4744 23.7884 61.7237 23.7954C61.9325 23.807 62.9382 23.7732 63.0922 23.8257C63.616 23.9902 63.8039 24.6167 63.3512 25.053Z"></path>
<path d="M20.878 14.0001C21.1265 9.52474 14.3983 9.60757 14.6083 14.0001C14.9105 17.7567 20.5817 17.8256 20.878 14.0001ZM18.7885 14.0001C19.0627 16.4186 15.5592 16.3766 15.7248 14.0001C16.0935 12.0634 18.4012 12.3866 18.7885 14.0001ZM23.9417 23.3334C24.2438 27.0901 29.915 27.1589 30.2113 23.3334C30.4598 18.8581 23.7317 18.9409 23.9417 23.3334ZM28.123 23.3334C28.3972 25.7519 24.8937 25.7099 25.0593 23.3334C25.428 21.3967 27.7357 21.7199 28.123 23.3334ZM27.3285 12.1614L15.509 23.6752C14.4065 24.7626 16.0772 26.4227 17.1587 25.3249L28.6725 13.5054C29.5277 12.6211 28.2058 11.3097 27.3285 12.1614Z"></path>
</svg>