<svg xmlns="http://www.w3.org/2000/svg" width="50" height="50" viewBox="0 0 50 50">
<g>
<path fill="#63AB45" d="M30.4688 27.3438C30.3542 27.3437 30.2411 27.3185 30.1375 27.2699C30.0338 27.2213 29.942 27.1505 29.8687 27.0625L26.1969 22.6562H24.2188V21.0938H26.5625C26.677 21.0938 26.7901 21.119 26.8938 21.1676C26.9975 21.2162 27.0892 21.287 27.1625 21.375L30.4688 25.3422L33.775 21.375C33.8483 21.287 33.94 21.2162 34.0437 21.1676C34.1474 21.119 34.2605 21.0938 34.375 21.0938H47.6562C47.8634 21.0938 48.0622 21.0114 48.2087 20.8649C48.3552 20.7184 48.4375 20.5197 48.4375 20.3125V3.125C48.4375 2.9178 48.3552 2.71909 48.2087 2.57257C48.0622 2.42606 47.8634 2.34375 47.6562 2.34375H13.2812C13.074 2.34375 12.8753 2.42606 12.7288 2.57257C12.5823 2.71909 12.5 2.9178 12.5 3.125V20.3125C12.5 20.5197 12.5823 20.7184 12.7288 20.8649C12.8753 21.0114 13.074 21.0938 13.2812 21.0938H15.625V22.6562H13.2812C12.6596 22.6562 12.0635 22.4093 11.624 21.9698C11.1844 21.5302 10.9375 20.9341 10.9375 20.3125V3.125C10.9375 2.5034 11.1844 1.90726 11.624 1.46772C12.0635 1.02818 12.6596 0.78125 13.2812 0.78125H47.6562C48.2779 0.78125 48.874 1.02818 49.3135 1.46772C49.7531 1.90726 50 2.5034 50 3.125V20.3125C50 20.9341 49.7531 21.5302 49.3135 21.9698C48.874 22.4093 48.2779 22.6562 47.6562 22.6562H34.7406L31.0688 27.0625C30.9955 27.1505 30.9037 27.2213 30.8 27.2699C30.6964 27.3185 30.5833 27.3437 30.4688 27.3438Z"></path>
<path fill="#63AB45" d="M13.2812 30.4688H8.59375V28.9062H13.007L14.9406 27.3602C15.3989 26.9949 15.7688 26.5308 16.0226 26.0025C16.2763 25.4742 16.4075 24.8954 16.4062 24.3094V19.5312C16.4062 19.324 16.4886 19.1253 16.6351 18.9788C16.7816 18.8323 16.9803 18.75 17.1875 18.75C23.3664 18.75 23.4375 23.3906 23.4375 23.4375V29.6875H21.875V23.4375C21.8695 23.143 21.7102 20.6484 17.9688 20.343V24.3094C17.9707 25.1298 17.7871 25.9401 17.4317 26.6796C17.0763 27.4191 16.5583 28.0686 15.9164 28.5797L13.7695 30.2984C13.6308 30.409 13.4586 30.4691 13.2812 30.4688Z"></path>
<path fill="#63AB45" d="M31.25 35.1562H24.2188V33.5938H31.25C31.6644 33.5938 32.0618 33.4291 32.3549 33.1361C32.6479 32.8431 32.8125 32.4457 32.8125 32.0312C32.8125 31.6168 32.6479 31.2194 32.3549 30.9264C32.0618 30.6334 31.6644 30.4688 31.25 30.4688H20.3125V28.9062H31.25C32.0788 28.9062 32.8737 29.2355 33.4597 29.8215C34.0458 30.4076 34.375 31.2024 34.375 32.0312C34.375 32.8601 34.0458 33.6549 33.4597 34.241C32.8737 34.827 32.0788 35.1562 31.25 35.1562Z"></path>
<path fill="#63AB45" d="M32.0312 39.8438H25V38.2812H32.0312C32.4457 38.2812 32.8431 38.1166 33.1361 37.8236C33.4291 37.5306 33.5938 37.1332 33.5938 36.7188C33.5938 36.3043 33.4291 35.9069 33.1361 35.6139C32.8431 35.3209 32.4457 35.1562 32.0312 35.1562H25V33.5938H32.0312C32.8601 33.5938 33.6549 33.923 34.241 34.509C34.827 35.0951 35.1562 35.8899 35.1562 36.7188C35.1562 37.5476 34.827 38.3424 34.241 38.9285C33.6549 39.5145 32.8601 39.8438 32.0312 39.8438Z"></path>
<path fill="#63AB45" d="M31.25 44.5312H24.2188V42.9688H31.25C31.6644 42.9688 32.0618 42.8041 32.3549 42.5111C32.6479 42.2181 32.8125 41.8207 32.8125 41.4062C32.8125 40.9918 32.6479 40.5944 32.3549 40.3014C32.0618 40.0084 31.6644 39.8438 31.25 39.8438H24.2188V38.2812H31.25C32.0788 38.2812 32.8737 38.6105 33.4597 39.1965C34.0458 39.7826 34.375 40.5774 34.375 41.4062C34.375 42.2351 34.0458 43.0299 33.4597 43.616C32.8737 44.202 32.0788 44.5312 31.25 44.5312Z"></path>
<path fill="#63AB45" d="M29.6875 49.2188H14.8438C13.5498 49.1183 12.3327 48.5651 11.4063 47.6562H8.59375V46.0938H11.7188C11.9259 46.0938 12.1246 46.1761 12.2711 46.3227C12.9401 47.0671 13.8581 47.5414 14.8523 47.6562H29.6875C30.1019 47.6562 30.4993 47.4916 30.7924 47.1986C31.0854 46.9056 31.25 46.5082 31.25 46.0938C31.25 45.6793 31.0854 45.2819 30.7924 44.9889C30.4993 44.6959 30.1019 44.5312 29.6875 44.5312H24.2188V42.9688H29.6875C30.5163 42.9688 31.3112 43.298 31.8972 43.884C32.4833 44.4701 32.8125 45.2649 32.8125 46.0938C32.8125 46.9226 32.4833 47.7174 31.8972 48.3035C31.3112 48.8895 30.5163 49.2188 29.6875 49.2188Z"></path>
<path fill="#63AB45" d="M7.03125 49.2188H2.34375C1.72215 49.2188 1.12601 48.9718 0.686468 48.5323C0.24693 48.0927 0 47.4966 0 46.875L0 29.6875C0 29.0659 0.24693 28.4698 0.686468 28.0302C1.12601 27.5907 1.72215 27.3438 2.34375 27.3438H7.03125C7.65285 27.3438 8.24899 27.5907 8.68853 28.0302C9.12807 28.4698 9.375 29.0659 9.375 29.6875V46.875C9.375 47.4966 9.12807 48.0927 8.68853 48.5323C8.24899 48.9718 7.65285 49.2188 7.03125 49.2188ZM2.34375 28.9062C2.13655 28.9062 1.93784 28.9886 1.79132 29.1351C1.64481 29.2816 1.5625 29.4803 1.5625 29.6875V46.875C1.5625 47.0822 1.64481 47.2809 1.79132 47.4274C1.93784 47.5739 2.13655 47.6562 2.34375 47.6562H7.03125C7.23845 47.6562 7.43716 47.5739 7.58368 47.4274C7.73019 47.2809 7.8125 47.0822 7.8125 46.875V29.6875C7.8125 29.4803 7.73019 29.2816 7.58368 29.1351C7.43716 28.9886 7.23845 28.9062 7.03125 28.9062H2.34375Z"></path>
<path fill="#63AB45" d="M3.90625 30.4688H5.46875V32.0313H3.90625V30.4688ZM33.5938 16.4063C33.4726 16.4062 33.3531 16.3781 33.2445 16.3243L30.4688 14.936L27.693 16.3282C27.5593 16.395 27.4092 16.4221 27.2606 16.4062C27.112 16.3903 26.971 16.3321 26.8545 16.2385C26.7379 16.1449 26.6507 16.0199 26.6031 15.8782C26.5555 15.7365 26.5495 15.5841 26.5859 15.4391L27.2828 12.6501L25.9125 10.5938C25.8329 10.4761 25.787 10.339 25.7796 10.1971C25.7722 10.0552 25.8036 9.91403 25.8704 9.78868C25.9373 9.66333 26.037 9.55858 26.159 9.48571C26.2809 9.41283 26.4204 9.37458 26.5625 9.37508H28.4883L29.8164 7.37899C29.892 7.27794 29.9901 7.1959 30.1029 7.1394C30.2158 7.08289 30.3402 7.05347 30.4664 7.05347C30.5926 7.05347 30.7171 7.08289 30.8299 7.1394C30.9427 7.1959 31.0408 7.27794 31.1164 7.37899L32.4492 9.37508H34.375C34.5164 9.37506 34.6552 9.41344 34.7766 9.48612C34.8979 9.5588 34.9972 9.66305 35.064 9.78777C35.1307 9.91248 35.1623 10.053 35.1554 10.1942C35.1486 10.3355 35.1035 10.4723 35.025 10.5899L33.6547 12.6462L34.3516 15.4352C34.3804 15.5504 34.3826 15.6707 34.358 15.7869C34.3335 15.9031 34.2827 16.0121 34.2096 16.1057C34.1366 16.1993 34.0431 16.2751 33.9364 16.3272C33.8297 16.3793 33.7125 16.4063 33.5938 16.4063ZM30.4688 13.2813C30.5899 13.2812 30.7095 13.3093 30.818 13.3634L32.4219 14.1665L32.0531 12.6899C32.0264 12.584 32.0222 12.4736 32.0408 12.366C32.0593 12.2583 32.1003 12.1558 32.1609 12.0649L32.9148 10.9376H32.0312C31.9027 10.9376 31.7761 10.9059 31.6627 10.8452C31.5493 10.7846 31.4526 10.6969 31.3812 10.5899L30.4688 9.21883L29.5563 10.5876C29.4852 10.695 29.3886 10.7831 29.2752 10.8442C29.1618 10.9053 29.035 10.9373 28.9062 10.9376H28.0227L28.775 12.0665C28.8357 12.1573 28.8766 12.2599 28.8952 12.3676C28.9138 12.4752 28.9095 12.5856 28.8828 12.6915L28.5141 14.1681L30.1195 13.3649C30.2279 13.3103 30.3474 13.2817 30.4688 13.2813ZM44.5312 16.4063C44.4101 16.4062 44.2906 16.3781 44.182 16.3243L41.4062 14.936L38.6305 16.3282C38.4968 16.395 38.3467 16.4221 38.1981 16.4062C38.0495 16.3903 37.9085 16.3321 37.792 16.2385C37.6754 16.1449 37.5882 16.0199 37.5406 15.8782C37.493 15.7365 37.487 15.5841 37.5234 15.4391L38.2203 12.6501L36.85 10.5938C36.7704 10.4761 36.7245 10.339 36.7171 10.1971C36.7097 10.0552 36.7411 9.91403 36.8079 9.78868C36.8748 9.66333 36.9745 9.55858 37.0965 9.48571C37.2184 9.41283 37.3579 9.37458 37.5 9.37508H39.4258L40.7539 7.37899C40.8295 7.27794 40.9276 7.1959 41.0404 7.1394C41.1533 7.08289 41.2777 7.05347 41.4039 7.05347C41.5301 7.05347 41.6545 7.08289 41.7674 7.1394C41.8802 7.1959 41.9783 7.27794 42.0539 7.37899L43.3867 9.37508H45.3125C45.4539 9.37506 45.5927 9.41344 45.7141 9.48612C45.8354 9.5588 45.9347 9.66305 46.0015 9.78777C46.0682 9.91248 46.0998 10.053 46.0929 10.1942C46.0861 10.3355 46.041 10.4723 45.9625 10.5899L44.5922 12.6462L45.2891 15.4352C45.3179 15.5504 45.3201 15.6707 45.2955 15.7869C45.271 15.9031 45.2202 16.0121 45.1471 16.1057C45.0741 16.1993 44.9806 16.2751 44.8739 16.3272C44.7672 16.3793 44.65 16.4063 44.5312 16.4063ZM41.4062 13.2813C41.5274 13.2812 41.647 13.3093 41.7555 13.3634L43.3594 14.1665L42.9906 12.6899C42.9639 12.584 42.9597 12.4736 42.9783 12.366C42.9968 12.2583 43.0378 12.1558 43.0984 12.0649L43.8523 10.9376H42.9688C42.8402 10.9376 42.7136 10.9059 42.6002 10.8452C42.4868 10.7846 42.3901 10.6969 42.3187 10.5899L41.4062 9.21883L40.4938 10.5876C40.4227 10.695 40.3261 10.7831 40.2127 10.8442C40.0993 10.9053 39.9725 10.9373 39.8438 10.9376H38.9602L39.7125 12.0665C39.7732 12.1573 39.8141 12.2599 39.8327 12.3676C39.8513 12.4752 39.847 12.5856 39.8203 12.6915L39.4516 14.1681L41.057 13.3649C41.1654 13.3103 41.2849 13.2817 41.4062 13.2813ZM22.6562 16.4063C22.5351 16.4062 22.4156 16.3781 22.307 16.3243L19.5312 14.936L16.7555 16.3282C16.6218 16.395 16.4717 16.4221 16.3231 16.4062C16.1745 16.3903 16.0335 16.3321 15.917 16.2385C15.8004 16.1449 15.7132 16.0199 15.6656 15.8782C15.618 15.7365 15.612 15.5841 15.6484 15.4391L16.3453 12.6501L14.975 10.5938C14.8954 10.4761 14.8495 10.339 14.8421 10.1971C14.8347 10.0552 14.8661 9.91403 14.9329 9.78868C14.9998 9.66333 15.0995 9.55858 15.2215 9.48571C15.3434 9.41283 15.4829 9.37458 15.625 9.37508H17.5508L18.8789 7.37899C18.9545 7.27794 19.0526 7.1959 19.1654 7.1394C19.2783 7.08289 19.4027 7.05347 19.5289 7.05347C19.6551 7.05347 19.7796 7.08289 19.8924 7.1394C20.0052 7.1959 20.1033 7.27794 20.1789 7.37899L21.5117 9.37508H23.4375C23.5789 9.37506 23.7177 9.41344 23.8391 9.48612C23.9604 9.5588 24.0597 9.66305 24.1265 9.78777C24.1932 9.91248 24.2248 10.053 24.2179 10.1942C24.2111 10.3355 24.166 10.4723 24.0875 10.5899L22.7172 12.6462L23.4141 15.4352C23.4429 15.5504 23.4451 15.6707 23.4205 15.7869C23.396 15.9031 23.3452 16.0121 23.2721 16.1057C23.1991 16.1993 23.1056 16.2751 22.9989 16.3272C22.8922 16.3793 22.775 16.4063 22.6562 16.4063ZM19.5312 13.2813C19.6524 13.2812 19.772 13.3093 19.8805 13.3634L21.4844 14.1665L21.1156 12.6899C21.0889 12.584 21.0847 12.4736 21.1033 12.366C21.1218 12.2583 21.1628 12.1558 21.2234 12.0649L21.9773 10.9376H21.0938C20.9652 10.9376 20.8386 10.9059 20.7252 10.8452C20.6118 10.7846 20.5151 10.6969 20.4437 10.5899L19.5312 9.21883L18.6188 10.5876C18.5477 10.695 18.4511 10.7831 18.3377 10.8442C18.2243 10.9053 18.0976 10.9373 17.9688 10.9376H17.0852L17.8375 12.0665C17.8982 12.1573 17.9391 12.2599 17.9577 12.3676C17.9763 12.4752 17.972 12.5856 17.9453 12.6915L17.5766 14.1681L19.182 13.3649C19.2904 13.3103 19.4099 13.2817 19.5312 13.2813ZM36.7188 30.4688H42.9688V32.0313H36.7188V30.4688ZM36.1664 28.354L39.682 24.8384L40.7867 25.9431L37.2711 29.4587L36.1664 28.354ZM36.1664 34.5368L37.2711 33.4321L40.7867 36.9477L39.682 38.0524L36.1664 34.5368Z"></path>
</g>
</svg>