<svg xmlns="http://www.w3.org/2000/svg" width="15" height="16" viewBox="0 0 15 16">
    <path fillRule="evenodd" clipRule="evenodd"
        d="M13.0744 8.30954C12.6426 8.36702 12.2109 8.42437 11.7807 8.48923C10.8507 8.62935 9.91412 8.70862 8.98237 8.78751L8.98112 8.78757C8.84112 8.79945 8.70125 8.81126 8.56156 8.82332C7.49337 9.032 6.41268 9.10917 5.33356 9.05372C4.22669 8.93163 3.14081 8.58578 2.11432 8.02837V7.76345C3.14081 7.20603 4.22669 6.86018 5.33356 6.73809C6.41268 6.68265 7.49337 6.75982 8.56156 6.96849C9.63169 7.06068 10.7019 7.17588 11.7807 7.30259C12.8597 7.42935 13.9299 7.57908 15 7.76345V8.02837C14.3601 8.13865 13.7169 8.22412 13.0744 8.30954ZM4.23673 0.14976C4.06677 0.540388 3.88 0.914468 3.69388 1.28726C3.61104 1.45317 3.52831 1.61887 3.44728 1.78561C3.18413 2.32705 2.88589 2.84546 2.57011 3.35234C2.45519 3.5368 2.36002 3.73958 2.26642 3.939C2.10282 4.28757 1.94402 4.62593 1.69294 4.83843C1.21844 5.2232 0.671682 5.42665 0.114031 5.42597L0 5.26468C0.00551875 4.53235 0.176481 3.81866 0.491219 3.2141C0.6689 2.81982 0.966407 2.59414 1.26418 2.36828C1.39271 2.27078 1.52129 2.17324 1.64031 2.06209C2.03504 1.69345 2.43853 1.33633 2.8508 0.990726C3.26307 0.645126 3.68411 0.31104 4.13147 0L4.23673 0.14976ZM3.24568 15.3345C3.51184 15.5631 3.77735 15.7912 4.06123 16L4.18404 15.8502C3.9472 15.2742 3.69281 14.7212 3.42966 14.1798C3.16651 13.6384 2.88581 13.1084 2.60511 12.59C2.52048 12.4337 2.44621 12.2649 2.37198 12.0961C2.19999 11.705 2.02816 11.3143 1.72794 11.0809C1.26879 10.6644 0.7246 10.4395 0.166563 10.4358L0.0437562 10.5856C0.0348937 11.3194 0.190456 12.0405 0.491113 12.6592C0.652919 12.9889 0.910556 13.1975 1.17597 13.4124C1.32782 13.5353 1.48222 13.6602 1.62268 13.8112C2.00863 14.2259 2.38582 14.6176 2.80686 14.9632C2.95538 15.0851 3.10063 15.2098 3.24568 15.3345Z"
        fill="
        #63AB45"></path>
</svg>