<svg xmlns="http://www.w3.org/2000/svg" width="15" height="16" viewBox="0 0 15 16">
    <path fillRule="evenodd" clipRule="evenodd"
        d="M1.92556 7.69046C2.35744 7.63298 2.78906 7.57563 3.21925 7.51077C4.14925 7.37065 5.08588 7.29138 6.01763 7.21249L6.01888 7.21243C6.15888 7.20055 6.29875 7.18874 6.43844 7.17668C7.50663 6.968 8.58732 6.89083 9.66644 6.94628C10.7733 7.06837 11.8592 7.41421 12.8857 7.97163L12.8857 8.23655C11.8592 8.79397 10.7733 9.13981 9.66644 9.26191C8.58732 9.31735 7.50663 9.24018 6.43844 9.03151C5.36831 8.93932 4.29813 8.82412 3.21925 8.69742C2.14031 8.57065 1.07012 8.42092 -6.78702e-07 8.23655L-7.01862e-07 7.97163C0.639938 7.86135 1.28306 7.77588 1.92556 7.69046ZM10.7633 15.8502C10.9332 15.4596 11.12 15.0855 11.3061 14.7127C11.389 14.5468 11.4717 14.3811 11.5527 14.2144C11.8159 13.6729 12.1141 13.1545 12.4299 12.6477C12.5448 12.4632 12.64 12.2604 12.7336 12.061C12.8972 11.7124 13.056 11.3741 13.3071 11.1616C13.7816 10.7768 14.3283 10.5734 14.886 10.574L15 10.7353C14.9945 11.4677 14.8235 12.1813 14.5088 12.7859C14.3311 13.1802 14.0336 13.4059 13.7358 13.6317C13.6073 13.7292 13.4787 13.8268 13.3597 13.9379C12.965 14.3066 12.5615 14.6637 12.1492 15.0093C11.7369 15.3549 11.3159 15.689 10.8685 16L10.7633 15.8502ZM11.7543 0.665536C11.4882 0.436859 11.2226 0.208798 10.9388 -1.5523e-06L10.816 0.149784C11.0528 0.725784 11.3072 1.27877 11.5703 1.82018C11.8335 2.3616 12.1142 2.89157 12.3949 3.40997C12.4795 3.56628 12.5538 3.73514 12.628 3.90394C12.8 4.29501 12.9718 4.68572 13.2721 4.91908C13.7312 5.33563 14.2754 5.56049 14.8334 5.56418L14.9562 5.4144C14.9651 4.68055 14.8095 3.95951 14.5089 3.3408C14.3471 3.01108 14.0894 2.80252 13.824 2.58763C13.6722 2.46474 13.5178 2.33975 13.3773 2.1888C12.9914 1.77409 12.6142 1.3824 12.1931 1.0368C12.0446 0.91489 11.8994 0.790152 11.7543 0.665536Z"
        fill="
        #63AB45"></path>
</svg>