<svg width="146" height="40" viewBox="0 0 146 40" fill="none" xmlns="http://www.w3.org/2000/svg">
<path d="M72.165 0.383778C72.695 0.140303 73.3048 0.140303 73.8348 0.383778L81.5071 3.90845C81.9143 4.09552 82.3726 4.14041 82.8083 4.03593L94.3478 1.26928C95.0888 1.09162 95.8664 1.35049 96.3531 1.93686L98.8194 4.90847C99.2519 5.42963 99.9188 5.69648 100.592 5.61753L113.236 4.13355C114.481 3.98742 115.456 5.1842 115.062 6.37416C114.688 7.50006 115.545 8.65542 116.73 8.62591L127.564 8.35635C128.833 8.32477 129.34 9.98274 128.271 10.6668C127.249 11.3204 127.658 12.8998 128.869 12.9752L135.526 13.39C136.942 13.4781 137.182 15.4619 135.829 15.8856C134.543 16.2883 134.675 18.1497 136.005 18.3671L136.933 18.5187C138.611 18.793 138.611 21.2074 136.933 21.4817L136.005 21.6333C134.675 21.8507 134.543 23.7121 135.829 24.1148C137.182 24.5385 136.942 26.5223 135.526 26.6104L128.869 27.0252C127.658 27.1006 127.249 28.68 128.271 29.3336C129.34 30.0177 128.833 31.6757 127.564 31.6441L116.73 31.3745C115.545 31.345 114.688 32.5004 115.062 33.6263C115.456 34.8162 114.481 36.013 113.236 35.8669L100.592 34.3829C99.9188 34.3039 99.2519 34.5708 98.8194 35.0919L96.3531 38.0636C95.8664 38.6499 95.0888 38.9088 94.3478 38.7311L82.8083 35.9645C82.3726 35.86 81.9143 35.9049 81.5071 36.092L73.8348 39.6166C73.3048 39.8601 72.695 39.8601 72.165 39.6166L64.4927 36.092C64.0855 35.9049 63.6272 35.86 63.1915 35.9645L51.652 38.7311C50.911 38.9088 50.1334 38.6499 49.6467 38.0636L47.1804 35.0919C46.7479 34.5708 46.081 34.3039 45.4083 34.3829L32.7642 35.8669C31.5191 36.013 30.5438 34.8162 30.9383 33.6263C31.3116 32.5004 30.4553 31.345 29.2695 31.3745L18.4361 31.6441C17.1669 31.6757 16.6595 30.0177 17.7291 29.3336C18.7511 28.68 18.3422 27.1006 17.1314 27.0252L10.4736 26.6104C9.05818 26.5223 8.81777 24.5385 10.1712 24.1148C11.4573 23.7121 11.3254 21.8507 9.99535 21.6333L9.06719 21.4817C7.38841 21.2074 7.38841 18.793 9.06718 18.5187L9.99535 18.3671C11.3254 18.1497 11.4573 16.2883 10.1712 15.8856C8.81777 15.4619 9.05818 13.4781 10.4736 13.39L17.1314 12.9752C18.3422 12.8998 18.7511 11.3204 17.7291 10.6668C16.6595 9.98274 17.1669 8.32477 18.4361 8.35635L29.2695 8.62591C30.4553 8.65542 31.3116 7.50006 30.9383 6.37416C30.5438 5.1842 31.5191 3.98742 32.7642 4.13355L45.4083 5.61753C46.081 5.69648 46.7479 5.42963 47.1804 4.90847L49.6467 1.93686C50.1334 1.35049 50.911 1.09162 51.652 1.26928L63.1915 4.03593C63.6272 4.14041 64.0855 4.09552 64.4927 3.90845L72.165 0.383778Z" fill="#63AB45"/>
</svg>
