<svg xmlns="http://www.w3.org/2000/svg" width="50" height="50" viewBox="0 0 50 50">
<g>
<path fill="#63AB45" d="M32.6482 14.843C33.0659 14.4358 33.2133 13.8383 33.0331 13.2835C32.8529 12.7289 32.3823 12.3321 31.8051 12.2483L27.614 11.6392C27.6044 11.6378 27.5953 11.6341 27.5875 11.6284C27.5796 11.6227 27.5733 11.6152 27.569 11.6065L25.6947 7.80884C25.4365 7.28579 24.9138 6.96089 24.3305 6.96089C23.7472 6.96089 23.2245 7.28579 22.9664 7.80884L21.092 11.6065C21.0878 11.6152 21.0814 11.6228 21.0735 11.6285C21.0657 11.6342 21.0565 11.6378 21.0469 11.6392L16.8559 12.2483C16.2787 12.3321 15.8082 12.7288 15.6279 13.2835C15.4475 13.8382 15.5951 14.4359 16.0128 14.843L19.0456 17.7992C19.0525 17.806 19.0577 17.8143 19.0607 17.8236C19.0637 17.8328 19.0644 17.8426 19.0627 17.8522L18.3469 22.0263C18.2483 22.6012 18.4802 23.1712 18.952 23.5142C19.4239 23.8572 20.0376 23.9015 20.5541 23.63L24.3028 21.6592C24.3114 21.6547 24.3209 21.6523 24.3307 21.6523C24.3404 21.6523 24.3499 21.6547 24.3585 21.6592L28.1072 23.63C28.3258 23.7454 28.5693 23.8059 28.8165 23.8063C29.1306 23.8063 29.4427 23.7079 29.7092 23.5141C30.1811 23.1712 30.413 22.6011 30.3144 22.0262L30.21 21.4176C30.1418 21.0199 29.7638 20.7525 29.3664 20.821C29.1754 20.8538 29.0052 20.9611 28.8933 21.1193C28.7815 21.2775 28.737 21.4737 28.7698 21.6647L28.8742 22.2733C28.8767 22.2879 28.8804 22.3099 28.8503 22.3319C28.8204 22.3538 28.8004 22.3435 28.7873 22.3365L25.0387 20.3657C24.8204 20.2509 24.5775 20.1909 24.3309 20.1909C24.0842 20.1909 23.8413 20.2509 23.623 20.3657L19.8745 22.3365C19.8613 22.3434 19.8414 22.3538 19.8115 22.3319C19.7814 22.3101 19.7852 22.2879 19.7877 22.2733L20.5037 18.0993C20.5454 17.8562 20.5274 17.6066 20.4511 17.372C20.3749 17.1374 20.2428 16.9248 20.0662 16.7527L17.0334 13.7965C17.0228 13.7862 17.0068 13.7706 17.0182 13.7351C17.0297 13.6998 17.0518 13.6965 17.0665 13.6944L21.2575 13.0854C21.5016 13.0499 21.7334 12.9557 21.9329 12.8107C22.1325 12.6657 22.2938 12.4744 22.403 12.2532L24.2773 8.45552C24.2838 8.44214 24.2938 8.42212 24.331 8.42212C24.3682 8.42212 24.3781 8.44224 24.3847 8.45552L26.2589 12.2531C26.3681 12.4743 26.5294 12.6656 26.7289 12.8106C26.9284 12.9556 27.1602 13.0499 27.4043 13.0854L31.5955 13.6945C31.6101 13.6965 31.6323 13.6999 31.6438 13.7352C31.6553 13.7706 31.6392 13.7863 31.6287 13.7966L28.5958 16.7528C28.4193 16.925 28.2872 17.1375 28.211 17.372C28.1348 17.6066 28.1167 17.8562 28.1584 18.0993L28.2746 18.7764C28.2908 18.871 28.3254 18.9615 28.3766 19.0426C28.4278 19.1238 28.4944 19.1941 28.5728 19.2495C28.6511 19.3049 28.7396 19.3443 28.8332 19.3655C28.9268 19.3867 29.0236 19.3892 29.1182 19.373C29.2128 19.3568 29.3032 19.3221 29.3844 19.2709C29.4656 19.2197 29.5359 19.1531 29.5913 19.0747C29.6467 18.9964 29.6861 18.9079 29.7073 18.8143C29.7285 18.7208 29.731 18.6239 29.7148 18.5293L29.5987 17.8523C29.597 17.8427 29.5977 17.8329 29.6007 17.8236C29.6037 17.8144 29.6089 17.806 29.6159 17.7992L32.6482 14.843ZM14.6938 4.97485C14.5363 4.48999 14.125 4.14321 13.6205 4.06997L10.5135 3.61851L9.12416 0.802979C8.89858 0.345752 8.44164 0.0617676 7.93178 0.0617676C7.42192 0.0617676 6.96508 0.345752 6.7394 0.802979L5.35004 3.61841L2.24311 4.06987C1.73852 4.14321 1.32729 4.48999 1.16977 4.97476C1.01225 5.45962 1.14116 5.98188 1.50629 6.33784L3.75444 8.52934L3.22368 11.6238C3.18074 11.8684 3.20759 12.1201 3.30116 12.3501C3.39472 12.5801 3.55121 12.7791 3.75268 12.9243C3.97913 13.0899 4.25232 13.1793 4.53286 13.1796C4.74898 13.1793 4.96179 13.1264 5.15287 13.0254L7.93178 11.5645L10.7107 13.0254C11.162 13.2627 11.6985 13.224 12.111 12.9243C12.5235 12.6246 12.7262 12.1263 12.64 11.6238L12.1092 8.52944L14.3575 6.33804C14.5359 6.16534 14.6621 5.94588 14.7216 5.70479C14.781 5.4637 14.7714 5.21073 14.6938 4.97485ZM11.0395 7.5313C10.8851 7.68177 10.7697 7.86752 10.7031 8.07254C10.6365 8.27756 10.6207 8.49569 10.6572 8.70815L11.1545 11.6077L8.55043 10.2386C8.35962 10.1383 8.14729 10.086 7.93173 10.086C7.71617 10.086 7.50385 10.1383 7.31303 10.2386L4.70903 11.6076L5.20639 8.70786C5.24284 8.49541 5.22708 8.27727 5.16046 8.07227C5.09383 7.86726 4.97835 7.68154 4.82397 7.5311L2.71733 5.47769L5.62866 5.05454C5.84198 5.02354 6.04457 4.94113 6.21896 4.81442C6.39336 4.68772 6.53433 4.5205 6.62973 4.3272L7.93168 1.68911L9.23383 4.32739C9.32924 4.52066 9.4702 4.68783 9.64458 4.81451C9.81895 4.94118 10.0215 5.02356 10.2348 5.05454L13.1461 5.47769L11.0395 7.5313ZM47.4913 4.97466C47.4155 4.7382 47.2746 4.52789 47.0847 4.36783C46.8949 4.20777 46.6638 4.10444 46.4179 4.06968L43.311 3.61821L41.9216 0.802979C41.696 0.345752 41.2391 0.0617676 40.7292 0.0617676C40.2194 0.0617676 39.7626 0.345752 39.5369 0.802979L38.1474 3.61831L35.0405 4.06978C34.5359 4.14312 34.1247 4.48989 33.967 4.97476C33.8095 5.45962 33.9384 5.98188 34.3036 6.33784L36.5518 8.52925L36.021 11.6236C35.9348 12.1261 36.1375 12.6244 36.55 12.9241C36.7765 13.0897 37.0497 13.1791 37.3302 13.1794C37.5463 13.1791 37.7591 13.1262 37.9502 13.0252L40.7291 11.5643L43.508 13.0252C43.9593 13.2625 44.4958 13.2238 44.9083 12.924C45.3208 12.6243 45.5235 12.126 45.4373 11.6236L44.9066 8.52915L47.1548 6.33774C47.5199 5.98188 47.6488 5.45962 47.4913 4.97466ZM43.837 7.5312C43.6826 7.68165 43.5671 7.86739 43.5005 8.07242C43.4338 8.27744 43.4181 8.49559 43.4545 8.70806L43.9519 11.6077L41.3479 10.2387C41.1571 10.1384 40.9447 10.086 40.7291 10.086C40.5136 10.086 40.3012 10.1384 40.1104 10.2387L37.5064 11.6077L38.0038 8.70796C38.0402 8.4955 38.0245 8.27735 37.9578 8.07234C37.8912 7.86733 37.7757 7.68161 37.6212 7.5312L35.5145 5.47769L38.4261 5.05454C38.6395 5.02355 38.8421 4.94115 39.0165 4.81445C39.1909 4.68774 39.3319 4.52052 39.4273 4.3272L40.7292 1.68911L42.0312 4.3272C42.1266 4.52054 42.2676 4.68777 42.442 4.81449C42.6164 4.9412 42.819 5.02359 43.0324 5.05454L45.9437 5.47769L43.837 7.5312ZM49.6618 19.1681C49.493 18.8992 49.2682 18.6699 49.0026 18.4959C48.737 18.3219 48.437 18.2073 48.1231 18.16C47.6845 18.0925 47.2357 18.1594 46.8359 18.3519C46.436 18.5444 46.1039 18.8536 45.8832 19.2386C45.6468 19.0764 45.3786 18.9665 45.0963 18.9162C44.1094 18.7407 43.1327 19.3275 42.8243 20.2812L42.4818 21.34C42.2963 21.2155 42.0912 21.1231 41.875 21.0666C40.8394 20.7997 39.7804 21.3904 39.4634 22.4114L39.2391 23.1336C38.9925 22.9666 38.7125 22.8551 38.4186 22.8068C37.4086 22.6413 36.4457 23.2273 36.129 24.2003L33.8093 31.324C33.2566 31.5713 32.1067 32.1559 30.9238 33.1837C30.8513 33.2467 30.792 33.3233 30.7492 33.4092C30.7064 33.495 30.6809 33.5885 30.6742 33.6842C30.6675 33.7799 30.6797 33.8761 30.7102 33.9671C30.7406 34.0581 30.7887 34.1422 30.8516 34.2146C30.9146 34.287 30.9912 34.3463 31.077 34.3892C31.1629 34.432 31.2564 34.4575 31.3521 34.4642C31.4478 34.4709 31.5439 34.4587 31.6349 34.4282C31.7259 34.3978 31.81 34.3497 31.8825 34.2868C33.2784 33.0737 34.6404 32.5586 34.6525 32.5542C34.6555 32.5531 34.6582 32.5515 34.6613 32.5503C34.6759 32.5448 34.6902 32.5383 34.7045 32.5318C34.7126 32.5281 34.7209 32.5247 34.7289 32.5206C34.7441 32.5129 34.7587 32.5043 34.7735 32.4957C34.7801 32.4917 34.787 32.4881 34.7934 32.484C34.8095 32.4737 34.825 32.4625 34.8405 32.4507C34.8451 32.4473 34.8499 32.4442 34.8544 32.4407C34.8741 32.4251 34.893 32.4086 34.9113 32.3908L38.1665 29.2111L39.9136 27.5044C40.0449 27.3761 40.2217 27.3051 40.4053 27.3071H40.4066C40.4978 27.3079 40.5879 27.3268 40.6717 27.3626C40.7555 27.3985 40.8313 27.4507 40.8949 27.5161C40.9606 27.5834 41.0119 27.6633 41.0457 27.7511C41.0795 27.8389 41.0951 27.9326 41.0915 28.0266V28.0271C41.0862 28.1748 41.0337 28.3169 40.9417 28.4327L35.3844 35.4275C35.2658 35.5768 35.2103 35.7666 35.2297 35.9563C35.2491 36.146 35.3419 36.3206 35.4883 36.4428C35.4946 36.448 35.5012 36.4526 35.5076 36.4576C35.5199 36.4672 35.5322 36.4768 35.545 36.4854C35.5528 36.4908 35.5609 36.4955 35.5688 36.5004C35.5807 36.5079 35.5924 36.5153 35.6046 36.5219C35.6133 36.5267 35.6222 36.531 35.6309 36.5354C35.6428 36.5414 35.6547 36.5471 35.6669 36.5524C35.6761 36.5564 35.6855 36.56 35.6947 36.5636C35.7162 36.5718 35.738 36.5791 35.7601 36.5854C35.7728 36.5889 35.7854 36.592 35.7983 36.5949C35.8079 36.5969 35.8173 36.5991 35.8268 36.6007C35.84 36.6031 35.8532 36.6049 35.8665 36.6066C35.8758 36.6078 35.8851 36.609 35.8945 36.6098C35.9084 36.611 35.9224 36.6115 35.9364 36.6119C35.9431 36.6121 35.9499 36.6128 35.9566 36.6128C35.9581 36.6128 35.9594 36.6126 35.9609 36.6125C36.001 36.6121 36.041 36.6085 36.0805 36.6016C36.1143 36.5958 36.1476 36.5876 36.1802 36.5772C36.1857 36.5754 36.1911 36.5735 36.1964 36.5716C36.2298 36.5602 36.2623 36.5462 36.2937 36.53C36.2975 36.5281 36.3012 36.5257 36.305 36.5237C36.3385 36.5057 36.3706 36.4851 36.4009 36.4622L39.4102 34.1559C41.9911 32.1779 43.9381 29.575 45.0977 26.5699C45.2641 26.1386 45.4136 25.7009 45.5459 25.258L47.086 20.1066C47.1411 19.9397 47.2536 19.7977 47.4035 19.7058C47.5534 19.614 47.731 19.5783 47.9047 19.605C48.1227 19.6379 48.3072 19.7589 48.4245 19.9457C48.5417 20.1324 48.5705 20.3511 48.5056 20.5618L46.1969 28.0537C46.0766 28.446 45.9577 28.8387 45.8402 29.2319C44.8372 32.5734 43.7001 36.3608 41.1413 38.4502L35.4942 43.0616C35.4103 43.1301 35.3426 43.2164 35.2962 43.3143C35.2498 43.4122 35.2257 43.5192 35.2257 43.6275V48.4767H28.2694V41.6523C28.3056 41.3366 28.6436 38.7047 30.0342 36.4497C30.0846 36.368 30.1184 36.2772 30.1337 36.1825C30.1489 36.0878 30.1454 35.991 30.1233 35.8976C30.1011 35.8042 30.0608 35.7162 30.0046 35.6384C29.9485 35.5606 29.8775 35.4946 29.7958 35.4443C29.7142 35.3939 29.6234 35.3601 29.5287 35.3448C29.4339 35.3295 29.3371 35.3331 29.2438 35.3552C29.1504 35.3773 29.0623 35.4176 28.9845 35.4738C28.9068 35.53 28.8408 35.601 28.7905 35.6827C27.1328 38.3709 26.8239 41.4146 26.8115 41.5428C26.8092 41.5661 26.8081 41.5894 26.8081 41.6127V49.2073C26.8081 49.4011 26.885 49.5869 27.0221 49.7239C27.1591 49.861 27.3449 49.9379 27.5387 49.9379H35.9564C36.1502 49.9379 36.336 49.861 36.473 49.7239C36.6101 49.5869 36.6871 49.4011 36.6871 49.2073V43.974L42.0656 39.5818C44.9711 37.2091 46.1764 33.194 47.2398 29.6516C47.3584 29.2564 47.4755 28.866 47.5934 28.4835L49.9021 20.9916C49.9957 20.6883 50.0226 20.3683 49.9811 20.0536C49.9397 19.7389 49.8307 19.4369 49.6618 19.1681ZM38.6549 25.0142L38.5549 25.3363L37.9077 27.4208L36.0148 29.2698L37.5182 24.6528C37.5565 24.5331 37.6319 24.4287 37.7334 24.3546C37.835 24.2805 37.9575 24.2407 38.0832 24.2408C38.1157 24.2408 38.1487 24.2434 38.1819 24.2489C38.415 24.2871 38.5393 24.4375 38.5926 24.5238C38.6459 24.6101 38.7249 24.7885 38.6549 25.0142ZM41.8893 23.1712L41.6091 24.0377L40.9972 25.9297C40.8768 25.8955 40.7535 25.8719 40.629 25.8591C40.5607 25.8515 40.4921 25.8471 40.4234 25.8459L40.3974 25.8458C40.2313 25.8458 40.068 25.8645 39.9099 25.9009L40.0507 25.4476V25.4474L40.8589 22.8446C40.9 22.712 40.9906 22.6003 41.1118 22.5327C41.2331 22.4651 41.3757 22.4468 41.5101 22.4817C41.6559 22.5193 41.7761 22.6126 41.8488 22.7446C41.9214 22.8765 41.9358 23.028 41.8893 23.1712ZM45.2751 21.0609L44.1455 24.8393C44.0454 25.1743 43.9346 25.506 43.8132 25.8338C43.4535 26.8067 43.0002 27.7425 42.4597 28.6278L42.4602 28.626C42.4727 28.5847 42.4834 28.5431 42.4933 28.5013C42.4965 28.4878 42.4992 28.4743 42.5021 28.4607C42.5182 28.3867 42.5304 28.3119 42.5385 28.2366C42.54 28.2228 42.5417 28.2092 42.543 28.1954C42.5471 28.1522 42.5498 28.109 42.5511 28.0657C42.5524 28.0224 42.552 27.9792 42.5507 27.936C42.5503 27.9224 42.5494 27.909 42.5487 27.8956C42.545 27.8199 42.5373 27.7445 42.5257 27.6697C42.5237 27.6562 42.5218 27.6428 42.5195 27.6293C42.5123 27.588 42.5041 27.5469 42.4947 27.5061L42.4937 27.5016C42.4836 27.4594 42.4722 27.4175 42.4596 27.3759C42.4557 27.3629 42.4513 27.3502 42.4471 27.3374C42.433 27.2937 42.4176 27.2505 42.4009 27.2078C42.3897 27.1794 42.3779 27.1513 42.3655 27.1235C42.3598 27.1107 42.3543 27.098 42.3485 27.0853C42.3308 27.0474 42.312 27.01 42.2921 26.9731L42.2891 26.9672C42.2705 26.9331 42.2508 26.8993 42.2302 26.8659L43.2797 23.6208L43.2798 23.6206L44.2146 20.7305C44.2995 20.4681 44.5683 20.3068 44.8402 20.3547C45.0535 20.3927 45.1671 20.5312 45.2159 20.6104C45.2646 20.6897 45.3372 20.8534 45.2751 21.0609ZM23.1885 41.5431C23.1749 41.3972 22.8228 37.9391 20.8524 35.14C19.2365 32.8442 17.0293 31.6977 16.1909 31.3235L13.8713 24.2003C13.5545 23.2273 12.5911 22.6412 11.5818 22.8068C11.2878 22.855 11.0078 22.9666 10.7612 23.1336L10.5369 22.4114C10.2199 21.3903 9.16049 20.7995 8.12524 21.0666C7.9091 21.1231 7.70398 21.2156 7.5184 21.34L7.17592 20.2812C6.86752 19.3274 5.89067 18.7403 4.90385 18.9162C4.6187 18.9669 4.35112 19.0782 4.11694 19.2386C3.89627 18.8536 3.56415 18.5444 3.16431 18.3519C2.76448 18.1594 2.3157 18.0925 1.87709 18.16C1.56314 18.2073 1.26311 18.3219 0.99753 18.4959C0.73195 18.6699 0.507087 18.8992 0.338324 19.1681C0.169309 19.4369 0.060342 19.739 0.0188793 20.0537C-0.0225834 20.3685 0.00443636 20.6885 0.0980901 20.9918L2.40678 28.4837C2.52465 28.8664 2.64184 29.2567 2.76049 29.6519C3.66664 32.6703 4.6937 36.0914 6.80502 38.4892C6.86843 38.5612 6.9454 38.6201 7.03155 38.6623C7.11769 38.7046 7.21132 38.7295 7.30709 38.7356C7.40286 38.7417 7.49889 38.7288 7.58969 38.6978C7.68048 38.6667 7.76428 38.6181 7.83627 38.5546C7.9083 38.4912 7.96712 38.4142 8.00939 38.3281C8.05166 38.2419 8.07654 38.1483 8.08262 38.0525C8.08869 37.9567 8.07584 37.8607 8.0448 37.7699C8.01376 37.6791 7.96514 37.5953 7.9017 37.5233C6.00151 35.3653 5.02309 32.1067 4.1601 29.2316C4.04038 28.833 3.92221 28.4391 3.80327 28.0533L1.49457 20.5613C1.42963 20.3506 1.45844 20.132 1.57573 19.9453C1.69301 19.7585 1.87758 19.6377 2.09545 19.6046C2.26921 19.5778 2.44685 19.6135 2.59677 19.7053C2.74668 19.7972 2.85917 19.9392 2.9142 20.1062L3.32436 21.4782C3.32447 21.4785 3.32454 21.4788 3.32455 21.4791L4.45414 25.2575C4.49291 25.3872 4.53354 25.5161 4.57504 25.6444C5.59682 28.8005 7.45952 31.559 9.99868 33.6815C10.0426 33.7182 10.0869 33.7545 10.1312 33.7909C10.2821 33.9149 10.4351 34.0364 10.59 34.1554L13.5992 36.4617C13.6299 36.4852 13.6622 36.5054 13.6954 36.5235L13.7062 36.5296C13.7379 36.5462 13.7706 36.5599 13.804 36.5715C13.8092 36.5733 13.8143 36.5752 13.8196 36.5769C13.8575 36.5892 13.8964 36.5982 13.9359 36.604C13.9702 36.6092 14.0049 36.612 14.0397 36.6123L14.0435 36.6125C14.0496 36.6125 14.0555 36.6119 14.0616 36.6117C14.0766 36.6113 14.0914 36.6108 14.1065 36.6095C14.1151 36.6087 14.1236 36.6076 14.132 36.6066C14.1551 36.6041 14.178 36.6002 14.2006 36.5949C14.2232 36.5898 14.2455 36.5838 14.2675 36.5768C14.2806 36.5726 14.2935 36.5679 14.3064 36.5629C14.3282 36.5548 14.3495 36.5453 14.3702 36.5347C14.3786 36.5305 14.387 36.5265 14.3951 36.5219C14.4077 36.515 14.4199 36.5074 14.4322 36.4997C14.4398 36.4949 14.4475 36.4904 14.4548 36.4853C14.4679 36.4763 14.4805 36.4666 14.4931 36.4568C14.4993 36.452 14.5056 36.4476 14.5117 36.4425C14.6581 36.3203 14.751 36.1457 14.7704 35.956C14.7899 35.7663 14.7343 35.5764 14.6157 35.4271L9.05834 28.4323C8.95354 28.2999 8.90051 28.1338 8.90916 27.9652C8.9178 27.7965 8.98752 27.6368 9.10532 27.5158C9.16882 27.4504 9.24467 27.3982 9.32847 27.3624C9.41227 27.3265 9.50235 27.3076 9.5935 27.3068H9.59399C9.68506 27.3056 9.77547 27.3224 9.86002 27.3563C9.94456 27.3902 10.0216 27.4405 10.0866 27.5042L15.089 32.3906C15.1073 32.4084 15.1262 32.425 15.1459 32.4405L15.1534 32.4459C15.171 32.4595 15.1891 32.4724 15.2078 32.4843C15.2112 32.4865 15.2148 32.4883 15.2182 32.4904C15.236 32.5012 15.2539 32.5115 15.2723 32.5208C15.2786 32.5239 15.285 32.5265 15.2914 32.5294C15.3069 32.5367 15.3224 32.5437 15.3383 32.5498C15.3411 32.5508 15.3437 32.5522 15.3464 32.5533C15.3721 32.5628 17.9386 33.5388 19.6574 35.9806C21.3082 38.326 21.6925 41.3173 21.7309 41.6519V48.4763H14.7746V43.6271C14.7746 43.5188 14.7505 43.4118 14.704 43.3139C14.6576 43.216 14.59 43.1297 14.5061 43.0612L10.0927 39.4572C10.0184 39.3965 9.93285 39.351 9.84096 39.3234C9.74907 39.2957 9.65263 39.2865 9.55715 39.2961C9.46168 39.3057 9.36904 39.3341 9.28452 39.3795C9.20001 39.425 9.12528 39.4866 9.06459 39.561C9.0039 39.6353 8.95844 39.7209 8.93081 39.8128C8.90318 39.9046 8.89392 40.0011 8.90356 40.0965C8.9132 40.192 8.94155 40.2847 8.98699 40.3692C9.03243 40.4537 9.09408 40.5284 9.1684 40.5891L13.3133 43.9739V49.2072C13.3133 49.401 13.3903 49.5868 13.5273 49.7238C13.6644 49.8609 13.8502 49.9378 14.044 49.9378H22.4617C22.6554 49.9378 22.8413 49.8609 22.9783 49.7238C23.1153 49.5868 23.1923 49.401 23.1923 49.2072V41.6126C23.192 41.5894 23.1907 41.5662 23.1885 41.5431ZM7.71098 26.9674C7.70981 26.9696 7.70883 26.9718 7.70756 26.9741C7.68774 27.0108 7.66918 27.048 7.65161 27.0855C7.64555 27.0984 7.64008 27.1113 7.63432 27.1242C7.61577 27.1659 7.59851 27.2083 7.58256 27.2511C7.57202 27.2796 7.56225 27.3085 7.55297 27.3374C7.54877 27.3503 7.54438 27.3631 7.54037 27.3762C7.52787 27.4177 7.51635 27.4595 7.50639 27.5016C7.5058 27.5039 7.50551 27.5062 7.50493 27.5084C7.49555 27.5484 7.48754 27.5887 7.48061 27.6291C7.47817 27.643 7.47621 27.6569 7.47407 27.6709C7.46245 27.7451 7.45486 27.8198 7.45131 27.8949C7.45063 27.9088 7.44965 27.9226 7.44926 27.9366C7.44799 27.9796 7.4476 28.0227 7.44887 28.0658L7.44916 28.0703C7.45043 28.1121 7.45327 28.1539 7.45698 28.1956C7.45815 28.2093 7.45991 28.2229 7.46147 28.2367C7.46636 28.2818 7.47268 28.3268 7.48041 28.3715C7.48569 28.4016 7.49164 28.4318 7.49819 28.4617C7.50102 28.4749 7.50366 28.4879 7.50678 28.501C7.51684 28.5435 7.52787 28.5859 7.54047 28.6278C6.82377 27.4545 6.25688 26.1846 5.85473 24.8394L4.72514 21.061C4.66303 20.8535 4.73549 20.6897 4.78422 20.6106C4.83295 20.5314 4.94663 20.3929 5.15991 20.355C5.19213 20.3493 5.22436 20.3465 5.25629 20.3465C5.49291 20.3465 5.71079 20.4995 5.78559 20.731L7.10629 24.8143L7.76997 26.8663C7.74916 26.8995 7.72954 26.9333 7.71098 26.9674ZM10.0156 25.8876C10.0022 25.885 9.98901 25.8821 9.97563 25.8797C9.9168 25.8695 9.85757 25.8617 9.79809 25.8564C9.78393 25.8551 9.76977 25.8544 9.75561 25.8535C9.7052 25.8499 9.65468 25.8481 9.60415 25.848C9.59077 25.848 9.57748 25.8475 9.56401 25.8478C9.50424 25.8489 9.44467 25.8525 9.3852 25.8584C9.37114 25.8598 9.35737 25.8619 9.3434 25.8635C9.29222 25.8697 9.24128 25.8776 9.19067 25.8874C9.17856 25.8897 9.16655 25.8916 9.15454 25.8941C9.10385 25.9048 9.05336 25.9167 9.00346 25.9312L8.41274 24.1051L8.11069 23.1713C8.08769 23.1012 8.07944 23.0271 8.08645 22.9537C8.09346 22.8803 8.11557 22.8091 8.15141 22.7446C8.18666 22.6797 8.23494 22.6229 8.29323 22.5776C8.35151 22.5324 8.41854 22.4997 8.49008 22.4816C8.62447 22.4468 8.76709 22.4651 8.88833 22.5327C9.00957 22.6004 9.10011 22.7121 9.14116 22.8447L9.94936 25.4474L9.94946 25.4477L10.0908 25.9025C10.0659 25.8968 10.0407 25.8925 10.0156 25.8876ZM13.4008 28.6989L12.0924 27.4208L11.4452 25.3363L11.3451 25.0142C11.2751 24.7885 11.3541 24.6102 11.4074 24.5239C11.4606 24.4375 11.585 24.2872 11.8182 24.249C11.9589 24.2251 12.1035 24.2528 12.2254 24.327C12.3473 24.4012 12.4384 24.5169 12.4818 24.6529L13.9852 29.2698L13.4008 28.6989Z"></path>
</g>
</svg>