<svg xmlns="http://www.w3.org/2000/svg" width="50" height="50" viewBox="0 0 50 50">
<g>
<path fill="#63AB45" d="M38.9264 43.8664C38.854 43.8031 38.7698 43.7547 38.6787 43.7239C38.5876 43.6931 38.4913 43.6805 38.3953 43.687C38.2993 43.6934 38.2056 43.7187 38.1194 43.7613C38.0331 43.804 37.9562 43.8632 37.8929 43.9356L34.8733 47.3892C34.5534 47.7553 34.1095 47.9659 33.6233 47.9823C33.1358 47.9997 32.68 47.8187 32.3361 47.4752L30.0089 45.1489V43.6105C30.0089 43.2061 29.6811 42.8781 29.2765 42.8781C28.8719 42.8781 28.5441 43.2061 28.5441 43.6105V49.2676C28.5441 49.6721 28.8719 50 29.2765 50C29.6811 50 30.0089 49.6721 30.0089 49.2676V47.2201L31.3007 48.5113C31.9001 49.1102 32.7203 49.4481 33.5656 49.4481C34.4842 49.4481 35.372 49.0451 35.9762 48.3532L38.9957 44.8999C39.059 44.8275 39.1074 44.7433 39.1382 44.6522C39.169 44.5611 39.1815 44.4648 39.1751 44.3688C39.1687 44.2728 39.1434 44.1791 39.1007 44.0929C39.058 44.0067 38.9988 43.9297 38.9264 43.8664ZM8.5086 42.8781C8.31435 42.8781 8.12806 42.9553 7.9907 43.0926C7.85335 43.23 7.77618 43.4163 7.77618 43.6105V49.2676C7.77618 49.6721 8.10401 50 8.5086 50C8.91319 50 9.24102 49.6721 9.24102 49.2676V43.6105C9.24102 43.4163 9.16386 43.23 9.0265 43.0926C8.88915 42.9553 8.70285 42.8781 8.5086 42.8781ZM49.0714 11.6115L44.1621 7.62266C43.8226 7.34688 43.3664 7.29219 42.9713 7.48027C42.5763 7.66826 42.3309 8.05684 42.3309 8.49434V17.9085C42.3309 17.9099 42.3312 17.9111 42.3312 17.9125V29.792L34.9566 38.2027L32.6203 33.8409C31.5053 31.7576 29.4472 30.2853 27.1146 29.9022C26.1526 29.7443 23.9074 29.3772 23.0983 29.2441C22.8066 29.1971 22.5412 29.0476 22.3499 28.8224C22.1586 28.5972 22.0539 28.3111 22.0546 28.0156V27.1501C22.6321 26.7866 23.1672 26.3596 23.6498 25.8771C25.3669 24.159 26.3125 21.8755 26.3125 19.4473V19.1289H26.5947C28.0439 19.1355 29.2764 17.9032 29.2764 16.4473C29.2764 15.6748 28.9371 14.9568 28.3869 14.458C28.8127 13.8507 28.9334 13.0526 28.6911 12.352C28.5869 12.0519 28.4222 11.7764 28.2074 11.5425C27.9925 11.3085 27.7319 11.1211 27.4418 10.9918C27.365 10.9576 27.2873 10.9248 27.21 10.8914V5.61914C27.21 2.5208 24.6892 0 21.5908 0H12.8516C9.75323 0 7.23243 2.5208 7.23243 5.61914V10.8914C7.15528 10.9248 7.07794 10.9576 7.00108 10.9917C6.71092 11.121 6.45035 11.3085 6.23546 11.5425C6.02057 11.7764 5.85592 12.052 5.75167 12.3521C5.50626 13.0618 5.62677 13.8476 6.0545 14.4589C5.50479 14.9573 5.16602 15.6748 5.16602 16.4473C5.16602 17.8993 6.38438 19.1372 7.84864 19.1289H8.13087V19.4473C8.13087 22.6862 9.83282 25.5346 12.3888 27.1459V28.165C12.3891 28.438 12.2977 28.7032 12.1294 28.9181C11.9611 29.133 11.7255 29.2852 11.4605 29.3504L5.37843 30.8504C3.9466 31.2011 2.67408 32.0227 1.765 33.1831C0.85592 34.3436 0.362976 35.7758 0.365242 37.25V49.2676C0.365242 49.6721 0.693074 50 1.09766 50C1.50225 50 1.83009 49.6721 1.83009 49.2676V37.25C1.82832 36.1035 2.21171 34.9896 2.91875 34.087C3.62579 33.1844 4.6155 32.5455 5.72911 32.2727L10.4402 31.1108C11.8968 33.4467 14.4449 34.8754 17.2214 34.8754C20.1023 34.8754 22.7028 33.3647 24.1329 30.898L26.8774 31.3478C28.7633 31.6574 30.4274 32.8479 31.3289 34.5323L33.6929 38.9458C33.8014 39.1487 33.9575 39.3223 34.1478 39.4516C34.3381 39.581 34.5569 39.6622 34.7855 39.6885C35.0143 39.7148 35.2461 39.6852 35.461 39.6022C35.676 39.5193 35.8676 39.3855 36.0194 39.2123L41.0356 33.4914L44.2217 36.6787C44.2247 36.6816 44.2279 36.6842 44.231 36.6871L40.1466 41.3583C40.0215 41.5049 39.9592 41.695 39.9732 41.8872C39.9873 42.0794 40.0765 42.2584 40.2216 42.3853C40.3667 42.5122 40.556 42.5767 40.7484 42.565C40.9408 42.5532 41.1208 42.4661 41.2494 42.3226L47.9812 34.6237C49.359 33.0608 49.1174 30.5614 47.5041 29.2718C46.4203 28.4054 45.0011 28.2402 43.7959 28.726V18.2568L49.0714 13.9705C49.2471 13.8283 49.3887 13.6485 49.4859 13.4444C49.583 13.2403 49.6332 13.017 49.6328 12.7909C49.6328 12.3313 49.4281 11.9014 49.0714 11.6115ZM27.8115 16.4473C27.8115 17.1074 27.2554 17.6674 26.5947 17.6641H26.3125V15.4414C26.5882 15.4611 26.8652 15.4316 27.1306 15.3543C27.5398 15.5562 27.8115 15.9802 27.8115 16.4473ZM8.13087 17.6641H7.84864C7.18419 17.6675 6.63087 17.1083 6.63087 16.4473C6.63087 15.9806 6.90196 15.5573 7.31007 15.3558C7.57631 15.4332 7.85418 15.4628 8.13077 15.4432L8.13087 17.6641ZM8.31221 13.9111C7.89259 14.0972 7.40655 13.9151 7.18819 13.5082C6.95811 13.0795 7.15108 12.5279 7.59542 12.3307C11.6192 10.5441 16.0608 9.91286 20.423 10.5077C20.8231 10.5617 21.1929 10.2815 21.2474 9.88076C21.2603 9.78545 21.2544 9.68852 21.2299 9.5955C21.2054 9.50248 21.1628 9.41519 21.1046 9.33863C21.0464 9.26206 20.9737 9.19772 20.8906 9.14927C20.8075 9.10082 20.7156 9.06921 20.6203 9.05625C16.6028 8.50868 12.5125 8.93945 8.69718 10.3119V5.61914C8.69718 3.32842 10.5607 1.46484 12.8515 1.46484H21.5908C23.8816 1.46484 25.7451 3.32842 25.7451 5.61914V10.3116C25.1855 10.1103 24.6188 9.92881 24.0463 9.76758C23.8597 9.71622 23.6604 9.7408 23.4919 9.83594C23.3233 9.93108 23.1993 10.0891 23.1469 10.2753C23.0945 10.4616 23.1179 10.6611 23.2121 10.8302C23.3063 10.9992 23.4635 11.1242 23.6495 11.1776C24.7416 11.4853 25.8103 11.8706 26.8474 12.3306C27.288 12.5262 27.4821 13.0782 27.2562 13.5052C27.0417 13.9103 26.5604 14.1015 26.1305 13.911C20.6649 11.4907 13.8506 11.4557 8.31221 13.9111ZM9.59571 19.4473V14.9614C14.4826 13.0069 19.9611 13.007 24.8478 14.9617V19.4473C24.8478 21.4844 24.0544 23.4002 22.6139 24.8416C21.1851 26.2714 19.2602 27.0761 17.2218 27.0761C13.0167 27.0762 9.59571 23.6538 9.59571 19.4473ZM17.2214 33.4105C15.1157 33.4105 13.171 32.4036 11.9511 30.7317C13.1452 30.3608 13.9733 29.1664 13.8535 27.8937C14.9246 28.3224 16.0679 28.5421 17.2217 28.541C18.3944 28.541 19.5323 28.3185 20.5898 27.8968C20.5148 29.1586 21.3842 30.2982 22.5709 30.6251C21.3599 32.3639 19.3878 33.4105 17.2214 33.4105ZM46.5892 30.4155C47.5707 31.2001 47.7155 32.7117 46.8783 33.6595L45.1971 35.5822L42.0035 32.3876L43.4913 30.6908C43.8725 30.2543 44.4076 29.9819 44.9849 29.9306C45.5622 29.8793 46.137 30.0531 46.5892 30.4155ZM48.1477 12.8336L43.7959 16.3694L43.7956 9.2124L48.1476 12.7484C48.1697 12.7622 48.1703 12.8193 48.1477 12.8336ZM21.2541 18.8925C21.4484 18.8925 21.6347 18.8153 21.772 18.678C21.9094 18.5406 21.9865 18.3543 21.9865 18.1601V16.5464C21.9865 16.1419 21.6587 15.814 21.2541 15.814C20.8495 15.814 20.5217 16.1419 20.5217 16.5464V18.1601C20.5217 18.3543 20.5989 18.5406 20.7362 18.678C20.8736 18.8153 21.0599 18.8925 21.2541 18.8925ZM13.1887 15.8141C12.9944 15.8141 12.8081 15.8912 12.6708 16.0286C12.5334 16.1659 12.4563 16.3522 12.4563 16.5465V18.1602C12.4563 18.5646 12.7841 18.8926 13.1887 18.8926C13.5933 18.8926 13.9211 18.5646 13.9211 18.1602V16.5465C13.9211 16.3522 13.8439 16.1659 13.7066 16.0286C13.5692 15.8912 13.3829 15.8141 13.1887 15.8141ZM19.4766 22.5349C19.3831 22.3646 19.2259 22.2384 19.0394 22.184C18.8529 22.1297 18.6524 22.1516 18.4821 22.245C18.0872 22.4606 17.6439 22.572 17.194 22.5686C16.7625 22.5635 16.339 22.4524 15.9607 22.245C15.7905 22.154 15.5914 22.1338 15.4065 22.1888C15.2216 22.2437 15.0658 22.3694 14.973 22.5385C14.8802 22.7077 14.8578 22.9066 14.9108 23.0921C14.9638 23.2776 15.0878 23.4347 15.2559 23.5293C15.666 23.7544 16.3325 24.0245 17.1786 24.0334C18.0334 24.0423 18.7642 23.7611 19.1867 23.5294C19.357 23.4359 19.4833 23.2787 19.5376 23.0922C19.592 22.9056 19.57 22.7052 19.4766 22.5349Z"></path>
</g>
</svg>